<?xml version="1.0" encoding="utf-8" ?><svg xmlns="http://www.w3.org/2000/svg" xmlns:xlink="http://www.w3.org/1999/xlink" width="1024" height="1024" viewBox="0 0 1024 1024"><path transform="scale(2 2)" d="M253.754 81.1277C275.999 80.4314 293.66 92.2808 294.725 115.821C294.897 119.605 294.28 123.41 294.697 127.177L294.75 127.631C304.892 132.172 305.452 138.495 300.635 148.606C297.385 155.429 293.322 157.868 286.471 160.304C283.878 169.454 282.831 177.178 284.37 186.687C293.429 189.093 302.384 191.374 310.631 195.999C324.671 188.749 345.425 188.857 358.35 198.002C367.524 191.793 377.319 193.584 387.635 193.125C379.436 184.039 378.439 166.795 376.728 155.123C374.845 142.283 373.716 138.822 364.85 129.692C353.868 132.732 346.045 132.623 334.901 130.519C330.418 129.673 319.166 137.554 317.485 124.793C316.677 118.654 322.368 118.361 324.602 114.06C326.755 109.918 327.086 104.72 330.053 101.044C338.471 90.6136 350.899 101.304 359.174 104.157C364.689 106.059 379.961 110.042 383.906 113.503C387.211 116.402 387.831 120.93 390.775 124.061C410.267 144.791 442.807 176.637 444.292 207.515C450.824 213.759 452.471 224.821 443.339 229.074C435.719 232.624 437.85 230.094 431.99 237.466C414.533 259.426 378.659 266.244 352.376 269.256C345.564 294.056 337.415 302.515 324.446 321.813L324.243 322.119C324.26 330.591 324.066 339.182 322.338 347.507C319.71 360.161 312.363 373.357 314.197 386.513C315.13 393.205 318.868 399.355 320.85 405.773C321.524 407.953 326.994 436.219 319.662 430.214C318.409 429.188 318.256 416.835 317.852 414.122C316.392 404.331 310.195 395.962 309.355 385.998C308.21 372.412 314.323 360.797 317.241 347.956C318.881 340.736 319.113 333.593 319.24 326.23C308.174 339.61 288.151 345.944 281.614 367.268C277.423 380.939 273.581 374.047 277.643 363.82C287.506 338.982 314.939 329.359 329.172 307.621C336.936 295.763 342.76 285.446 346.733 271.703C347.059 270.577 348 265.824 349.286 264.88C375.301 261.355 402.389 257.043 423.281 239.751C427.629 236.152 429.916 231.707 433.72 228.195C437.522 224.686 444.826 226.219 444.771 218.156C444.738 213.344 440.902 212.591 439.703 208.424C433.908 167.612 407.802 153.646 386.361 125.841C383.026 121.516 383.082 118.064 377.267 115.633C369.198 112.259 360.64 110.401 352.675 106.869C349.474 105.45 346.365 102.684 342.802 101.899C331.01 99.278 332.448 111.342 327.992 118.213C326.303 120.818 319.339 123.244 323.18 126.804C324.872 128.371 331.314 125.447 333.375 125.511C347.81 126.273 348.743 127.384 364.85 125.038C390.288 137.24 375.748 174.165 393.031 192.789C397.963 198.756 406.422 203.479 414.247 203.635C418.937 203.729 417.424 208.057 415.966 208.4C400.662 211.992 392.092 189.364 362.287 201.083C379.381 212.042 375.52 223.41 372.358 219.126C364.522 208.512 355.216 198.886 341.598 196.488C332.476 194.886 319.041 196.246 310.631 202.192C309.521 201.612 307.994 200.72 306.969 200.041C299.493 195.09 290.479 194.017 282.499 190.551C276.12 187.78 269.744 170.198 269.552 163.661C269.48 161.41 272.847 160.427 273.518 162.667C275.026 167.697 275.994 172.836 278.226 177.648C280.078 160.046 287.267 142.777 289.588 123.266C292.091 102.22 279.551 87.5422 258.623 86.0033C222.631 85.4098 218.656 110.736 225.921 140.438C229.11 150.132 232.825 167.676 233.779 177.648C237.552 171.547 239.433 165.755 241.9 159.145C242.82 156.679 246.746 159.024 246.271 160.824C243.492 171.342 238.254 181.508 230.792 189.472C226.917 193.298 211.286 194.744 202.256 202.192C191.27 192.985 167.904 194.541 155.931 201.392C147.609 206.154 144.111 215.626 138.893 218.787C133.981 213.739 143.781 204.533 147.793 201.083C122.153 190.639 122.548 204.65 107.011 207.883C105.786 208.138 96.9705 210.765 98.7643 205.734C99.2454 204.384 104.739 203.573 106.462 202.95C142.556 189.898 119.464 128.946 147.05 125.046C155.338 124.588 161.863 128.48 171.953 126.127C179.685 124.606 187.489 129.383 189.102 124.799C190.246 121.549 184.466 120.51 182.96 118.129C180.501 114.239 180.194 109.688 178.326 105.534C174.483 97.8588 159.413 106.522 153.668 108.598C134.15 115.649 136.956 109.763 124.814 126.126C119.247 134.488 111.672 141.036 104.878 148.349C85.0479 169.572 78.2123 180.503 72.7651 207.852C71.7577 211.328 68.5775 213.82 67.6165 217.337C65.4201 225.376 75.5869 225.573 79.4416 230.435C96.6191 252.104 123.791 261.22 150.522 263.156C167.263 264.368 160.494 262.351 167.074 278.234C174.012 294.983 182.289 310.601 195.905 322.954C210.421 336.125 229.539 347.434 235.865 367.119C238.501 375.321 233.558 376.639 230.658 367.331C224.421 347.312 204.157 340.006 192.624 326.23C191.101 343.041 197.688 358.865 202.765 374.505C207.242 388.299 197.057 400.465 193.861 413.227C193.133 416.146 192.607 428.745 191.862 429.533C187.633 434.009 187.462 426.248 187.488 424.557C187.641 414.756 190.863 406.343 194.602 397.493C202.05 379.86 198.576 379.922 193.828 363.447C188.889 346.315 187.522 339.454 187.501 321.15C173.783 308.07 164.677 286.907 158.68 269.256C153.869 268.141 149.028 268.245 144.152 267.523C121.745 264.203 99.6816 258.044 83.1132 241.633C80.1621 238.71 77.5789 235.343 74.5505 232.496C70.5515 229.494 65.5063 229.28 63.4498 224.059C60.3846 216.278 64.065 212.973 67.763 206.943C68.2936 206.078 69.007 199.894 69.4262 198.075C74.194 177.387 86.9259 159.716 101.573 144.771C108.316 137.811 115.884 131.008 121.202 122.847C128.525 111.61 128.282 111.578 140.334 107.859C148.547 105.325 170.272 95.2412 177.068 98.0731C183.978 100.953 184.964 110.125 187.501 116.472C196.745 119.981 195.496 129.224 188.536 131.739C184.637 133.148 180.913 131.273 177.423 129.692C165.363 133.355 159.111 131.197 146.819 129.692C128.539 140.5 140.572 176.204 125.259 193.125C134.442 193.055 143.125 191.627 151.482 198.002C164.022 190.28 189.46 187.735 202.256 195.999C210.254 191.427 218.412 188.944 227.364 186.687C230.192 176.951 228.049 169.441 226.18 160.304C212.025 155.47 200.006 134.023 218.24 128.015C218.318 127.107 218.108 125.496 217.963 124.579C214.157 100.492 229.73 81.864 253.754 81.1277ZM221.079 152.683C222.161 153.423 223.214 154.058 224.391 154.642C223.873 152.505 219.825 133.105 219.152 132.604C209.313 136.071 216.146 148.843 221.079 152.683ZM292.223 151.919C296.922 147.308 303.514 134.651 293.079 132.604C291.661 139.875 290.562 147.52 288.549 154.642C289.814 153.774 291.035 152.891 292.223 151.919Z"/><path transform="scale(2 2)" d="M331.947 224.967C342.1 228.264 317.517 242.912 314.53 244.531C300.805 251.973 266.321 262.673 256.58 244.255C238.623 265.171 203.927 250.636 186.554 236.449C184.036 234.394 174.553 228.287 180.077 224.967C183.27 225.366 186.221 229.784 188.455 231.853C200.849 243.335 233.346 257.294 248.871 245.224C255.996 239.685 251.836 229.309 256.591 230.119C261.255 230.913 253.118 246.333 273.951 249.188C289.897 251.374 308.821 244.046 321.477 234.46C325.245 231.606 328.131 227.757 331.947 224.967Z"/><path transform="scale(2 2)" d="M186.603 266.925C189.027 268.01 191.406 270.398 193.563 271.978C208.001 282.551 232.299 285.743 248.203 276.183C255.196 271.98 253.086 264.393 260.658 272.814C274.631 288.355 305.678 281.392 321.692 270.514C323.569 269.24 327.668 264.836 329.408 268.676C329.706 269.334 329.416 269.874 329.157 270.473C314.25 287.338 273.315 293.341 256.58 275.905C239.988 291.034 211.478 288.904 193.423 277.756C190.138 275.727 181.029 271.021 186.603 266.925Z"/><path transform="scale(2 2)" d="M254.994 290.428C261.117 290.161 258.648 304.163 258.621 308.803L258.637 365.363C258.633 369.436 259.885 381.145 257.394 384.071C251.271 385.624 253.738 373.388 253.727 369.137L253.755 306.382C253.754 302.144 252.277 293.8 254.994 290.428Z"/></svg>