<?xml version="1.0" encoding="utf-8" ?><svg xmlns="http://www.w3.org/2000/svg" xmlns:xlink="http://www.w3.org/1999/xlink" width="1024" height="1024" viewBox="0 0 1024 1024"><path transform="scale(2 2)" d="M159.847 81.7486C196.749 79.8353 227.712 96.6621 247.896 127.141C250.159 130.558 254.465 136.731 255.594 140.605C257.753 137.341 259.549 133.983 261.638 130.73C294.124 80.1501 351.421 66.7812 402.747 98.3837C431.306 116.013 452.484 156.296 448.726 189.746C440.686 261.303 353.97 336.977 305.806 384.839L277.91 412.209C257.32 432.35 257.711 435.665 238.435 416.553L219.742 398.121C184.591 363.426 149.071 329.538 116.484 292.253C113.8 289.182 105.238 280.906 107.789 277.408C109.253 276.499 110.643 276.694 111.81 278.072C144.246 316.381 180.603 352.297 216.404 387.48L247.336 417.742C248.952 419.376 250.912 421.113 252.613 422.692C259.826 423.475 261.486 420.318 266.135 415.813L316.007 366.901C341.367 341.584 366.725 316.267 390.035 289.017C433.018 238.767 468.534 179.674 419.266 120.557C406.922 105.746 390.557 96.6671 372.198 91.4555C330.125 79.5118 294.071 94.6246 268.665 130.234C266.646 133.064 258.475 147.301 257.801 147.824C252.914 151.616 247.984 138.104 246.149 135.169C215.603 86.3289 160.983 72.4502 111.861 103.384C86.4912 119.36 66.3738 155.637 68.2654 186.343C69.4715 205.922 80.1485 229.535 90.4217 245.962C91.5699 247.798 93.8514 251.386 93.0099 253.612C90.8254 259.391 84.7141 247.508 84.1872 246.613C58.3234 202.668 52.1333 162.095 86.2105 119.378C105.589 95.0853 129.636 85.1197 159.847 81.7486Z"/><path transform="scale(2 2)" d="M201.821 165.253C204.39 165.221 205.807 165.822 206.363 168.504C208.356 178.119 209.999 188.377 211.79 198.006L228.707 292.421C229.226 295.273 231.35 310.206 232.193 311.48L232.605 311.367C233.407 310.029 242.511 262.243 243.312 258.28L246.531 242.803C247.848 236.672 249.295 225.225 255.953 222.519C269.613 216.967 272.815 251.812 280.15 254.372C283.003 255.368 287.485 245.573 288.569 243.648L300.156 222.816C302.217 219.056 304.148 215.229 306.514 211.648C309.555 206.883 316.73 207.292 319.554 212.076C324.162 219.883 333.227 233.549 336.373 241.317C353.856 241.644 371.379 241.074 388.894 241.359C393.608 241.435 400.93 240.658 405.57 241.784C408.041 242.383 408.219 247.075 403.21 247.038L344.31 247.064C340.838 247.093 333.986 248.436 331.978 244.837C327.524 236.918 322.666 229.103 318.247 221.174C316.944 218.836 313.406 210.705 310.733 215.691C306.729 223.16 289.294 259.624 280.808 260.169C268.757 259.633 264.215 226.679 258.226 227.568C253.885 230.835 250.76 250.538 249.442 256.696C248.053 265.413 245.487 275.984 243.764 284.721L238.424 311.317C237.858 314.21 236.261 329.869 232.899 330.339C226.526 331.229 223.213 294.944 222.11 289.007L202.716 179.897C201.784 186.658 200.385 191.746 199.095 198.338L183.66 275.021C183.045 278.069 182.15 289.133 178.641 290.203C171.692 292.324 162.633 258.729 158.544 257.326C154.063 255.788 152.391 266.918 149.03 268.39C146.724 269.399 139.847 268.596 137.162 268.59L68.4365 268.463C64.1731 268.425 63.8445 263.025 68.5492 262.8C71.6477 262.668 74.7602 262.736 77.8623 262.746L95.4623 262.78C112.137 262.782 129.387 262.531 146.006 262.767C161.495 233.896 169.02 267.286 176.766 280.419C180.069 268.361 182.144 253.368 184.681 240.818L194.129 194.76C195.408 188.579 197.556 168.171 201.821 165.253Z"/></svg>