<?xml version="1.0" encoding="utf-8" ?><svg xmlns="http://www.w3.org/2000/svg" xmlns:xlink="http://www.w3.org/1999/xlink" width="1024" height="1024" viewBox="0 0 1024 1024"><path d="M712.314 230.663C715.01 230.16 721.3 230.614 724.025 231.145C731.845 232.654 738.983 236.606 744.411 242.433C751.289 249.673 755.002 258.55 759.489 267.404L773.66 295.359C777.076 302.074 780.768 309.751 784.907 315.99C790.742 310.265 795.611 305.771 803.726 303.451C811.835 301.182 820.515 302.254 827.827 306.429C831.397 308.473 834.568 311.144 837.189 314.314C841.078 318.937 844.859 325.797 848.039 331.108C857.843 347.477 867.71 365.79 873.214 384.137C875.779 392.687 876.275 403.15 871.34 410.842C864.141 422.062 854.411 424.13 842.456 426.842C845.265 435.316 852.221 446.394 855.898 454.68C864.043 473.123 879.274 491.656 871.176 512.829C867.621 522.123 863.65 528.008 854.852 533.027C845.031 538.631 834.86 543.366 824.808 548.397L757.779 581.665C743.345 588.862 734.386 594.052 718.018 588.716C698.941 582.497 693.077 563.239 684.73 546.765L654.724 487.537C625.483 489.903 600.992 499.74 579.774 519.861C565.58 533.679 551.343 545.867 533.491 554.646C496.255 572.958 452.835 569.729 420.861 599.703C418.025 602.361 411.385 607.974 408.24 609.877C409.873 615.079 416.485 627.128 419.289 632.557L439.77 672.207C442.85 678.159 448.201 687.479 449.33 693.767C451.398 705.336 450.076 716.081 443.434 725.929C435.813 737.229 422.947 741.792 411.013 747.38C401.653 751.726 392.348 756.189 383.099 760.768C363.49 770.431 343.911 780.205 324.519 790.305C321.003 792.136 316.534 793.198 312.665 793.962C303.327 794.302 296.271 794.261 287.88 789.551C277.432 783.686 272.748 773.495 267.485 763.406C258.037 745.295 249.317 726.804 239.687 708.815C234.435 711.319 229.246 715.161 224.045 718.205C194.133 735.713 171.693 686.063 160.757 665.38C154.536 651.173 146.128 633.723 151.909 618.229C156.473 605.997 170.872 600.924 181.882 595.828C172.626 575.297 159.773 554.843 151.712 534.114C146.528 520.783 153.284 500.85 164.703 492.81C169.077 489.73 177.593 486.175 182.854 483.585L216.614 466.801C229.017 460.685 241.382 454.492 253.708 448.222C269.872 439.918 283.69 429.981 302.344 433.655C322.317 437.588 328.058 454.371 336.116 470.371C343.453 484.891 350.925 499.344 358.53 513.726C362.017 520.43 366.389 530.126 370.609 536.153C395.492 532.907 424.264 522.887 442.793 505.959C459.031 491.124 471.982 478.069 492.233 467.95C510.05 459.046 527.812 455.19 546.996 450.317C565.658 445.577 584.508 438.126 599.969 426.503C605.062 422.685 612.116 417.602 616.204 412.771C614.637 408.946 610.432 401.203 608.44 397.22C601.671 383.797 594.788 370.431 587.792 357.124C583.09 348.082 576.281 337.055 574.486 327.108C572.545 316.356 575.127 305.818 581.62 297.045C588.55 287.682 598.963 283.709 609.171 278.725L639.086 264.165C650.123 258.714 661.281 253.164 672.405 247.9C684.738 242.065 698.849 232.545 712.314 230.663ZM362.123 760.739C382.719 751.438 403.214 741.105 423.552 731.532C440.039 723.771 447.093 704.408 438.204 688.274C433.551 679.384 428.965 669.991 424.368 661.024L400.549 614.728L352.666 521.638L329.71 476.874C319.752 457.105 315.942 439.955 289.767 441.598C282.633 442.926 272.461 448.351 265.942 451.994C248.541 461.716 227.993 469.605 211.243 480.085C213.551 485.353 217.007 491.339 219.719 496.508L234.603 525.019L283.603 619.716L333.496 718.36L348.08 747.419C350.393 752.043 353.848 759.486 356.463 763.495C358.431 762.461 360.062 761.61 362.123 760.739ZM812.662 544.787C810.024 537.616 800.346 519.87 796.53 512.388L761.166 443.385C743.049 407.596 724.715 371.917 706.165 336.35C697.906 320.007 689.507 303.735 680.969 287.535C676.676 279.248 671.819 269.215 667.3 261.18L666.324 260.974C644.673 269.873 623.2 282.561 601.793 292.104C585.65 299.3 577.508 316.928 585.322 333.298C591.034 345.676 597.757 357.612 604.128 369.775L635.835 431.776L681.567 521.462L696.789 551.467C699.723 557.241 702.536 562.975 705.819 568.562C709.93 575.559 720.155 582.007 728.464 582.049C732.478 582.102 734.807 582.198 738.68 580.791C747.748 577.496 757.229 572.368 765.909 568.045L812.662 544.787ZM306.703 785.753C321.584 785.187 335.34 774.384 348.927 767.733C345.899 761.083 341.406 753.578 337.98 746.784L316.009 702.769L253.295 579.78C241.78 557.277 230.134 534.842 218.355 512.476C214.969 506.005 206.74 488.882 202.982 484.204L202.375 484.019L184.993 492.201C174.368 497.28 164.986 501.102 160.706 513.121C157.443 522.283 158.797 530.7 163.073 539.192C168.513 549.995 174.208 560.726 179.662 571.533L241.34 692.429L267.478 744.125C277.21 763.623 281.74 783.491 306.703 785.753ZM675.136 257.2C684.251 277.094 697.058 299.726 707.336 319.577L765.559 432.802L801.686 503.509L814.137 527.948C815.819 531.224 818.884 537.65 820.715 540.427C822.375 539.617 824.123 538.71 825.82 538.01C844.907 528.966 867.527 522.394 864.385 495.561C863.668 489.441 860.836 483.847 858.157 478.347C831.276 424.51 803.774 370.986 775.656 317.785L753.492 274.62C750.477 268.736 744.926 257.123 741.476 252.251C737.702 247.022 732.385 243.108 726.272 241.058C720.927 239.248 717.124 239.313 711.616 239.544C702.83 241.691 683.097 252.081 675.136 257.2ZM185.423 604.019C178.166 607.668 169.725 611.696 162.819 615.767C157.55 625.035 157.294 630.128 160.306 640.498C165.757 659.263 186.944 701.143 203.479 710.535C205.467 711.676 207.609 712.524 209.84 713.053C217.508 713.103 228.836 704.853 235.928 700.517C231.261 692.34 227.075 683.199 222.754 674.739L200.424 631.228C198.322 627.074 188.422 606.518 185.929 604.12L185.423 604.019ZM788.837 324.87C793.571 332.587 798.34 342.429 802.568 350.572L828.561 400.659C831.214 405.652 835.385 414.132 838.197 418.68L845.079 417.286C852.4 415.36 859.953 412.988 864.118 406.068C867.804 399.944 866.68 393.024 864.884 386.466C860.288 369.69 837.549 322.337 823.311 314.171C819.02 311.71 814.396 310.853 809.497 311.111C800.097 313.082 794.611 317.368 788.837 324.87ZM404.266 602.055C432.363 577.889 452.127 567.153 488.905 560.068C518.908 554.288 544.688 541.58 566.424 519.924C591.428 495.014 614.132 483.656 649.703 479.309C647.254 473.134 622.896 423.865 620.381 421.495C590.874 446.211 573.754 453.21 536.318 462.216C523.097 465.396 508.767 469.623 496.63 475.688C464.762 491.614 453.313 514.748 420.144 530.887C410.405 535.541 400.216 539.187 389.736 541.769C385.221 542.857 378.993 543.902 374.835 545.135C377.357 549.34 380.256 555.639 382.531 560.226C386.962 569.219 391.445 578.187 395.978 587.129C398.332 591.741 401.326 598.024 404.266 602.055Z"/></svg>