<?xml version="1.0" encoding="utf-8" ?><svg xmlns="http://www.w3.org/2000/svg" xmlns:xlink="http://www.w3.org/1999/xlink" width="1024" height="1024" viewBox="0 0 1024 1024"><path d="M506.415 142.725C514.75 142.265 528.806 143.235 537.104 143.997C582.387 147.802 626.185 161.987 665.101 185.451C756.024 240.201 810.577 329.213 835.785 430.751C840.652 450.353 856.826 529.256 847.134 544.369C843.481 550.065 836.41 552.607 830.056 553.843C826.021 567.18 823.403 580.932 818.845 594.144C815.849 602.831 812.806 611.496 809.747 620.161C831.209 636.982 848.416 655.463 855.143 682.609C870.879 746.105 821.406 778.523 768.478 792.348C753.866 817.004 732.639 847.619 707.654 862.817C694.918 870.565 675.983 864.279 662.447 860.572C658.699 865.119 655.072 868.768 650.054 871.92C634.389 881.759 613.872 882.623 596.192 878.597C573.477 873.424 540.862 858.888 528.264 838.654C520.569 826.293 524.419 810.399 527.456 797.12C543.758 725.82 588.755 640.921 632.689 582.911C640.073 573.161 651.6 556.962 661.912 550.803C673.224 544.047 695.259 544.183 707.605 547.459C733.636 554.368 757.156 578.168 770.506 600.957C776.334 583.699 781.832 567.051 785.064 549.082C779.398 545.647 775.402 543.366 771.597 537.846C771.04 523.311 771.45 512.726 769.722 497.551C760.973 420.75 729.493 338.991 674.415 283.587C632.28 240.35 574.569 215.81 514.197 215.462C457.592 214.874 402.854 235.686 360.939 273.733C291.538 337.153 255.76 433.26 251.684 525.963C251.528 529.523 251.415 533.084 251.252 536.647C247.771 542.343 243.076 544.828 237.698 548.667C238.313 559.13 248.548 591.941 253.877 601.185C258.734 593.175 264.27 586.16 270.436 579.293C286.337 561.584 308.685 546.041 333.166 545.053C343.946 544.618 360.278 546.455 368.048 554.397C376.108 562.635 384.899 574.202 391.69 583.403C430.743 636.32 460.75 693.338 484.2 754.721C490.955 772.403 499.951 794.608 501.455 813.615C502.359 825.041 497.728 838.403 489.518 846.48C469.778 865.9 436.852 880.573 408.966 880.872C386.045 881.119 374.204 874.808 358.405 859.936C322.316 878.162 304.388 855.693 282.033 830.636C270.564 817.781 263.528 805.58 253.872 791.807C248.697 790.296 243.316 789.368 238.129 787.7C150.829 759.622 144.038 671.585 214.164 619.8C209.484 607.436 204.326 595.17 200.284 582.573C197.28 573.206 195.23 563.485 192.819 553.94C183.293 550.074 174.203 546.327 174 534.267C173.712 517.07 176.356 500.019 178.529 483.001C189.485 397.195 221.537 314.553 279.918 249.787C326.57 198.143 391.747 159.975 460.348 147.493C475.091 144.811 491.428 143.406 506.415 142.725ZM210.935 544.467C223.737 543.438 231.604 541.042 241.904 533.476C242.526 519.167 243.248 505.353 245.162 491.139C264.904 344.547 357.131 204.518 519.125 206.014C679.041 210.792 766.643 361.215 779.903 506.018C780.785 515.649 781.623 525.565 781.512 535.219C789.274 540.374 802.542 544.164 811.872 544.792C816.607 472.499 795.102 387.979 761.096 324.191C745.995 296.305 727.865 270.169 707.034 246.259C703.167 241.858 699.066 237.826 694.94 233.678C646.52 184.998 590.419 156.758 521.582 152.428C516.657 152.101 511.719 152.029 506.787 152.213C494.001 153.117 481.035 153.88 468.426 156.37C409.191 167.981 355.275 202.365 315.673 247.45C249.527 322.753 213.233 426.341 211.036 526.042C210.904 532.039 210.391 538.516 210.935 544.467ZM265.541 601.94C351.543 631.557 412.246 750.563 408.065 838.521C407.497 850.458 404.309 861.14 397.972 871.258C403.107 872.29 409.369 872.357 414.511 871.351C439.237 868.075 469.272 856.273 485.459 836.919C501.612 817.608 481.941 774.181 473.968 754.337C467.238 737.109 460.015 720.077 452.308 703.262C433.489 663.756 411.092 626.056 385.397 590.634C378.493 581.129 368.522 568.027 359.696 560.303C354.082 555.39 340.452 553.863 333.025 554.189C329.483 554.621 325.743 555.122 322.288 556.02C300.926 561.572 275.637 581.684 265.787 601.428L265.541 601.94ZM619.625 871.68C621.18 871.642 622.329 871.773 623.708 871.088C622.91 866.948 620.259 862.782 618.999 859.033C617.048 852.598 615.255 844.847 614.875 838.12C612.34 793.304 628.482 746.008 649.117 706.776C656.095 693.51 669.017 674.682 678.453 663.059C696.874 640.37 730.023 608.383 758.633 600.583C756.433 593.582 736.831 574.956 730.442 570.029C726.156 566.755 721.596 563.856 716.812 561.365C707.436 556.498 695.268 552.955 684.648 554.689C680.554 555.21 670.416 556.532 667.179 558.9C656.357 567.757 644.043 582.693 635.795 594.202C592.331 654.852 555.091 725.151 536.897 797.76C530.283 824.155 530.035 832.301 551.841 848.541C571.474 863.126 595.172 871.215 619.625 871.68ZM236.157 660.245C278.925 706.454 309.96 762.265 326.647 822.975C328.744 830.402 330.529 837.913 331.999 845.489C332.726 849.22 333.323 854.173 334.208 857.667C343.509 856.141 351.938 852.36 360.859 850.209C363.38 849.601 369.901 857.214 372.039 859.462C377.072 863.092 381.689 865.727 387.55 867.901C394.855 862.049 397.672 850.442 398.531 841.326C404.019 783.122 374.658 715.058 340.166 669.647C321.301 644.81 287.18 616.476 257.426 608.67C264.831 628.81 273.427 644.149 247.545 655.651C243.854 657.291 239.832 658.639 236.157 660.245ZM652.787 857.841C654.357 856.013 658.396 850.847 660.56 851.094C665.783 851.689 673.279 854.211 678.543 855.435C682.833 856.451 687.213 857.037 691.619 857.186C690.291 808.28 734.693 727.972 762.061 688.35C766.763 681.543 773.19 673.923 778.519 667.471C781.533 663.822 785.908 659.361 788.392 655.532C771.971 655.8 760.539 652.238 758.176 633.634C757.147 625.538 766.626 613.039 765.886 609.658C764.983 609.604 764.739 609.544 763.846 609.646C735.728 613.239 699.667 652.544 682.344 672.981C649.631 711.575 601.714 822.356 634.213 868.865C642.622 866.597 646.46 863.935 652.787 857.841ZM701.66 855.549C730.799 836.659 762.714 790.715 776.729 759.254C782.238 746.739 786.444 733.691 789.281 720.315C792.667 704.385 794.275 683.261 792.302 667.043L791.816 666.42C773.973 686.932 752.937 717.173 740.353 741.294C726.008 768.791 698.977 824.776 701.129 855.533L701.66 855.549ZM201.46 544.719L201.525 544.093C201.984 539.235 201.628 534.313 201.767 529.446C202.102 517.63 202.074 505.671 203.191 493.906C212.473 396.205 252.674 296.86 322.59 226.788C325.199 224.173 332.133 217.581 333.632 214.689L333.453 214.604C318.632 223.666 304.981 237.434 293.142 250.123C246.769 299.859 214.3 360.921 198.995 427.178C192.279 455.033 187.35 481.339 184.85 509.897C184.187 517.477 182.836 528.676 183.136 536.084C184.893 538.503 185.688 539.707 188.177 541.564C192.983 544.208 195.724 545.184 201.46 544.719ZM780.462 646.379C777.611 644.348 774.437 642.812 771.075 641.838C774.305 644.94 775.708 646.603 780.462 646.379ZM836.982 541.277C841.689 536.104 841.117 532.544 840.841 525.585C840.066 506.023 836.867 486.791 833.571 467.504C818.215 377.658 779.337 294.086 711.758 231.758C707.179 227.535 693.523 215.533 688.362 213.449C708.518 234.032 728.087 254.138 744.344 278.148C788.04 342.687 814.512 419.564 821.327 497.122C822.7 512.743 821.469 529.451 821.452 545.066C827.674 545.029 831.481 544.738 836.982 541.277ZM225.899 739.858C227.907 742.071 230.023 744.297 231.832 746.665C225.493 726.696 221.574 709.03 221.036 688.015C220.954 684.788 222.416 666.646 221.47 665.49C216.208 672.087 212.872 677.267 210.108 685.29C203.923 703.238 211.67 721.775 222.71 736.001C223.432 736.931 225.057 739.148 225.899 739.858ZM225.633 622.186L225.22 622.582C219.608 627.873 212.682 632.513 206.816 638.217C189.118 655.426 177.043 676.265 175.97 701.42C175.176 720.028 183.092 737.563 195.579 750.981C204.426 760.489 221.451 771.603 233.622 775.804C238.907 777.869 241.477 778.626 246.977 779.916C245.004 776.036 241.758 769.5 239.05 766.311C232.45 758.648 224.912 752.549 218.14 744.909C202.829 727.634 194.278 704.516 201.507 681.758C208.352 660.209 233.375 636.613 255.786 632.752C253.604 622.27 244.633 606.361 241.149 595.657C240.71 594.307 236.717 583.128 236.541 582.831C234.207 578.902 229.713 553.243 228.454 551.801C218.478 553.554 213.228 554.087 203.102 554.565C204.511 568.748 213.711 592.042 218.792 605.615C220.781 610.926 223.668 616.57 225.633 622.186ZM793.603 744.25C796.03 741.614 798.842 738.701 801.144 736.005C810.33 724.006 817.512 712.064 815.69 696.22C814.762 688.147 808.022 671.439 802.098 666.3C802.036 673.555 802.608 681.239 802.578 688.069C802.51 703.728 798.739 729.351 793.603 744.25ZM777.773 779.487C781.468 778.497 787.139 776.869 790.619 775.242C812.426 765.15 835.37 752.921 844.112 728.918C853.678 703.095 846.542 673.448 829.671 652.318C822.011 642.723 811.895 634.578 802.671 626.519C797.302 621.828 800.191 618.009 802.271 612.016C808.808 593.184 815.204 574.11 819.742 554.682C811.39 554.125 802.68 553.871 794.686 551.314C791.064 567.797 787.633 581.028 781.897 596.869C778.214 607.039 771.526 621.013 768.56 630.739C773.44 632.782 779.802 635.293 784.365 637.782C800.659 646.744 813.357 661.059 820.312 678.305C836.173 716.599 812.573 741.6 786.414 762.261C784.454 763.809 779.421 776.159 777.773 779.487ZM230.767 668.788C222.06 734.109 271.242 820.548 324.58 856.093L324.443 855.617C322.905 850.122 322.068 844.256 320.792 838.675C309.037 787.262 284.777 737.066 253.536 694.699C248.785 688.256 237.311 672.793 230.767 668.788Z"/><path fill="white" fill-opacity="0.0078431377" d="M771.075 641.838C774.437 642.812 777.611 644.348 780.462 646.379C775.708 646.603 774.305 644.94 771.075 641.838Z"/></svg>