<?xml version="1.0" encoding="utf-8" ?><svg xmlns="http://www.w3.org/2000/svg" xmlns:xlink="http://www.w3.org/1999/xlink" width="1024" height="1024" viewBox="0 0 1024 1024"><path transform="scale(2 2)" d="M251.732 63.1374C305.554 61.3656 387.326 77.1154 393.624 143.679C396.014 168.939 375.454 215.454 358.017 235.727C380.246 262.038 393.376 291.207 393.265 326.415C393.156 361.14 379.702 395.169 354.968 419.745C332.097 442.469 320.066 448.259 289.846 448.26L260.125 448.246L226.056 448.248C219.139 448.252 204.805 449.068 198.862 447.05C156.559 432.689 126.703 388.976 120.685 346.049C114.116 299.197 127.992 269.847 154.665 234.406C124.817 199.366 100.155 138.637 137.572 100.008C166.053 70.6047 212.854 63.9864 251.732 63.1374ZM261.687 443.522L287.676 443.532C293.697 443.529 306.951 443.882 312.476 442.171C347.113 431.442 375.872 391.29 384.301 357.44C405.508 272.273 336.497 191.876 249.594 195C210.701 198.821 178.926 212.764 153.515 243.844C107.841 299.707 115.84 383.64 173.552 427.925C195.058 444.427 200.286 443.541 225.741 443.521L261.687 443.522ZM158.228 230.812C167.227 221.47 181.926 211.244 193.474 205.438C179.945 191.31 154.058 148.681 174.925 130.845C196.972 112.001 234.369 111.561 261.687 111.637C283.463 112.049 346.253 116.039 345.788 148.194C345.562 163.822 328.339 191.87 317.638 205.438C329.599 209.14 346.178 223.591 354.895 232.563C357.961 226.399 362.644 219.812 366.191 213.654C383.966 182.793 399.977 146.293 377.574 113.121C352.517 76.0185 294.914 66.7308 253.156 68.1169C225.085 68.7098 195.157 72.1253 169.363 83.8009C107.357 112.154 116.53 170.056 148.614 217.97C150.795 221.226 155.508 228.361 158.228 230.812ZM197.983 202.907C214.582 193.912 241.274 189.416 259.565 190.052C261.618 190.123 263.752 190.169 265.809 189.999C282.847 193.208 297.461 194.402 313.648 202.907L313.807 202.604C315.707 199.073 319.389 195.592 321.634 192.122C328.996 181.044 333.533 168.803 338.758 156.705C355.61 117.681 264.204 116.066 244.844 116.502C223.37 118.105 192.162 119.669 176.849 135.836C167.847 145.341 171.553 154.404 175.509 164.616C180.81 178.302 187.311 192.483 197.983 202.907Z"/><path transform="scale(2 2)" d="M181.149 278.003C189.558 277.369 179.213 287.466 177.816 289.333C153.097 322.36 158.217 370.331 189.595 397.212C193.779 400.798 205.238 405.685 200.412 409.593C198.641 409.697 195.867 407.76 194.407 406.782C152.438 378.679 145.845 321.585 176.429 283.105C177.594 281.649 179.676 279.02 181.149 278.003Z"/></svg>