<?xml version="1.0" encoding="utf-8" ?><svg xmlns="http://www.w3.org/2000/svg" xmlns:xlink="http://www.w3.org/1999/xlink" width="1024" height="1024" viewBox="0 0 1024 1024"><path transform="scale(2 2)" d="M426.45 88.3673C442.757 88.0725 450.957 106.553 440.452 118.642C438.209 121.224 429.541 125.511 426.151 127.53L402.316 141.412C385.111 151.484 376.742 157.88 357.033 162.442L334.199 167.905C318.182 171.701 301.846 174.632 291.622 189.17C296.233 217.378 296.866 253.339 287.379 279.973C315.94 288.909 362.371 309.622 372.02 341.813C375.643 353.897 368.348 395.473 368.355 411.875C381.389 420.771 395.171 428.825 408.526 437.25C411.413 439.072 425.018 444.308 415.139 447.361C408.901 449.289 400.589 448.771 393.989 448.766L353.624 448.777C330.132 448.983 327.244 443.011 325.404 422.531L322.265 384.831C320.399 364.459 321.422 360.765 301.045 351.684C281.572 343.006 248.932 329.89 227.948 339.949C199.626 353.524 172.913 376.062 150.778 398.206C148.151 400.839 142.132 401.517 140.402 403.199C135.136 408.32 129.971 413.923 124.781 419.204L109.815 434.682C100.114 444.847 92.3278 453.29 77.5727 446.107C69.8964 441.877 66.3723 434.937 66.8869 426.281C67.4924 416.096 82.1385 403.604 90.0843 396.756C85.0487 385.557 89.4439 383.328 96.3543 374.679C116.015 350.072 146.762 317.882 172.944 299.322C188.171 288.527 185.688 289.1 191.063 270.41C175.86 273.473 177.783 262.081 171.778 253.15C170.625 251.434 160.04 251.159 162.504 247.986C167.599 241.873 176.72 247.959 178.896 254.049C180.541 258.65 181.222 262.495 185.73 264.754C188.722 264.777 190.309 264.599 192.671 262.749C198.23 249.381 194.318 230.38 195.893 216.678C187.15 220.577 169.678 230.133 163.736 236.381C158.284 242.115 151.212 257.818 147.533 265.218L138.651 282.696C136.624 286.73 134.348 292.063 131.603 295.536C122.526 306.848 101.827 300.519 101.607 285.616C101.495 278.058 106.009 271.145 109.237 264.403L126.901 226.962C137.441 204.552 145.3 201.292 165.475 186.502C183.835 173.044 204.332 158.028 225.529 149.272C234.932 155.005 248.675 172.131 253.907 181.68C261.229 168.968 265.095 156.86 269.206 143.003C283.699 137.787 304.165 134.804 319.503 132.177L338.404 128.758C342.547 128.026 356.402 126.331 359.407 124.848C372.548 118.36 415.215 89.726 426.45 88.3673ZM273.805 147.841L273.697 148.122C272.679 150.839 272.046 153.716 271.144 156.472C259.346 192.514 235.637 225.484 201.589 243.482C198.609 261.873 196.493 277.155 188.785 294.879C188.405 295.754 186.385 297.11 185.589 297.739C158.323 316.306 134.496 339.416 112.805 364.174C107.709 369.989 97.1433 381.643 93.7256 388.548C94.5359 391.815 94.5492 393.071 97.7067 394.871C109.048 401.012 126.772 400.186 138.679 397.113C147.355 394.874 147.005 393.934 152.978 388.124C172.197 369.429 194.248 351.074 217.881 338.251C239.775 326.921 256.382 329.486 279.802 336.922C334.181 354.187 325.008 360.717 330.095 410.222C337.824 415.778 354.622 412.947 362.773 410.222C362.622 404.206 363.381 397.537 363.92 391.498L366.157 366.382C366.774 359.33 368.139 349.426 366.414 342.763C359.296 315.269 313.376 294.747 289.7 286.937C277.904 283.091 280.594 285.065 283.863 271.185C291.431 239.046 289.644 219.145 285.695 188.016C293.181 172.232 316.534 165.883 331.765 162.378L353.802 157.334C366.543 154.421 370.121 153.478 381.559 146.871L423.276 122.851C431.119 118.337 442.763 114.146 438.898 102.673C437.319 97.9877 431.507 93.3511 426.45 94.0746C419.931 94.9981 382.749 118.36 374.027 123.32C370.295 125.443 366.732 128.028 362.786 129.766C355.443 132.867 336.422 134.93 327.744 136.493C316.471 138.522 282.818 143.412 273.805 147.841ZM94.5352 400.02L84.6036 410.04C81.3853 413.25 76.5662 417.569 74.3262 421.364C67.2093 433.42 82.5818 454.175 101.868 434.536L122.002 413.802C124.529 411.25 128.923 406.649 131.583 404.492C115.979 405.714 109.554 406.082 94.5352 400.02ZM363.81 416.091C356.678 418.399 337.67 420.954 331.272 417.771L331.05 417.851C331.415 425.149 330.65 434.123 336.492 439.404C343.185 445.454 362.268 443.161 372.125 443.185L406.606 443.185C400.221 437.633 380.66 426.342 372.924 422.003C370.447 420.615 366.015 417.153 363.81 416.091ZM225.529 156.016C205.214 163.199 156.669 198.5 142.118 212.56C138.148 216.396 134.526 224.404 132.119 229.433L110.959 274.114C108.752 278.775 105.917 282.434 107.664 287.681C109.633 293.595 116.057 297.408 122.12 295.229C128.909 292.668 133.699 279.473 137.233 272.814L146.049 255.575C157.805 232.343 158.36 230.506 181.752 217.63L190.628 212.748C199.953 207.513 200.739 205.762 201.437 217.55C201.806 223.784 201.458 230.305 201.589 236.611C215.818 229.633 243.854 203.271 250.5 188.016C246.545 179.698 233.245 161.819 225.529 156.016Z"/><path transform="scale(2 2)" d="M243.355 62.8176C265.891 60.6422 285.917 77.1627 288.065 99.701C290.214 122.239 273.669 142.245 251.128 144.366C228.626 146.484 208.661 129.974 206.516 107.474C204.372 84.9737 220.858 64.9893 243.355 62.8176ZM250.122 138.652C269.542 137.097 284.012 120.074 282.419 100.657C280.826 81.2409 263.775 66.8042 244.362 68.4352C225.002 70.0616 210.614 87.0552 212.202 106.418C213.791 125.781 230.756 140.202 250.122 138.652Z"/></svg>