<?xml version="1.0" encoding="utf-8" ?><svg xmlns="http://www.w3.org/2000/svg" xmlns:xlink="http://www.w3.org/1999/xlink" width="1024" height="1024" viewBox="0 0 1024 1024"><path d="M490.461 131.824C519.06 151.586 547.331 181.554 568.926 208.747C606.286 255.791 624.6 305.169 619.222 365.849C618.281 376.763 616.785 387.622 614.739 398.384C608.273 432.671 595.952 474.791 613.508 507.656C623.992 527.281 649.577 524.37 665.614 513.776C723.713 475.397 686.868 392.087 657.818 346.978C673.373 358.69 687.862 372.702 701.06 386.861C758.372 448.346 797.196 521.502 793.852 607.475C790.662 689.482 750.34 774.85 690.572 830.656C648.008 870.4 596.503 897.215 537.411 895.463C544.711 889.25 556.163 881.751 564.188 875.698C635.2 822.142 659.175 764.622 627.279 679.115C625.194 690.193 622.094 698.636 614.121 706.798C598.716 722.65 571.353 722.885 555.99 706.815C547.773 698.22 544.161 687.655 543.081 675.931C541.339 657.035 550.747 640.469 556.14 622.996C559.644 611.644 561.845 600.043 562.01 588.115C562.522 554.639 547.731 525.895 522.694 504.363C517.017 499.481 512.477 495.212 506.141 490.99C515.427 527.249 506.683 563.373 483.072 591.893C475.044 601.59 466.874 611.003 459.162 620.958C438.561 647.553 433.278 681.457 438.663 714.12C430.123 707.757 426.089 703.609 420.427 694.519C411.579 680.314 407.822 657.302 411.973 641.082C408.786 646.777 404.4 652.743 400.957 658.791C386.665 683.899 376.118 709.333 372.957 738.274C366.418 798.134 395.317 840.623 429.941 884.754C345.085 870.956 248.611 809.315 234.552 718.908C219.292 620.781 260.508 504.205 316.661 424.647C304.467 470.999 300.381 515.658 336.036 553.046C335.961 547.974 335.124 541.87 334.786 536.661C334.124 526.481 333.938 516.678 334.619 506.503C338.421 449.661 366.306 403.207 402.135 360.545C423.427 335.193 445.064 312.514 462.901 284.396C494.374 234.784 502.602 188.787 490.461 131.824ZM349.22 574.891C323.773 558.759 308.453 538.79 301.548 509.134C299.024 498.291 297.813 480.914 299.803 469.726C257.935 542.423 227.54 647.345 246.829 730.744C258.183 779.837 300.754 819.688 343.168 843.773C364.461 856.203 384.452 862.416 407.245 870.676C400.788 860.701 394.347 852.455 388.133 842.071C366.019 805.112 357.458 763.006 366.332 720.536C374.238 682.694 393.321 648.391 417.08 618.244C420.853 613.457 426.152 606.586 430.281 602.213C422.788 626.797 413.136 660.872 425.932 684.999C426.408 685.891 426.9 686.773 427.41 687.646C428.312 669.059 429.209 659.753 436.307 641.927C450.919 605.229 486.056 585.984 496.562 547.386C500.764 531.95 500.926 523.503 499.562 507.775C498.145 491.424 494.006 484.114 489.905 469.994C516.102 483.629 551.367 512.92 561.965 541.091C563.478 545.313 565.759 550.591 566.897 554.791C570.386 567.667 572.229 583.827 570.916 597.059C569.998 607.197 567.956 617.202 564.827 626.89C557.926 648.651 544.968 668.873 556.804 692.211C568.67 715.608 603.065 715.086 613.817 691.317C622.099 673.01 616.702 647.089 610.623 628.38C638.527 671.548 657.832 723.921 647.587 776.239C640.517 812.343 617.377 840.258 591.594 865.108C584.851 871.607 575.207 878.4 568.975 884.679C632.076 874.506 686.681 829.945 723.507 779.456C755.38 735.758 779.704 673.179 784.031 618.979C785.573 598.184 784.684 577.28 781.381 556.691C772.726 503.474 747.063 455.692 712.759 414.75C707.139 408.043 697.914 395.837 691.356 390.705C702.765 421.477 713.227 458.119 698.427 489.555C690.144 507.147 677.202 520.156 659.036 527.156C632.409 537.416 609.923 529.741 600.728 501.615C592.291 475.809 595.37 448.499 600.644 422.328C603.301 409.71 605.833 397.472 607.814 384.914C618.423 317.691 602.653 266.255 560.661 213.497C546.692 195.947 531.984 179.888 515.269 164.595C512.542 162.1 506.9 156.471 504.043 154.774C515.074 243.618 465.456 302.54 410.792 364.693C372.854 407.827 342.135 463.453 343.599 522.21C343.917 535.933 345.592 561.557 349.22 574.891Z"/></svg>