<?xml version="1.0" encoding="utf-8" ?><svg xmlns="http://www.w3.org/2000/svg" xmlns:xlink="http://www.w3.org/1999/xlink" width="1024" height="1024" viewBox="0 0 1024 1024"><path d="M232.485 98.4339C239.228 97.9269 242.08 104.64 245.865 108.376C257.797 120.152 265.352 129.404 269.102 146.114C270.002 150.127 273.463 158.309 275.876 162.245C294.543 192.698 316.556 221.549 328.223 255.722C333.689 271.697 345.131 285.641 352.778 300.653C364.283 320.96 373.574 343.86 387.451 362.533C393.569 370.765 404.997 379.083 412.648 385.678C429.927 400.57 447.673 414.454 462.276 432.177C484.732 458.679 505.033 488.476 531.643 511.013C539.462 517.277 548.416 522.023 556.796 527.523C574.177 538.932 590.639 552.498 605.103 567.465C623.614 586.618 636.651 609.634 650.123 632.352C662.527 653.268 675.677 674.025 689.951 693.718C704.431 713.342 722.754 730.403 739.043 748.487C751.929 762.952 765.877 780.419 777.13 796.093C784.786 806.742 792.023 817.686 798.824 828.9C807.327 842.928 813.789 855.266 824.416 868.105C836.242 882.393 876.245 891.71 877.55 910.033C877.802 913.891 876.52 917.692 873.981 920.607C870.751 924.265 865.621 926.098 860.924 926.326C846.755 927.016 837.819 923.42 825.29 917.879C820.498 915.76 815.684 914.631 811.157 911.446C802.982 905.695 805.82 897.282 801.722 889.495C800.066 886.348 796.304 882.905 793.716 880.469C783.938 871.268 773.112 863.028 762.787 854.375C745.847 840.249 729.299 825.659 713.162 810.623C681.64 780.886 654.849 745.541 621.829 717.035C608.058 705.147 593.981 693.585 580.138 681.781C571.657 674.548 563.552 666.821 555.176 659.448C549.515 654.028 543.988 648.199 538.277 642.688C511.76 673.89 480.742 695.702 445.882 716.707C431.951 725.101 416.991 732.679 404.169 742.75C388.792 754.829 383.081 769.274 372.856 784.997C366.159 795.294 358.698 804.629 350.198 813.508C334.459 829.95 315.207 843.675 297.496 857.884C289.783 864.072 279.8 870.405 274.076 878.568C266.64 889.175 273.196 901.202 268.383 911.867C267.185 914.524 264.769 917.595 261.935 918.592C259.371 919.495 256.312 919.799 253.603 919.929C237.047 920.72 220.1 920.018 203.508 920.009C188.195 920.001 172.407 920.758 157.157 919.699C155.053 919.553 153.122 919.165 151.223 918.225C148.535 916.896 146.437 914.612 145.5 911.749C144.555 908.862 144.794 905.418 146.193 902.717C151.742 891.999 188.16 884.637 200.582 880.547C207.302 878.334 214.329 875.715 220.379 871.994C244.602 857.098 278.12 817.943 290.685 792.786L290.964 792.216C286.634 774.185 293.102 753.761 298.225 736.497C302.068 723.547 299.978 712.042 299.057 698.921L294.847 644.671C293.346 622.483 293.002 600.52 291.186 578.126C289.41 556.221 283.834 530.748 283.748 509.193C283.697 496.209 298.425 473.31 306.515 462.582C306.559 455.884 306.42 450.077 305.803 443.349C290.496 454.465 278.981 450.436 264.036 441.429C234.918 423.88 199.746 390.376 220.68 353.847C227.446 342.039 243.089 334.253 255.858 331.229C273.527 327.207 292.034 329.14 304.283 343.753C306.155 345.898 311.072 352.297 312.718 353.343C314.586 351.535 309.303 337.134 308.502 334.311C301.807 310.724 291.429 288.933 283.145 265.92C277.67 250.645 272.479 235.27 267.575 219.803C263.991 208.549 260.455 197.339 256.593 186.153C253.933 178.45 246.928 171.096 244.231 164.236C240.762 155.415 239.104 142.409 236.678 132.894C234.932 125.044 232.199 117.401 230.397 109.574C229.249 104.592 228.342 101.914 232.485 98.4339ZM435.732 616.878C430.587 622.173 425.811 627.918 420.863 633.419L388.75 669.588C375.485 684.696 360.337 700.692 349.043 717.191C315.499 766.19 289.48 821.584 245.764 862.839C231.387 876.407 218.141 884.293 199.303 889.84C190.54 892.42 156.39 900.366 153.134 907.066C153.359 913.895 167.04 912.039 172.096 912.046L196.604 912.069C214.744 912.08 238.228 912.778 255.878 912.06C256.95 912.012 258.021 911.949 259.092 911.871C264.45 901.212 260.379 892.584 263.67 881.58C264.423 879.204 265.63 875.669 267.118 873.678C274.372 863.974 285.583 857.555 294.732 849.769C319.659 828.556 347.604 809.593 365.346 781.4C374.573 766.735 382.066 749.789 395.799 738.561C408.875 728.333 425.574 719.55 439.767 710.856C463.628 696.24 488.339 680.472 508.689 661.211C515.593 655.042 521.931 648.036 528.057 641.104C531.2 637.547 533.346 633.938 537.68 631.688C540.793 631.963 552.663 645.371 555.982 648.495C586.827 677.81 621.922 703.152 651.706 733.605C676.286 758.738 698.669 784.717 724.34 809.027C750.671 833.962 779.672 855.073 805.399 880.429C811.594 886.534 812.033 895.046 814.349 902.648C818.581 906.928 822.62 907.313 827.764 909.592C841.688 915.761 846.965 917.967 862.364 918.508C864.995 916.951 867.857 915.631 868.646 912.381C869.139 910.351 868.585 908.411 867.443 906.71C863.7 901.136 834.639 887.032 826.326 881.136C822.448 878.386 819.045 875.139 815.972 871.518C807.964 862.081 802.213 850.795 795.847 840.231C787.957 826.971 779.496 814.058 770.489 801.529C754.919 779.852 740.554 762.796 722.47 743.198C711.212 730.998 696.993 716.561 687.101 703.836C674.103 687.116 660.988 666.626 650.13 648.319C635.045 622.885 620.384 596.721 600.307 574.696C588.516 561.761 575.396 551.772 561.585 541.201C558.236 538.637 553.561 535.462 550.506 532.997C546.498 541.062 542.534 549.021 537.146 556.291C517.459 582.854 485.235 601.324 454.336 611.674C448.23 613.735 442.021 615.472 435.732 616.878ZM223.761 383.559C225.428 398.547 244.621 417.931 256.718 426.251C271.454 436.388 290.872 452.367 304.201 431.249C307.583 425.608 307.868 420.677 307.817 414.308C307.791 411.084 307.443 406.516 310.68 404.734C312.409 404.633 312.29 404.597 313.756 405.516C318.489 412.212 315.305 426.462 312.62 433.786C313.952 440.688 315.124 457.376 314.557 464.209C332.497 471.636 354.3 473.36 363.038 451.959C365.104 446.897 364.812 441.353 362.416 436.421C353.804 419.592 333.659 407.786 325.359 390.206C320.025 389.736 314.687 389.127 310.986 384.738C302.197 374.315 314.51 362.764 294.976 346.374C292.26 351.13 291.15 353.184 286.946 356.838C291.465 362.008 310.668 381.026 303.384 387.331C296.753 389.514 291.175 373.889 282.723 369.785C270.879 364.035 269.084 355.915 253.606 355.479C249.729 361.231 245.902 367.096 242.097 372.893C237.051 380.582 232.007 381.725 223.761 383.559ZM336.296 572.107C335.096 589.355 335.778 606.625 335.623 623.878C335.57 629.789 335.971 639.194 335.464 644.84C336.355 649.551 334.822 661.141 334.495 666.263C333.537 681.282 331.627 696.119 329.901 711.058C329.028 718.622 329.136 725.585 328.599 733.091C335.375 723.474 341.251 713.174 348.465 703.903C368.977 677.541 392.329 653.321 414.265 628.156C418.64 623.137 424.962 616.645 428.188 611.08C424.142 582.192 409.207 563.618 381.083 553.644C373.436 550.932 365.163 549.886 357.45 547.421C351.18 545.418 345.492 541.774 339.431 539.21C337.401 547.337 337.19 562.703 336.296 572.107ZM306.389 477.962C292.594 499.453 289.084 506.919 293.638 531.827C297.163 551.115 298.581 572.736 300.736 592.327C302.092 606.802 301.18 621.271 302.281 635.701L306.248 688.484C307.853 709.978 311.327 728.964 302.703 748.948C301.502 751.73 301.524 757.249 300.646 760.303C299.563 764.34 297.286 772.477 298.2 776.745C299.473 775.345 298.821 774.345 299.157 774.016C300.95 772.26 302.949 772.699 305.039 770.703C310.084 762.761 315.919 752.162 320.94 744.914C319.592 721.468 321.908 708.217 324.371 685.148C325.761 672.954 326.762 660.719 327.371 648.461C328.408 630.115 325.633 544.195 333.084 532.054C334.16 531.592 334.559 531.436 335.522 530.768C334.704 526.151 310.724 484.31 306.389 477.962ZM222.618 374.597C232.808 373.06 234.457 370.44 239.42 361.796C242.057 357.404 246.872 348.186 252.006 347.227C258.99 345.923 272.861 350.191 277.005 356.118C278.819 355.122 286.691 344.047 288.711 341.475C281.743 338.403 276.544 337.058 268.768 337.713C247.015 339.255 224.572 350.628 222.618 374.597ZM241.147 116.761C246.077 128.568 246.518 144.953 250.556 157.33C252.721 163.967 258.043 169.601 260.589 175.472C271.729 201.161 279.121 230.034 288.505 256.375C291.869 265.891 295.376 275.357 299.023 284.768C303.319 295.558 306.371 301.784 310.126 313.134C314.131 325.354 317.985 337.623 321.686 349.938C325.425 362.696 328.925 380.31 335.944 391.191C348.806 411.131 381.87 428.606 370.095 456.914C366.61 465.293 359.092 472.08 350.677 475.449C335.488 481.529 325.113 474.447 312.7 472.888C319.102 482.584 325.034 494.247 331.212 504.278C336.135 512.272 342.346 527.611 348.775 533.932C355.163 540.213 371.16 541.882 380.052 544.353C410.028 552.685 432.958 576.22 435.699 607.982C447.235 605.796 457.623 601.888 468.435 597.476C498.845 583.338 530.917 562.064 542.528 528.939C532.049 522.129 519.678 513.196 511.342 504.003C475.434 464.401 446.857 420.774 402.981 388.841C395.636 383.496 378.31 366.028 374.069 358.531C357.336 328.958 343.158 297.917 324.867 269.042C321.833 264.252 319.843 254.278 317.129 248.969C304.491 218.615 283.599 192.465 267.305 164.197C256.843 146.046 260.757 130.604 241.147 116.761Z"/></svg>