<?xml version="1.0" encoding="utf-8" ?><svg xmlns="http://www.w3.org/2000/svg" xmlns:xlink="http://www.w3.org/1999/xlink" width="1024" height="1024" viewBox="0 0 1024 1024"><path d="M322.952 87.202C329.562 86.1772 338.379 86.8374 344.754 88.8475C350.671 90.7129 361.16 95.7953 363.936 101.666C364.436 102.724 364.637 103.966 364.1 105.059C362.452 108.416 345.171 111.374 340.842 112.633C344.573 122.142 347.835 132.062 351.467 141.662C357.156 156.395 363.122 171.02 369.36 185.53C378.48 206.884 388.441 228.045 404.726 245.02C411.434 252.013 419.125 258.218 425.229 265.771C426.312 266.863 426.386 267.704 426.112 269.251C424.847 276.415 415.365 279.322 410.086 283.506L409.519 283.96C427.003 318.825 443.827 354.14 459.344 390.067C463.529 399.757 474.332 419.347 476.002 429.872C476.264 431.521 473.699 433.937 472.244 435.02C479.985 453.092 488.912 471.027 496.971 488.981C499.541 494.708 502.476 500.783 505.488 506.272C517.562 482.086 531.059 458.455 543.176 434.281C542.015 432.147 540.116 429.241 541.003 426.735C542.608 422.204 545.153 417.876 547.389 413.637L558.607 392.3L594.638 322.468L607.547 297.832C610.038 293.103 613.229 287.551 615.238 282.685C610.415 279.664 602.308 276.138 600.215 271.038C599.467 269.213 599.638 265.779 600.899 264.383C608.22 255.854 618.383 250.137 626.469 242.459C650.299 219.832 663.825 185.874 677.671 156.603C684.514 142.138 689.486 127.329 696.432 113.141C689.736 110.444 683.581 108.715 676.828 106.35C674.944 105.69 674.113 104.79 673.384 102.965C673.394 93.1436 695.369 88.6964 703.132 88.4835C728.171 87.7971 753.075 100.355 771.664 116.409C775.957 120.115 781.664 126.194 784.953 131.11C788.928 140.413 793.315 144.122 799.758 151.623C810.083 163.989 818.645 179.197 819.002 195.689C819.616 224.06 798.492 244.36 776.213 258.07C747.848 275.525 718.347 279.365 685.891 280.722C683.82 288.437 682.079 296.145 680.186 303.88C677.519 314.786 662.967 307.028 656.361 304.433C644.067 326.389 633.163 347.674 621.445 369.714L598.962 411.058C594.906 418.565 581.523 445.198 576.839 449.954C574.853 450.025 572.847 449.884 570.89 449.548C568.787 450.737 561.934 465.529 560.146 468.931L536.491 514.195C533.28 520.483 525.602 536.706 521.968 541.803C528.249 558.304 536.826 573.691 543.987 589.755C564 634.65 585.638 678.765 605.646 723.663C608.452 729.96 611.621 736.451 613.839 742.955L618.144 744.991C621.051 749.523 624.911 758.009 627.361 763.089C632.255 773.162 637.086 783.264 641.856 793.395C648.066 806.472 656.349 821.251 661.927 834.279C674.299 833.18 690.087 834.911 684.832 851.707C681.537 859.421 678.965 862.063 672.933 867.8C676.304 878.985 695.101 920.68 694.123 928.425C693.835 930.707 692.674 932.919 690.761 934.252C688.941 935.52 686.591 935.778 684.461 935.302C682.573 934.88 681.276 933.747 680.046 932.314C674.696 926.086 670.627 918.076 666.356 911.05C660.093 900.746 653.659 890.442 647.191 880.271C638.862 880.711 625.454 880.874 619.61 874.253C612.561 866.265 621.931 856.053 627.884 850.682C625.783 844.836 622.987 839.16 620.353 833.538C609.238 809.81 598.05 786.131 586.532 762.596C585.226 759.929 586.272 755.283 584.7 752.512C580.421 743.032 575.766 733.477 571.403 724.065L542.077 660.612L520.974 615.358C515.413 603.329 510.059 590.837 503.488 579.33C497.633 587.598 486.889 611.135 481.405 621.457C458.058 665.397 436.431 710.45 413.875 754.79C414.159 765.289 411.782 766.475 407.074 775.709C397.032 795.408 388.031 815.642 377.823 835.283C375.144 840.438 371.802 846.71 369.825 852.109C390.573 871.88 376.094 884.922 352.764 880.011C346.844 888.133 319.308 932.123 314.008 935.063C311.945 936.208 309.46 936.387 307.22 935.682C305.285 935.072 303.394 934.307 302.475 932.385C301.501 930.351 301.491 927.64 301.977 925.479C303.183 920.117 305.938 914.61 308.013 909.491C313.739 895.37 320.222 881.506 325.639 867.272C317.698 861.158 305.183 847.945 315.376 837.402C319.845 832.78 329.981 833.944 336.018 834.606C339.418 828.816 343.479 819.671 346.597 813.412L369.718 766.754C372.915 760.394 376.103 753.946 379.431 747.666C380.557 745.541 383.197 745.147 384.811 741.901C405.406 700.478 426.584 659.348 447.3 617.985C460.1 592.429 474.514 567.211 486.964 541.516C483.246 535.255 478.52 523.334 475.57 518.098C470.275 508.702 447.038 451.429 443.138 449.216C440.682 449.075 440.273 448.892 437.976 447.92L437.378 447.661C433.904 442.404 430.855 435.052 428.187 429.197L415.859 402.165C408.944 387.048 401.36 371.694 394.156 356.656C386.001 339.631 377.225 319.682 368.199 303.233C358.332 305.9 343.217 313.666 343.441 296.882C343.512 291.537 343.341 286.172 342.894 280.844C332.277 278.439 322.451 276.215 312.022 273.041C297.326 268.57 284.775 261.809 270.953 255.717C253.105 248.39 236.003 242.006 220.263 230.471C186.432 205.675 215.01 170.192 234.157 146.656C237.195 142.923 242.655 139.565 245.578 135.733C248.576 131.804 249.901 125.582 253.597 121.786C270.231 102.347 298.189 89.9738 322.952 87.202ZM627.366 252.589C632.021 256.366 646.257 263.022 652.191 265.871C660.322 269.775 667.798 273.779 675.8 277.916L676.988 277.924C677.936 276.034 680.551 265.115 681.364 262.189C683.26 255.568 685.487 249.047 688.037 242.65C700.152 212.516 721.893 180.321 741.894 154.813C745.102 150.722 748.998 145.006 752.286 141.312C740.039 133.501 717.702 121.725 704.666 116.157C700.17 124.013 695.832 136.627 691.874 145.174C676.635 178.084 656.871 230.175 627.366 252.589ZM282.725 137.272C303.457 162.841 329.001 206.81 340.629 237.786C344.346 247.759 347.176 258.04 349.086 268.51C349.332 269.901 349.881 274.886 350.627 275.417C370.636 269.076 381.75 261.468 399.789 252.815C396.648 247.756 392.166 243.461 388.483 238.772C376.554 223.585 368.559 206.019 361.066 188.343C354.498 173.079 348.33 157.646 342.566 142.061C340.29 136.058 335.587 122.522 333.139 115.84C332.854 115.717 332.568 115.593 332.282 115.469C320.273 119.662 293.468 130.914 282.725 137.272ZM264.855 146.332C257.875 164.751 254.637 186.784 255.434 206.471C256.741 238.788 281.259 249.671 307.497 259.601C313.529 261.864 319.648 263.887 325.841 265.665C330.832 266.805 335.97 268.05 340.974 269.063C336.896 236.844 298.057 169.57 275.108 141.413C274.907 141.287 274.706 141.161 274.505 141.034C270.658 142.852 268.485 144.082 264.855 146.332ZM392.65 745.758L405.548 751.41C407.364 748.384 409.93 742.343 411.623 738.891C415.843 730.311 420.121 721.759 424.456 713.236L479.748 604.263L533.15 501.313L552.948 463.839C555.069 459.76 560.265 450.262 561.733 446.305C558.06 443.98 554.395 441.593 550.591 439.493C539.539 458.173 528.26 481.491 518.369 500.818L476.726 581.157C455.427 621.695 434.636 662.497 414.357 703.555C408.47 715.311 402.647 727.078 396.303 738.596C395.009 740.947 393.762 743.314 392.65 745.758ZM549.385 428.846C551.589 430.524 570.305 441.745 571.818 441.6C572.472 440.781 572.94 440.204 573.547 439.349C580.97 427.098 588.627 412.407 595.365 399.698L619.714 353.842C628.593 336.99 640.371 317.591 647.984 300.389C640.618 296.13 629.258 291.611 622.696 287.215C598.65 334.578 573.1 381.313 549.385 428.846ZM688.607 269.522C691.867 269.405 694.135 269.19 697.377 268.782C716.066 267.356 728.607 265.097 746.452 259.128C749.981 251.357 753.85 245.74 755.781 237.18C757.945 227.585 757.648 219.04 756.636 209.342C754.162 185.612 755.806 171.947 766.513 150.804C764.708 149.536 762.687 148.034 760.796 146.953C755.179 151.714 746.409 163.2 741.859 169.286C720.316 198.1 696.934 234.332 688.607 269.522ZM376.508 299.683C390.08 328.794 404.874 358.142 418.521 387.383L432.97 418.288C435.871 424.657 439.644 434.237 443.043 439.95C447.846 438.345 462.099 431.738 466.699 429.092C463.332 416.837 453.596 397.773 448.083 385.605C433.498 353.26 418.523 321.092 403.16 289.109C402.479 288.991 402.316 288.892 401.65 288.96C393.342 292.703 384.96 296.278 376.508 299.683ZM508.658 568.272C512.682 577.43 517.28 586.06 521.416 595.157L569.908 699.801C574.18 708.803 578.391 717.835 582.541 726.894C585.319 732.988 591.422 746.425 595.043 751.62C596.466 751.339 596.01 751.46 597.327 750.75L605.921 746.142C600.062 730.928 589.852 710.32 582.879 695.158L537.351 596.747C535.629 593.022 517.701 553.268 516.853 552.401C513.945 557.39 510.866 562.941 508.658 568.272ZM675.818 288.215C670.266 285.154 622.376 260.148 619.889 259.944C616.734 262.055 611.267 265.484 608.604 267.902C627.712 280.363 645.624 289.064 666.404 298.496C668.175 299.19 669.985 299.926 671.762 300.588C673.179 296.485 674.531 292.36 675.818 288.215ZM611.611 752.173C605.904 754.854 601.667 757.928 595.591 760.525C601.361 771.377 632.339 840.803 636.409 844.471L636.796 844.582C642.522 841.682 647.562 839.534 653.242 836.847C650.714 830.235 643.409 816.762 639.915 809.747C632.419 794.665 625.111 779.492 617.992 764.229C616.824 761.758 613.344 753.546 611.611 752.173ZM352 285.496C351.941 289.625 351.782 294.111 352.024 298.204L360.535 295.868C381.909 289.304 397.811 280.498 416.286 268.385C414.507 265.66 409 260.072 406.155 259.281C396.231 264.849 386.491 270.488 376.132 275.221C368.165 278.86 359.853 281.694 352 285.496ZM490.584 529.536L491.781 531.667C493.357 531.226 498.989 518.467 500.012 516.127C490.804 495.717 481.355 475.416 471.667 455.23C470.331 452.403 465.726 441.472 464.497 440.167L464.255 440.157C461.951 441.238 454.236 445.043 452.332 445.631C454.321 451.329 457.467 457.84 460.157 463.302C468.882 481.019 476.408 499.205 484.67 517.125C486.428 520.939 488.479 526.044 490.584 529.536ZM626.516 867.225C628.178 868.714 629.417 869.876 631.262 871.161C633.391 871.335 635.645 871.567 637.77 871.591C642.71 871.081 646.888 870.415 651.511 868.633C658.711 865.856 666.295 863.075 671.075 856.638C673.138 853.862 679.485 846.487 674.811 843.512C673.401 842.698 669.462 842.409 667.808 842.671C655.553 844.387 636.447 853.717 628.782 863.702C627.921 864.805 627.162 865.984 626.516 867.225ZM323.703 843.092C318.615 845.568 323.304 851.781 325.861 854.654C336.147 866.212 352.867 874.098 368.38 871.825L370.107 871.245C370.739 869.959 371.398 868.85 370.68 867.406C366.256 858.513 351.679 850.652 343.002 846.986C336.031 844.041 330.771 842.864 323.703 843.092ZM787.651 234.844C789.96 232.606 792.61 230.146 794.799 227.841C803.201 217.618 809.075 206.476 807.811 192.82C806.967 183.699 800.372 167.015 792.729 161.784L792.799 162.462C793.452 168.248 795.296 174.256 796.057 180.41C798.56 200.636 795.345 216.426 787.651 234.844ZM781.281 152.317C783.021 123.21 731.633 97.9157 707.345 96.6171C706.062 96.5377 704.775 96.5679 703.497 96.7075C695.447 97.3439 695.266 97.6433 688.134 100.74C721.461 112.749 745.497 124.117 774.182 145.971C776.742 148.069 779.061 149.851 781.281 152.317ZM665.071 873.341C662.031 874.356 658.91 875.304 656.014 876.662C661.718 887.063 673.005 906.604 679.848 915.516C681.242 917.556 682.583 919.615 684.149 921.523C682.358 916.754 665.979 873.862 665.071 873.341ZM228.31 169.904C222.434 179.074 212.796 195.425 215.199 206.861C217.209 216.426 227.33 222.826 235.064 227.567L242.297 231.841C233.288 218.095 226.56 207.575 225.884 190.406C225.749 186.98 225.562 184.504 226.108 181.069C226.457 178.868 228.571 171.488 228.31 169.904ZM342.588 877.152C339.722 875.558 336.769 873.967 333.98 872.252C327.083 888.478 319.403 904.809 313.49 921.364L318.126 915.383C327.325 901.684 334.431 891.582 342.588 877.152ZM247.212 149.452C234.571 173.996 231.352 191.979 245.554 216.322L246.365 217.693L246.705 217.358C243.979 199.245 244.806 180.773 249.141 162.976C249.76 160.444 252.334 153.008 251.118 151.481L250.666 150.914C248.871 150.603 248.675 150.534 247.212 149.452ZM361.998 845.699C365.58 840.545 369.191 832.153 372.118 826.355C380.042 810.66 387.148 794.386 395.326 778.808C398.203 773.328 401.993 765.014 405.258 760.02C399.375 756.833 393.345 754.369 387.103 751.989C377.408 774.491 365.76 795.44 355.226 817.504C351.948 824.369 348.759 830.934 345.208 837.673C351.473 840.693 355.682 843.175 361.623 846.339C362.024 845.749 361.981 845.918 361.998 845.699ZM323.842 96.2091C305.022 98.0321 274.05 110.524 262.093 125.757C258.196 130.721 256.216 134.364 254.101 140.247C260.842 136.497 267.113 134.196 273.803 130.894C293.101 122.022 331.867 102.928 351.83 101.178C340.092 97.0092 336.382 95.1163 323.842 96.2091ZM767.66 246.887C786.616 222.246 790.389 194.34 781.609 164.773C779.41 162.791 775.868 159.4 773.635 157.697C765.256 177.27 764.608 190.777 767.302 211.623C769.069 225.302 766.426 239.628 761.586 252.514C763.548 250.7 765.764 248.734 767.66 246.887Z"/></svg>