<?xml version="1.0" encoding="utf-8" ?><svg xmlns="http://www.w3.org/2000/svg" xmlns:xlink="http://www.w3.org/1999/xlink" width="1024" height="1024" viewBox="0 0 1024 1024"><path transform="scale(2 2)" d="M117.114 96.2502C138.64 96.1032 134.69 98.534 134.676 117.901L134.686 150.74C142.665 150.551 151.361 150.732 159.411 150.74C162.338 141.201 174.104 141.206 177.682 150.74L214.565 150.74C220.425 150.739 227.246 150.542 233.009 150.74C241.053 137.017 257.867 129.68 271.192 140.982C274.532 143.815 276.368 146.994 278.75 150.74C296.418 150.744 314.909 150.45 332.502 150.74C337.096 140.435 345.815 142.611 351.429 150.74C359.464 150.436 369.554 150.736 377.757 150.74L377.751 119.737C377.736 103.412 373.835 95.9728 393.039 96.1795C402.769 96.2842 403.006 101.555 402.998 109.132C407.702 109.295 412.303 108.58 416.959 109.616C420.273 110.354 421.37 116.257 421.907 116.336C428.427 117.299 439.413 113.373 439.974 123.604C440.442 132.14 439.861 140.696 440.123 149.249C455.331 149.125 452.449 167.065 440.123 165.751L440.172 178.432C440.354 196.045 438.115 194.384 421.757 194.272C419.605 203.389 410.497 201.027 402.998 201.009C402.106 213.522 402.691 214.046 390.428 214.621C374.461 215.369 377.728 206.777 377.73 194.169L377.757 165.751C369.025 165.763 360.144 165.636 351.429 165.751C349.645 171.769 338.272 196.535 334.085 202.773C326.319 214.344 316.944 224.342 307.264 234.287C296.603 245.24 298.615 245.165 297.001 260.081L292.735 301.258C291.18 315.371 295.184 326.834 296.899 340.715C297.466 343.2 297.963 347.199 298.457 349.9L302.679 373.381C304.056 381.201 305.674 388.977 306.672 396.901C309.27 417.532 284.916 422.311 278.116 403.645C275.507 396.482 273.906 388.49 271.77 381.112L260.685 342.253C259.726 338.798 256.868 330.244 256.76 327.142C253.188 334.885 251.971 343.615 249.286 351.556C243.112 369.492 238.332 387.941 232.619 406.02C228.531 418.954 208.797 418.519 205.312 405.953C203.798 400.495 206.849 387.452 207.837 381.68L218.251 317.522C219.292 310.776 219.08 306.764 218.465 299.931L214.601 257.193C213.141 240.916 214.791 245.496 203.928 233.778C188.526 217.165 176.285 201.677 167.422 180.617C165.339 175.668 163.497 170.613 161.3 165.751L145.355 165.74C141.724 165.705 138.317 165.488 134.686 165.751L134.699 193.924C134.699 206.263 137.951 214.835 123.051 214.738C111.584 214.663 109.826 213.799 110.256 202.123C103.646 202.352 90.4015 204.484 91.2192 194.272C76.3694 195.315 72.1648 198.071 72.2017 180.153L72.2411 166.561C60.3421 167.001 59.7997 154.829 64.7759 150.513C66.7847 148.771 69.7985 149.143 72.2411 149.249L72.2141 130.937C72.2012 115.796 71.3319 114.406 87.7772 115.359C95.4216 115.801 85.5577 106.707 110.256 109.132C110.162 102.458 109.26 97.9306 117.114 96.2502ZM163.75 150.74C163.309 175.026 189.842 212.226 205.546 228.517C207.784 230.837 215.959 238.439 217.101 240.871C218.709 244.295 223.875 304.168 223.774 310.627C223.669 317.262 221.737 325.524 220.678 332.282L212.603 381.61C211.705 387.003 209.408 397.972 209.66 403.018C210.074 411.308 221.038 413.075 226.304 407.722C229.151 404.828 232.877 389.013 234.284 384.267L245.374 347.41C246.651 343.11 250.947 327.439 253.024 322.829C253.327 322.157 258.443 321.757 259.952 322.891C260.994 324.846 262.458 330.819 263.102 333.166L267.154 347.74C271.922 365.035 277.256 382.193 281.658 399.596C285.215 413.658 306.626 418.117 300.801 390.596L288.768 320.499C286.774 309 287.602 304.164 288.878 292.425L292.201 262.307C294.217 243.605 290.902 245.018 302.753 232.536C325.038 209.064 328.801 203.791 342.143 175.468C345.736 167.839 349.85 158.31 345.285 149.822C342.075 147.781 340.637 148.095 337.739 150.74L337.588 151.103C335.973 155.041 337.305 158.548 335.264 162.35C331.285 169.76 325.656 175.571 320.325 181.82L304.834 200.172C302.466 202.93 297.491 209.289 295.216 211.388C285.238 207.955 285.337 207.708 274.695 207.631L240.173 207.625C227.804 207.635 227.824 208.206 217.004 211.388C208.339 201.761 181.214 171.789 175.79 160.523C172.921 154.563 175.914 147.891 166.492 148.272C164.955 149.136 164.719 149.304 163.75 150.74ZM421.757 189.751C425.758 189.771 431.661 189.975 435.497 189.751C435.742 186.731 435.51 183.258 435.499 180.164L435.499 139.218C435.503 134.804 436.107 124.715 434.122 121.197C430.014 121.202 425.861 121.239 421.757 121.197L421.779 170.918C421.748 176.216 422.093 184.878 421.757 189.751ZM127.746 209.983C131.602 209.27 130.121 201.552 130.121 197.555L130.116 127.238C130.116 119.049 129.782 108.721 130.112 100.748C125.792 100.683 121.437 100.729 117.114 100.748C112.428 101.936 114.694 121.213 114.715 125.966L114.713 195.389C114.712 199.949 114.543 205.536 114.722 209.983C118.878 210.228 123.512 209.976 127.746 209.983ZM386.221 100.748C383.069 101.254 382.331 101.265 382.299 104.875L382.325 182.944C382.328 191.452 382.642 201.71 382.322 209.983L394.812 209.983L398.242 209.983C397.902 197.799 399.045 104.114 397.762 101.961C395.656 100.707 389.063 100.955 386.221 100.748ZM180.96 161.118C185.249 161.301 190.464 161.127 194.836 161.122L221.223 161.104C224.75 161.102 229.571 160.947 233.009 161.118C233.276 159.695 233.069 156.825 233.009 155.253L178.827 155.253C179.38 157.764 179.619 158.843 180.96 161.118ZM184.761 165.751C186.13 167.696 187.344 169.308 188.921 171.104L207.19 193.11C209.947 196.423 215.149 202.929 218.123 205.887C227.937 202.753 230.182 202.995 240.488 202.991L275.312 202.984C284.544 202.973 285.449 202.753 294.13 205.887C301.039 196.567 323.416 174.04 327.232 165.807L327.069 165.751C311.141 165.969 294.708 165.75 278.75 165.751C278.798 176.968 280.101 185.614 271.446 194.223C262.673 202.948 247.847 201.902 239.38 193.351C231.459 185.353 232.971 176.016 233.009 165.751L184.761 165.751ZM256.76 140.36C233.121 141.418 237.825 160.604 237.693 177.704C237.609 188.479 245.633 194.369 255.369 196.058C276.887 193.881 274.029 176.897 274.013 160.345C274.002 148.452 270.118 141.727 256.76 140.36ZM278.75 155.253L278.75 161.118L327.069 161.118L330.816 161.118C331.802 158.973 332.092 157.592 332.502 155.253C327.062 155.408 321.504 155.252 316.039 155.249L284.164 155.253C282.349 155.269 280.564 155.273 278.75 155.253ZM351.429 155.253L351.429 161.118L361.148 161.118L377.757 161.118L377.757 155.253C374.528 155.383 371.465 155.372 368.234 155.253L357.811 155.293C356.308 155.311 352.769 155.465 351.429 155.253ZM69.9613 161.976C70.7179 161.994 71.8006 162.163 72.308 161.811C72.255 158.515 73.5591 153 69.9613 154.022C65.205 154.117 66.1326 161.001 69.4673 161.846L69.9613 161.976ZM440.123 154.022C440.044 156.546 440 158.575 440.123 161.118L444.923 161.118C445.724 157.611 446.455 153.747 441.586 153.959L440.123 154.022ZM79.0556 119.829C75.3253 120.36 76.7403 123.458 76.7381 127.259C76.7273 146.682 76.7181 166.105 76.7599 185.528C76.7756 192.84 81.9822 190.303 89.5625 190.248C92.9047 190.198 91.2234 168.901 91.2239 164.896L91.2192 119.829C87.4852 119.816 82.7041 119.661 79.0556 119.829ZM159.411 155.253L134.686 155.253C134.567 157.471 134.575 158.898 134.686 161.118C143.083 161.107 151.596 161.023 159.983 161.118C159.94 159.263 159.633 157.123 159.411 155.253ZM402.998 113.966L402.998 196.75C405.194 196.764 415.181 197.263 416.264 196.058C418.038 191.739 417.049 186.41 417.028 181.797L417.02 131.644C417.02 112.166 420.281 113.877 402.998 113.966ZM97.0403 113.268C96.6324 113.435 95.9346 113.643 95.9239 114.29C95.4908 140.606 95.857 167.053 95.7487 193.394C95.7208 200.189 102.323 197.558 109.312 197.506L109.963 197.423C110.477 196.452 110.256 172.786 110.256 169.497L110.256 113.268C106.329 113.195 100.935 113.09 97.0403 113.268Z"/></svg>