<?xml version="1.0" encoding="utf-8" ?><svg xmlns="http://www.w3.org/2000/svg" xmlns:xlink="http://www.w3.org/1999/xlink" width="1024" height="1024" viewBox="0 0 1024 1024"><path fill="currentColor" transform="scale(2 2)" d="M249.527 62.9542C355.824 59.4305 444.877 142.692 448.497 248.986C452.118 355.28 368.938 444.409 262.647 448.127C156.219 451.85 66.9501 368.538 63.3245 262.107C59.699 155.676 143.092 66.4825 249.527 62.9542ZM156.375 260.453C180.715 288.431 179.227 304.761 186.699 336.917C196.54 379.265 224.769 416.074 259.748 441.249C290.557 441.438 334.466 428.631 360.143 410.001C381.803 395.427 399.84 377.199 413.877 355.202C415.105 353.277 416.383 350.762 417.746 349.017C414.482 350.067 410.289 350.752 406.87 351.526C324.165 370.256 232.499 293.6 187.647 231.991C178.121 239.891 164.119 250.759 156.375 260.453ZM192.606 227.878C195.386 233.563 214.143 255.992 219.032 261.06C263.648 307.314 337.293 361.281 405.435 345.801C408.765 345.131 421.042 342.905 422.394 340.408C436.027 315.233 442.839 282.289 442.753 254.606C415.8 239.076 376.24 232.795 345.518 235.656C300.481 239.85 267.017 245.386 235.791 204.134C235.369 203.577 232.825 200.123 232.573 200.048C222.497 205.539 201.302 220.239 192.606 227.878ZM297.428 159.862C320.03 149.976 349.468 142.453 373.448 137.361C380.279 135.911 389.05 133.662 395.921 133.127C375.649 108.1 342.797 87.2615 312.299 77.4981C309.798 76.6974 298.568 73.1924 296.173 72.9349C280.402 83.8418 264.315 98.9811 252.569 113.902C243.325 125.645 231.647 135.673 229.234 151.551C227.196 163.888 229.757 179.823 235.182 191.299C250.886 181.085 279.014 165.904 297.428 159.862ZM94.1186 349.017C96.4532 342.641 97.7524 338.115 100.493 331.751C111.708 305.373 128.331 281.009 148.341 260.453C137.117 250.813 115.268 234.171 99.4368 237.603C88.4755 238.725 74.3917 246.723 68.8888 256.626C68.8247 292.042 77.7369 318.214 94.1186 349.017ZM68.8888 245.655C86.3621 234.172 94.6447 226.912 118.062 234.278C130.1 238.31 143.905 247.184 152.462 256.626C157.936 247.629 176.221 234.205 184.345 226.395C165.032 199.227 150.207 157.4 145.196 124.917C144.91 123.063 143.325 108.771 142.993 108.254C105.612 134.575 79.2332 182.393 71.5434 226.6C70.4639 232.806 70.0256 239.98 68.8888 245.655ZM98.5196 356.115C116.43 390.904 166.527 423.471 202.564 434.152C216.784 438.378 234.911 441.447 249.743 441.249C216.9 412.412 194.879 389.469 182.476 345.222C173.972 314.884 176.72 291.187 152.462 264.989C127.394 292.224 108.584 320.015 98.5196 356.115ZM252.199 68.4989C215.514 70.9216 186.527 78.4811 154.795 99.0143C152.776 100.321 151.072 101.442 149.239 103.047C149.206 139.609 168.799 193.737 189.242 222.606L191.416 221.042C204.587 210.961 216.761 203.242 230.171 194.088C218.844 173.836 219.537 142.708 234.871 125.228C252.336 105.318 261.593 91.5299 283.485 75.2708C284.107 74.8167 288.218 71.8497 288.042 71.2647L287.821 71.2581C276.326 70.8428 264.796 66.9872 252.199 68.4989ZM399.653 138.847C345.141 146.986 291.741 164.765 244.212 192.794C242.268 193.941 240.101 195.039 238.347 196.455C251.261 219.898 275.197 229.962 300.314 233.005C318.182 233.257 331.687 230.501 349.001 229.287C378.302 227.233 416.401 233.212 442.753 247.286C442.407 210.829 423.87 166.646 401.168 139.172C400.715 138.623 400.281 138.806 399.653 138.847Z"/></svg>