<?xml version="1.0" encoding="utf-8" ?><svg xmlns="http://www.w3.org/2000/svg" xmlns:xlink="http://www.w3.org/1999/xlink" width="1024" height="1024" viewBox="0 0 1024 1024"><path fill="currentColor" d="M607.297 148.658C630.636 145.465 643.625 168.846 653.646 185.822C666.001 206.752 683.966 230.636 681.101 256.012C689.93 265.672 696.893 281.396 686.426 292.624C674.329 305.599 654.827 296.517 640.538 293.501C637.754 292.913 633.379 293.344 630.485 293.517C620.799 304.707 614.543 305.937 600.372 303.593C590.131 313.848 577.341 315.702 564.882 307.56C554.335 300.668 548.478 289.031 546.099 276.893C534.874 277.863 527.62 277.847 516.55 276.407C498.708 287.801 488.731 284.863 469.578 278.76C445.304 304.418 440.034 330.734 437.366 364.341C434.913 393.851 433.158 423.322 434.868 452.93C436.527 481.661 435.24 509.822 433.32 538.471C453.186 535.303 459.991 531.541 471.652 515.742C480.242 504.102 497.663 492.281 511.381 487.612C529.303 481.512 550.68 483.332 568.896 487.812C587.041 492.422 597.504 495.284 616.053 489.049C640.306 480.898 659.05 464.819 681.292 452.993C719.295 432.787 767.389 430.349 808.226 442.985C818.176 446.462 828.374 450.27 837.846 454.875C840.383 456.108 842.361 459.657 841.169 462.478C836.818 465.881 828.407 461.18 823.732 459.006C795.826 446.029 767.75 442.264 737.222 445.213C703.803 448.441 680.993 463.358 653.534 480.499C641.208 488.194 624.771 496.508 610.674 499.524C577.565 506.607 546.799 483.613 513.53 496.046C495.152 502.914 484.657 513.609 472.292 528.35C469.886 531.217 464.662 537.599 461.748 539.144C453.06 543.749 440.175 546.064 430.546 547.958C414.549 574.411 387.136 595.338 356.175 599.99C369.793 593.34 383.882 585.602 395.551 575.874C405.593 567.503 416.845 556.91 421.75 544.479C431.217 520.483 426.229 461.284 425.94 433.721C425.713 412.113 426.128 390.135 428.019 368.601C420.275 394.717 403.606 421.556 386.874 442.79C394.951 426.39 404.637 406.373 411.072 389.639C417.884 371.924 423.767 352.75 430.292 334.853C435.244 321.269 439.262 307.399 446.594 294.723C450.71 287.608 456.475 280.635 461.713 274.304C450.855 266.8 445.354 260.445 439.314 248.94C457.858 263.769 481.538 280.456 506.261 272.931C500.117 270.561 495.39 266.333 490.655 261.91C506.471 266.566 526.792 271.067 543.105 267.773C549.229 266.536 557.201 258.172 562.61 260.816C565.904 265.419 557.222 271.54 553.832 274.019C554.267 276.002 554.785 277.965 555.386 279.903C558.183 288.976 564.061 297.71 572.748 302.029C576.893 304.089 581.659 305.028 586.094 303.335C590.123 301.797 592.55 298.582 593.731 294.519C597.249 282.416 591.128 256.588 588.768 243.7C588.187 240.526 586.325 233.778 587.895 230.893C588.436 229.899 589.629 229.377 590.709 229.226C591.926 229.056 592.985 229.32 593.865 230.212C597.971 234.373 602.336 271.767 602.866 279.089C603.281 284.825 603.092 290.615 603.005 296.362C649.033 298.582 614.27 233.576 609.641 212.978C609.321 211.554 610.238 209.754 611.235 208.725C616.468 206.73 619.342 215.154 620.714 218.996C628.3 240.245 638.421 261.814 634.015 284.879C635.776 284.601 640.709 283.897 642.134 283.319C676.131 269.513 639.861 222.371 631.757 202.176C630.718 199.586 627.965 193.458 631.516 192.113C633.202 192.324 634.308 192.788 635.659 193.843C642.411 199.119 658.716 235.153 661.816 244.032C663.351 248.43 664.232 252.789 664.851 257.396C665.104 259.505 664.841 261.598 666.829 262.493C668.71 261.718 669.514 260.277 670.383 258.486C674.212 250.59 672.529 244.154 669.834 236.305C663.526 217.934 636.169 166.151 619.53 158.558C608.447 153.501 594.3 161.718 583.496 164.377C570.639 167.542 557.235 169.113 544.244 171.771C531.036 174.473 518.012 178.347 504.707 180.528C491.135 182.753 477.79 181.157 464.499 185.985C446.896 192.378 430.896 206.56 419.522 221.133C409.589 233.86 402.688 248.534 395.2 262.754C387.39 277.499 379.442 292.17 371.359 306.767C357.133 332.256 340.95 358.109 326.346 383.856C308.404 415.893 291.677 448.595 276.202 481.894C271.879 491.152 268.343 500.758 265.631 510.609C261.116 526.823 241.198 619.258 245.48 630.12C252.794 648.668 285.972 668.269 303.825 675.749C335.841 689.163 369.606 689.236 403.359 694.29C425.463 697.6 447.137 703.059 469.314 706.051C521.961 713.154 572.385 708.133 621.864 688.353C642.844 679.965 663.02 669.754 683.941 661.227C683.933 656.749 680.077 618.761 691.659 629.815C692.275 633.527 692.234 640.266 692.358 644.386C692.59 651.968 692.928 659.548 693.371 667.121C694.963 692.527 700.236 716.612 707.934 740.847C712.863 756.48 718.572 771.856 725.041 786.917C730.543 799.816 736.958 811.76 742.501 824.379C750.38 842.36 755.392 861.464 757.355 880.997C757.903 885.955 761.784 904.776 752.545 902.255C751.087 900.941 749.948 899.023 749.825 897.07C748.84 881.322 747.695 867.486 743.253 852.22C737.255 831.607 726.736 813.03 718.013 793.475C700.591 754.42 688.529 713.805 684.539 671.14C673.552 675.138 661.458 681.288 650.609 686.106C620.672 699.401 587.721 711.121 555.087 715.388C526.144 719.114 496.829 718.9 467.943 714.751C435.339 710.167 403.215 701.969 370.291 699.14C352.752 697.633 336.025 695.922 319.12 690.79C298.564 684.504 279.274 674.653 262.129 661.687C253.908 655.365 236.633 640.527 236.389 630.056C236.078 616.706 240.055 592.559 242.486 579.109C247.174 553.161 252.503 522.594 260.369 497.754C264.613 484.35 275.23 463.47 281.553 450.409C289.592 433.665 298.022 417.112 306.836 400.763C325.674 366.367 346.341 332.792 365.789 298.76C373.916 284.313 381.801 269.731 389.442 255.022C396.938 240.798 403.534 227.27 413.559 214.46C425.989 198.577 442.379 185.699 460.986 177.782C476.078 171.36 492.239 174.327 508.048 170.841C520.057 168.192 532.098 165.19 544.122 162.717C556.069 160.26 569.133 158.823 580.955 155.942C591.02 153.488 596.439 149.968 607.297 148.658ZM652.646 288.655C655.181 288.975 658.523 289.486 660.998 289.652C670.632 290.581 681.887 290.978 683.185 278.328C683.557 274.705 680.168 267.78 677.096 265.961C671.975 269.572 670.282 270.756 664.462 272.796C660.924 279.432 658.731 283.926 652.646 288.655Z"/><path fill="currentColor" d="M656.243 527.851C662.949 529.369 673.028 536.132 678.669 540.229C693.51 551.011 709.856 566.044 719.826 581.351C728.803 595.132 736.457 609.602 746.41 622.905C753.23 632.02 760.866 640.073 768.249 648.685C790.487 674.623 807.441 696.262 813.388 730.752C811.657 729.851 807.091 721.125 805.863 718.913C787.142 685.19 758.278 658.208 736.727 626.56C724.454 608.536 716.288 590.346 702.146 573.201C694.169 563.46 685.512 554.298 676.238 545.783C670.385 540.505 661.967 534.044 656.807 528.467L656.243 527.851Z"/><path fill="currentColor" d="M647.744 603.521L648.142 603.582L648.365 604.14C639.028 613.305 611.601 623.798 598.752 626.53C566.879 633.137 533.686 626.916 506.368 609.215L498.761 603.9C524.299 616.44 566.828 623.998 594.388 618.664C611.538 615.345 630.831 608.839 647.744 603.521Z"/></svg>