<?xml version="1.0" encoding="utf-8" ?><svg xmlns="http://www.w3.org/2000/svg" xmlns:xlink="http://www.w3.org/1999/xlink" width="1024" height="1024" viewBox="0 0 1024 1024"><path fill="currentColor" d="M402.756 326.205C406.81 326.019 412.301 326.026 416.48 326.088C484.502 327.094 556.124 346.433 616.334 377.896C639.685 390.099 663.019 404.92 680.837 424.667C691.474 436.455 695.658 447.974 703.681 460.517C713.998 476.647 727.471 495.479 740.995 508.988C756.604 524.579 769.506 526.564 788.516 534.329C798.416 538.373 812.313 549.031 819.936 556.932C838.455 576.128 843.01 597.959 842.959 623.535L851.017 623.498C870.661 623.592 871.361 629.762 887.785 637.108C902.54 642.888 922.272 643.066 934.621 653.551C939.39 657.6 938.363 665.948 932.854 669.512C933.056 669.681 933.227 669.895 933.459 670.02C934.095 670.363 934.838 670.389 935.511 670.838C938.06 672.534 939.806 675.104 940.262 678.149C940.648 680.726 939.98 683.273 938.335 685.303C931.2 694.114 908.099 690.313 897.581 691.564C891.214 692.322 885.233 695.337 878.762 696.129C858.804 698.574 824.171 689.845 801.952 688.189C764.3 685.383 669.887 694.756 641.219 672.043C624.644 658.911 618.453 598.472 616.887 578.153C616.22 569.503 616.543 560.747 615.46 552.134L615.355 551.332C606.282 555.737 600.024 556.443 590.326 555.678C561.354 553.391 552.95 528.469 533.517 515.417C517.516 504.67 478.365 491.474 458.945 488.028C475.478 505.326 492.752 521.9 510.718 537.704C531.31 555.107 556.597 569.065 567.583 595.189C572.158 606.069 570.749 611.53 571.484 622.523C571.687 625.565 572.784 628.473 573.286 631.468C574.524 638.846 573.703 647.788 570.821 654.72C564.787 669.231 550.116 678.893 536.065 684.563C485.826 704.838 344.832 693.617 287.887 688.621C267 686.789 245.766 683.097 224.809 682.814C216.217 682.698 207.718 684.339 199.25 685.619C190.258 687.019 181.232 688.196 172.182 689.148C160.054 690.349 98.8658 689.017 90.4538 685.161C87.1516 683.647 83.9913 680.854 82.8588 677.312C82.0403 674.752 82.3185 671.826 83.5496 669.446C85.8638 664.972 91.0779 662.525 94.7116 659.229C98.6288 655.676 101.02 651.301 105.461 648.085C112.755 642.802 121.592 639.628 129.911 636.353C144.111 630.765 159.969 625.196 172.684 616.662C178.89 612.548 184.865 608.097 190.582 603.327C198.183 596.966 207.669 585.871 216.952 583.04C231.432 578.624 245.785 590.697 249.606 604.352C277.256 614.039 336.951 601.502 364.779 592.462C356.369 586.375 346.453 581.218 337.756 575.382C314.217 559.588 289.088 543.962 268.084 524.924C251.019 509.548 238.802 490.636 238.252 466.961C236.589 395.33 305.989 355.16 365.204 334.738C377.006 330.668 390.574 326.673 402.756 326.205ZM450.039 477.652C474.611 482.008 512.481 493.411 533.774 505.526C563.839 522.631 571.37 562.767 615.481 542.998C615.535 529.582 615.278 514.839 613.595 501.598C612.677 494.382 605.381 491.79 605.293 484.972L605.913 483.852C607.526 483.558 608.182 483.818 609.573 484.821C623.496 494.741 621.87 507.191 621.993 522.265C622.149 541.42 623.729 560.7 625.283 579.791C626.977 600.595 628.54 626.285 636.201 645.887C637.37 649.653 639.687 656.406 641.407 660.023C649.138 654.216 673.276 629.116 678.663 621.305C675.284 585.499 676.075 573.143 686.591 538.406C692.646 513.747 701.278 481.257 690.796 456.958C684.433 442.206 664.938 419.888 652.079 410.409C584.466 360.568 492.322 334.245 408.897 334.467C432.299 366.582 444.459 403.146 449.411 442.685C450.764 453.492 450.001 466.773 450.039 477.652ZM386.401 597.102C394.497 593.8 408.955 584.663 416.278 579.685C436.758 565.131 464.165 538.824 475.013 515.743C457.843 498.451 445.837 487.336 427.501 471.655C414.814 460.803 387.618 439.681 379.25 427.615C397.63 435.984 409.056 445.695 424.344 458.859C429.379 463.195 436.529 469.592 441.848 473.27C446.579 431.964 426.571 366.992 399.973 335.48C398.687 335.525 395.952 335.535 394.793 335.683C365.991 339.148 318.498 362.264 294.723 379.159C285.888 385.438 275.418 394.807 268.57 403.402C253.809 421.929 243.608 446.759 245.916 470.66C248.392 496.286 267.604 515.858 287.252 530.746C306.318 545.193 328.851 560.162 348.919 573.493C359.452 580.49 375.407 591.442 386.401 597.102ZM394.403 601.787C410.993 610.693 409.963 607.635 427.924 608.464C454.649 609.698 482.27 618.882 505.369 632.077C510.507 635.013 519.929 638.878 522.719 644.166C522.775 648.687 517.625 647.688 514.831 646.168C488.452 631.813 464.749 618.877 434.228 616.154C422.32 614.974 410.306 615.429 398.521 617.507C359.985 624.201 322.301 638.691 282.761 640.39C271.878 640.858 262.85 642.559 255.439 632.746C247.239 622.675 241.501 609.982 227.622 607.315C217.255 610.914 212.45 618.115 205.068 625.685C190.511 640.612 173.851 647.2 154.384 653.32C147.127 655.34 139.835 657.23 132.511 658.989C128.469 659.958 84.6388 668.263 90.1831 674.903C96.1895 682.096 121.411 679.624 130.708 680.496C149.775 681.446 166.367 681.979 184.624 679.756C191.142 678.984 197.645 678.091 204.13 677.078C208.097 676.435 212.107 675.803 216.061 675.105C226.328 673.292 236.35 675.535 246.591 676.719C258.034 677.972 269.488 679.119 280.952 680.16C317.839 683.398 354.814 685.552 391.827 686.618C433.014 687.908 511.097 692.644 545.8 670.274C554.857 664.435 563.653 655.405 565.922 644.536C568.721 631.133 563.774 619.356 556.448 608.397C547.528 595.052 536.76 583.217 526.127 571.248C519.291 563.553 512.58 555.621 505.434 548.218L488.781 531.077C486.753 528.995 481.774 524.079 480.17 521.867C457.701 559.069 432.223 581.052 394.403 601.787ZM647.818 666.56C670.846 683.644 741.278 679.126 770.547 679.537C782.085 679.699 795.005 680.269 806.616 680.595C833.216 681.342 866.722 695.305 891.476 683.868C900.835 681.054 924.35 685.139 932.064 680.208L932.337 679.372C927.781 674.059 902.246 669.364 894.924 666.247C888.132 663.356 881.839 659.834 875.398 656.186C866.533 651.165 857.293 653.635 847.736 653.957C819.45 654.909 791.426 650.062 763.645 645.352C749.885 643.001 736.388 639.486 722.769 636.474C715.734 634.931 690.746 626.841 685.216 626.816C678.823 633.406 673.583 640.26 667.491 646.851C661.409 653.432 654.157 660.093 647.818 666.56ZM126.168 652.406C152.349 646.36 182.258 638.816 200.678 618.261C213.022 604.485 219.969 594.629 240.008 602.588C236.015 594.819 230.075 589.571 220.874 590.121C218.604 590.923 215.313 592.081 213.519 593.583C200.685 604.322 189.9 615.406 175.489 624.309C166.718 629.616 157.518 634.179 147.985 637.95C134.252 643.404 118.911 648.114 106.856 656.635C111.832 655.369 121.163 653.164 126.168 652.406ZM743.523 578.749C748.029 588.207 743.417 593.564 746.675 602.432C749.216 609.347 755.529 614.084 759.825 619.701C763.745 624.824 766.684 632.04 769.222 638.003C779.053 639.93 788.944 641.532 798.88 642.807C808.054 644.153 818.265 644.995 827.556 645.731L827.891 644.77C829.558 640.099 831.7 636.693 832.936 631.395C841.802 593.396 819.897 558.023 785.375 542.572C779.158 539.79 762.748 538.516 756.113 539.219C741.599 539.95 696.991 542.397 723.975 566.65C729.345 571.476 737.663 574.335 743.523 578.749ZM694.551 541.36C699.251 537.983 704.278 534.506 708.758 530.881C717.828 523.906 722.407 518.352 729.39 509.429C726.222 504.418 719.743 497.368 715.896 492.286C712.341 487.59 707.717 480.733 704.115 476.503C702.607 485.753 703.342 496.281 701.692 506.159C699.689 518.15 696.641 529.527 694.551 541.36ZM759.796 636.204C754.621 626.646 751.46 622.109 743.781 614.263C736.984 607.319 737.239 594.312 737.224 584.953C731.042 581.033 721.811 576.039 717.137 571.474C696.6 551.417 710.797 535.339 734.718 533.13C743.215 532.346 751.079 530.877 759.429 530.975C748.518 526.964 744.236 521.363 735.303 514.966C717.835 535.467 713.526 537.79 691.674 551.811C684.851 565.819 684.238 589.2 685.237 604.482C685.524 608.881 685.372 613.649 686.082 617.984C696.198 620.586 753.242 636.796 759.796 636.204ZM922.483 662.456C924.512 662.218 926.487 662.269 927.996 660.99C930.136 653.627 889.041 646.988 883.642 644.211C875.731 640.143 868.464 634.306 859.913 632.254C854.519 631.403 846.743 631.869 841.363 631.396C839.853 635.857 837.893 642.012 835.592 645.989C847.699 646.515 859.639 644.084 871.309 645.909C876.608 646.738 882.569 650.622 887.192 653.116C899.43 660.369 908.46 662.257 922.483 662.456ZM393.129 610.647C387.839 607.516 376.818 599.313 371.196 600.121C335.437 607.534 286.215 622.579 250.291 612.453C254.342 618.131 262.741 630.976 269.546 632.664C297.518 633.679 336.033 624.031 363.646 617.779C373.416 615.567 383.21 612.287 393.129 610.647ZM560.478 598.669C556.985 588.743 539.937 567.42 530.713 563.434C533.061 567.829 557.848 597.389 560.478 598.669Z"/><defs><linearGradient id="gradient_0" gradientUnits="userSpaceOnUse" x1="546.83899" y1="579.62463" x2="544.90753" y2="581.29645"><stop offset="0" stop-color="white" stop-opacity="0"/><stop offset="1" stop-color="#FAF9FA" stop-opacity="0.031372551"/></linearGradient></defs><path fill="currentColor" fill="url(#gradient_0)" d="M530.713 563.434C539.937 567.42 556.985 588.743 560.478 598.669C557.848 597.389 533.061 567.829 530.713 563.434Z"/></svg>