<?xml version="1.0" encoding="utf-8" ?><svg xmlns="http://www.w3.org/2000/svg" xmlns:xlink="http://www.w3.org/1999/xlink" width="1024" height="1024" viewBox="0 0 1024 1024"><path fill="currentColor" transform="scale(2 2)" d="M248.531 63.047C275.58 62.8082 301.792 66.5607 328.26 71.7806C346.953 75.467 361.582 77.2237 376.09 91.0048C390.958 105.128 401.03 124.213 401.963 144.993C402.433 155.457 397.463 175.529 395.684 186.984L386.265 247.75C381.036 279.448 378.553 297.267 354.755 320.883C340.965 334.567 340.63 351.64 341.581 369.544C341.657 370.982 343.705 374.139 344.362 375.596C347.527 382.616 346.201 404.238 346.262 412.381C346.255 424.42 344.616 440.776 329.766 443.949C323.981 445.185 316.648 442.454 310.626 443.236C295.465 445.205 280.381 446.898 265.058 447.247C243.391 447.283 222.559 445.954 200.973 443.681C184.079 442.361 181.713 431.666 181.741 417.421L181.72 386.301C181.688 379.153 180.863 373.801 187.169 369.048C184.789 360.594 185.205 348.736 182.664 341.128C138.497 325.399 115.211 260.191 110.523 218.133C108.682 203.961 111.262 188.538 120.359 177.132C127.226 168.521 142.158 158.649 153.19 157.569C151.915 134.57 160.392 108.941 176.151 91.9733C196.984 69.5444 219.055 64.216 248.531 63.047ZM153.19 162.682C135.383 169.552 117.817 179.378 115.958 201.133C112.884 237.101 131.501 290.394 157.03 316.525C164.236 323.495 171.901 330.588 181.134 334.748C189.672 338.594 187.634 338.672 188.962 347.6C229.782 355.514 285.396 353.417 325.923 348.791C329.284 348.408 332.688 347.772 336.053 347.6C340.77 327.584 344.715 324.315 358.347 309.159C375.303 290.308 377.6 269.068 381.207 245.059L392.582 172.688C394.153 162.967 397.507 150.344 396.388 140.919C393.179 113.877 372.892 86.4402 345.343 80.79C313.426 74.244 275.684 66.7817 243.094 68.496C233.319 69.4419 223.47 70.4102 214.082 73.4924C176.341 85.8844 157.857 120.402 158.471 158.891C158.482 159.57 158.827 160.945 159.315 161.427C183.558 185.4 200.31 216.372 205.312 250.249C205.661 252.607 206.753 259.495 206.004 261.422C200.598 267.296 200.14 252.109 199.838 250.118C195.861 223.9 184.407 199.183 167.651 178.694C163.304 173.377 156.999 167.946 153.19 162.682ZM298.475 439.393C297.279 438.486 296.462 437.893 295.397 436.809C282.302 423.295 278.376 388.277 293.898 377.017C285.223 376.852 277.075 377.707 268.475 377.805C246.53 378.056 224.509 377.074 202.687 374.745C198.868 374.337 194.516 373.5 190.733 373.895C188.198 375.182 187.231 377.45 187.207 380.261C187.152 386.491 186.089 426.639 188.447 430.854C193.725 440.285 207.746 439.104 217.227 439.923C244.347 442.265 271.414 442.685 298.475 439.393ZM301.236 377.017C283.22 387.71 286.946 434.536 307.348 437.355C308.816 437.381 310.164 437.402 311.634 437.355C294.544 422.44 298.171 396.617 307.348 378.493C305.513 377.68 303.281 376.635 301.236 377.017ZM326.188 369.821C303.703 375.669 296.31 420.168 319.001 436.38C319.433 436.689 320.694 437.146 321.236 437.355C330.111 442.474 339.462 432.76 340.17 424.427C341.303 411.103 340.431 397.201 340.493 383.805C340.529 376.054 334.231 368.89 326.188 369.821ZM191.774 367.998C193.915 368.286 195.568 368.597 197.686 369.048C202.564 368.802 209.991 370.02 215.126 370.406C241.573 372.394 268.183 373.255 294.634 370.843C300.546 370.304 304.889 371.067 310.139 373.895C317.868 366.007 325.077 361.284 336.053 366.536C336.062 363.365 337.718 352.549 334.19 353.458C299.235 357.36 225.795 362.112 190.733 353.458C190.763 358.387 191.862 363.51 191.774 367.998Z"/><path fill="currentColor" transform="scale(2 2)" d="M352.773 257.627C359.234 258.234 352.069 274.581 350.676 278.074C345.605 290.789 331.879 310.051 317.773 314.233C311.311 314.697 316.888 308.881 320.349 306.99C346.687 292.614 346.603 263.001 352.773 257.627Z"/></svg>