<?xml version="1.0" encoding="utf-8" ?><svg xmlns="http://www.w3.org/2000/svg" xmlns:xlink="http://www.w3.org/1999/xlink" width="1024" height="1024" viewBox="0 0 1024 1024"><path d="M197.028 130.145C212.54 129.222 227.388 138.39 237.629 149.357C243.329 155.461 247.068 161.233 254.037 166.11C263.767 172.919 275.433 175.806 284.357 183.695C289.679 188.398 292.252 200.216 297.966 203.12C306.859 207.694 316.722 210.735 325.87 214.838C359.569 229.954 396.207 244.664 418.083 276.111C427.284 289.338 438.071 311.559 451.92 319.456C459.496 323.776 475.218 328.43 484.071 331.903C490.222 330.927 497.557 328.699 503.712 327.164C521.809 322.649 539.889 316.804 558.239 313.513C568.845 311.611 580.011 315.064 590.495 315.47C607.82 316.141 627.849 309.271 644.507 304.57C651.543 302.585 663.352 297.856 669.32 294.347C677.761 289.384 683.464 284.292 693.085 280.938C698.824 278.954 704.849 277.928 710.92 277.901C731.77 277.712 741.835 288.911 759.591 297.623C755.972 276.291 756.942 235.258 774.438 219.988C793.593 203.269 829.251 204.313 846.426 223.69C857.415 236.088 855.408 252.53 854.393 267.74C856.981 270.8 858.365 273.033 859.172 277.086C860.102 281.887 859.081 286.86 856.335 290.906C852.716 296.255 848.306 298.157 842.329 299.302C834.979 316.011 831.734 317.214 818.22 328.134C823.71 330.251 832.668 334.512 836.374 339.13C841.076 344.99 839.72 352.37 838.877 359.193C853.054 370.572 864.196 381.994 863.966 401.47C863.85 408.865 860.613 423.866 856.029 429.788C840.071 450.406 851.02 479.436 830.541 497.773C821.743 505.65 808.38 514.943 796.671 514.259C773.88 512.928 776.545 476.548 776.907 460.886C748.479 474.843 722.177 493.188 692.234 503.246C681.304 506.917 671.621 508.259 660.447 510.219C641.964 534.098 645.889 546.191 645.37 574.293C645.153 586.058 643.923 601.192 642.849 613.062C641.6 626.31 639.222 639.366 637.804 652.57C637.148 658.683 637.841 664.854 637.561 670.988C637.182 679.289 633.905 687.21 631.31 695.011C627.131 707.573 626.279 721.624 624.635 734.743C620.401 768.513 611.612 842.786 626.593 872.249C634.251 887.309 667.042 901.28 683.003 905.323C687.093 906.359 691.526 904.733 695.573 906.207C698.027 907.101 700.056 909.077 701.083 911.472C702.747 915.349 702.032 919.244 700.515 923.009C692.55 929.585 683.843 927.933 674.29 928.939C667.2 929.686 660.399 931.239 653.187 930.454C642.07 929.244 631.171 925.969 619.994 925.498C609.645 925.311 597.313 928.588 586.658 928.723C580.864 928.797 575.392 928.233 571.042 923.635C561.16 913.188 571.433 895.619 571.115 884.247C570.5 862.257 569.773 838.533 565.286 817.09C563.147 808.123 559.386 799.49 556.599 790.72C548.112 764.011 547.352 733.646 555.198 706.683C559.425 692.248 566.094 678.306 564.746 662.873C562.264 634.445 550.229 607.878 545.211 579.847C542.754 567.124 540.847 554.428 539.733 541.518C538.685 529.364 538.853 517.262 538.972 505.069C539.076 494.345 540.078 483.619 539.959 472.883C537.533 469.23 535.039 461.899 532.918 460.011C519.807 448.339 502.39 438.475 487.792 428.99C470.492 417.719 453.952 405.323 438.277 391.882C425.879 381.07 414.285 368.073 401.762 357.217C400.558 356.174 398.013 352.963 396.878 351.578C380.735 332.347 362.714 314.544 344.646 297.079C328.805 281.765 316.913 262.739 298.963 249.856C280.965 236.938 259.955 230.408 240.82 219.45C224.516 210.217 214.433 199.871 197.714 190.501C186.709 184.333 149.914 180.199 160.178 158.835C161.755 155.552 168.862 152.344 171.269 149.684C180.32 139.677 182.277 132.626 197.028 130.145ZM692.854 918.001C693.577 916.364 693.555 917.163 693.006 915.528C689.441 912.74 681.657 914.527 676.089 913.025C666.8 910.684 658.038 906.288 649.493 902.036C623.958 889.33 613.484 876.382 610.881 847.12C606.672 798.911 613.623 750.424 620.199 702.733C621.266 695.001 628.399 681.029 628.371 674.82C628.273 652.865 632.095 632.55 634.449 610.991C636.851 589.001 637.153 565.08 636.946 543.037C598.64 534.694 578.216 502.629 549.137 480.752C545.032 521.291 548.482 562.239 559.311 601.52C564.657 621.431 572.015 641.823 573.467 662.483C574.545 677.839 568.073 692.127 564.005 706.536C559.033 723.984 557.4 742.214 559.19 760.268C560.198 770.13 562.308 779.849 565.48 789.241C567.602 795.35 571.752 804.77 573.015 810.722C578.794 837.94 580.433 867.089 579.044 894.886C578.733 901.109 567.586 918.741 583.853 920.338C593.467 921.281 604.77 916.432 614.625 916.967C629.144 916.786 641.725 920.682 655.866 921.739C660.883 922.114 669.621 919.635 675.207 919.51C681.146 919.376 687.591 920.687 692.854 918.001ZM537.35 450.875C539.544 448.739 541.7 446.564 543.818 444.351C561.947 424.492 570.562 408.247 580.339 383.447C563.1 377.936 545.919 372.248 528.797 366.383C491.627 353.806 450.911 340.685 427.242 307.022C416.411 291.617 408.227 273.794 393.157 261.84C363.138 238.237 327.022 225.542 292.219 211.072C284.567 206.885 283.505 195.55 277.347 190.171C269.001 182.879 256.181 179.908 247.719 173.08C229.656 158.506 224.381 140.182 197.744 139.139C184.842 141.878 184.903 149.254 176.664 157.443C173.408 160.68 167.264 160.267 167.572 166.378C170.879 172.679 186.442 176.049 193.203 178.54C212.483 185.641 226.622 200.241 244.082 210.7C262.698 221.852 284.01 227.922 301.77 240.329C317.52 251.331 329.368 267.357 342.342 281.277C356.311 296.286 371.539 310.235 385.655 325.124C394.376 334.321 402.3 344.428 410.85 353.785C412.677 355.784 416.346 357.482 418.249 359.561C423.526 364.819 428.597 370.429 433.963 375.585C444.966 386.088 456.625 395.882 468.871 404.906C490.58 421.031 514.878 434.879 537.35 450.875ZM619.235 526.497C626.001 529.785 630.861 531.731 638.085 533.838C642.992 520.44 645.592 514.823 655.018 503.671C635.028 466.848 630.65 440.723 632.099 399.508L604.65 390.654C600.825 389.429 592.278 386.879 588.932 385.317C581.667 403.708 574.752 420.279 562.4 436.044C556.771 443.229 550.036 450.204 544.815 457.558C541.979 461.551 546.464 467.215 549.422 469.576C555.277 474.879 561.815 479.068 567.787 484.203C578.698 494.184 588.65 505.101 600.352 514.236C606.843 519.303 611.97 522.635 619.235 526.497ZM485.37 340.835C490.987 343.182 502.676 348.102 508.278 349.388C528.423 354.011 555.047 354.974 575.625 354.099C602.288 353.14 666.188 346.249 688.501 334.146C690.424 324.422 694.758 326.083 701.164 332.047C704.004 334.691 707.003 338.936 706.312 343.019C703.504 346.324 698.04 341.741 695.601 339.732C693.206 341.255 689.886 342.901 689.012 345.461C690.111 354.949 710.11 359.532 718.513 358.248C726.298 357.087 733.276 352.809 737.843 346.398C747.035 333.586 745.455 314.526 743.668 299.806C731.286 291.963 722.8 285.953 707.684 287.15C688.014 290.215 687.542 295.885 670.926 303.841C659.588 309.271 641.003 315.144 628.947 318.492C616.087 322.064 599.229 324.809 586.048 323.957C577.728 323.419 569.4 320.758 560.96 322.19C535.451 326.518 510.954 336.656 485.37 340.835ZM685.606 356.81C682.25 363.894 678.558 371.328 675.36 378.442C697.733 394.599 711.83 410.95 728.706 432.773C736.579 442.938 743.761 453.621 750.202 464.749C759.557 460.394 768.563 454.631 778.01 450.369C782.014 429.995 786.709 415.35 785.965 394.135C782.486 390.709 777.182 385.518 775.158 381.154C765.735 360.835 762.567 329.375 760.479 307.337C757.98 306.371 755.645 305.468 753.19 304.373C753.483 322.691 755.719 341.207 741.644 355.781C734.488 363.197 724.642 367.41 714.336 367.467C703.165 367.557 694.138 363.809 685.606 356.81ZM813.332 337.026C808.446 339.032 806.921 338.951 801.625 339.065C798.251 341.233 795.645 342.914 792.662 345.62C792.01 367.932 795.758 388.855 794.296 410.928C793.408 424.323 789.632 436.545 787.424 449.584C785.224 462.745 784.962 476.157 786.643 489.395C789.013 507.563 795.909 509.553 811.316 500.975C819.709 496.278 823.29 493.26 829.096 485.409C827.259 473.376 823.417 464.453 820.239 452.93C815.396 435.376 812.945 408.76 815.449 390.816C817.952 372.876 831.855 366.978 830.827 345.753C827.088 342.813 818.045 337.391 813.332 337.026ZM543.233 362.269C551.574 365.098 559.848 367.489 568.292 369.959L636.823 391.497C646.4 387.57 655.827 383.285 665.083 378.652C666.702 375.603 679.009 349.498 678.722 348.098L678.208 348.022C646.338 358.291 576.739 365.627 543.233 362.269ZM823.628 409.951C823.921 422.912 825.484 437.03 828.709 449.554C829.597 453.001 833.444 468.647 835.118 470.82C835.338 469.927 835.493 469.279 835.662 468.369C837.312 457.706 838.695 446.285 841.938 436.025C843.054 432.496 847.504 427.219 849.473 423.653C860.41 403.841 855.291 380.311 835.802 367.294C831.511 375.258 826.041 384.831 823.72 393.518C831.609 398.204 827.753 403.199 823.907 409.494L823.628 409.951ZM784.804 378.423C784.064 367.443 782.612 347.118 785.827 336.846C778.634 333.089 777.271 331.017 771.224 325.788C773.101 336.028 777.875 372.725 784.523 379.413C784.888 378.706 784.838 379.046 784.804 378.423ZM701.631 490.135C710.204 486.225 735.666 474.676 742.059 468.787C732.542 452.183 720.744 436.004 708.314 421.49C699.309 410.977 689.662 400.981 678.781 392.435C677.119 391.13 671.556 386.218 670.148 385.913C660.527 391.051 650.657 395.711 640.575 399.875C639.549 429.886 641.242 450.006 652.982 478.286C655.987 485.525 660.145 493.747 662.943 500.665C679.878 498.217 685.626 496.705 701.631 490.135ZM806.474 217.221C796.194 217.887 784.757 221.11 777.854 229.24C766.826 243.858 766.358 268.709 767.264 286.092C767.855 297.413 771.849 313.998 780.578 321.625C789.615 329.521 800.168 326.371 810.014 322.085C820.617 316.964 827.034 311.056 831.528 300.235C832.869 297.249 834.497 293.514 836.98 291.296C841.636 287.136 847.53 291.986 850.27 284.359C852.477 278.214 849.58 277.213 844.914 274.336L844.903 273.358C844.801 257.983 850.732 240.268 838.144 228.438C829.686 220.491 817.868 216.978 806.474 217.221Z"/><path d="M269.435 197.509C276.998 199.354 281.801 207.248 274.45 212.631C266.792 210.135 261.572 203.749 269.435 197.509Z"/></svg>
