<?xml version="1.0" encoding="utf-8" ?><svg xmlns="http://www.w3.org/2000/svg" xmlns:xlink="http://www.w3.org/1999/xlink" width="1024" height="1024" viewBox="0 0 1024 1024"><path fill="currentColor" transform="scale(2 2)" d="M121.908 155.184C125.039 155.684 131.487 172.357 133.076 175.879L146.906 206.109C153.556 220.837 157.156 230.184 175.862 233.294C186.958 235.012 198.938 233.88 210.154 234.023C222.242 234.177 234.537 234.262 243.456 224.855C245.606 222.588 253.226 216.788 250.944 223.555C244.881 236.172 227.234 238.89 214.945 238.847L202.821 238.89C190.871 238.85 178.896 239.987 167.381 235.997C148.868 229.58 147.024 218.258 139.825 202.384C135.431 213.407 139.222 214.332 141.809 225.422C145.974 243.281 151.6 256.514 156.563 273.38C167.648 310.873 167.717 349.77 164.647 388.458C164.462 391.472 163.841 394.585 163.797 397.599C163.407 424.368 207.43 418.306 225.097 418.497C206.007 397.533 215.7 376.787 182.23 353.219C173.099 346.788 177.847 343.71 188.246 351.683C211.786 369.398 211.244 380.576 221.674 404.677C228.633 420.758 237.018 418.488 251.606 418.49L265.56 418.532C268.693 418.548 273.276 418.778 276.222 418.156C292.274 414.767 294.73 384.388 303.98 370.95C306.962 366.617 328.814 343.047 334.453 346.923C336.946 350.596 329.556 353.407 327.059 355.128C295.328 377 301.613 406.537 286.341 418.497C288.439 418.337 291.335 418.464 293.498 418.473L313.624 418.511C321.54 418.519 329.903 419.017 337.179 415.376L337.465 415.231C349.587 408.969 349.844 398.739 347.708 387.013C343.228 349.584 343.962 310.275 355.491 274.151C358.01 266.257 361.722 258.368 363.975 250.436C367.517 237.962 370.947 225.722 375.068 213.415C374.087 210.36 373.187 207.365 372.284 204.286C372.218 203.902 372.288 204.11 372.006 203.689C370.189 205.131 363.384 224.327 359.787 228.671C350.272 240.161 323.262 238.313 309.601 238.738C295.667 239.17 281.389 241.523 269.86 231.766C267.861 230.074 259.802 219.989 265.494 220.306C267.852 220.438 270.959 225.844 272.629 227.552C282.526 237.673 305.261 233.754 318.185 233.352C329.028 233.014 347.675 234.824 355.739 225.632C358.733 222.218 375.628 183.555 378.235 177.79C380.02 173.841 386.727 155.486 391.272 155.621C395.784 158.45 379.457 185.88 377.019 192.022C373.962 199.724 382.278 220.918 387.479 226.908C390.718 230.639 394.08 234.115 397.546 237.518L409.817 249.584C413.466 253.123 416.668 255.464 418.91 259.986C418.077 260.901 417.088 261.495 416.053 262.159C413.742 260.646 407.307 253.935 404.928 251.638L392.745 239.8C386.918 234.141 380.983 228.434 378.027 220.619C372.709 238.896 366.614 255.806 360.814 273.634C350.176 306.334 348.806 340.74 351.382 374.788C351.623 384.487 355.536 395.302 352.615 404.749C347.126 422.504 329.975 423.358 314.79 423.344L211.416 423.326C193.824 423.354 166.12 426.501 159.892 404.519C158.164 398.419 159.553 391.529 159.94 385.244C162.579 348.725 162.594 312.106 152.379 276.591C149.758 267.476 146.366 259.095 143.212 250.194C140.068 241.319 136.606 227.181 134.351 217.578C127.76 234.511 113.746 242.656 102.373 255.866C100.225 258.361 97.8395 261.88 95.0824 263.543C89.7586 259.866 94.8006 256.797 98.0945 253.049C120.373 227.698 126.584 232.262 136.695 195.104C134.395 189.954 119.277 159.769 119.834 157.17C120.059 156.115 121.056 155.659 121.908 155.184Z"/><path fill="currentColor" transform="scale(2 2)" d="M210.759 87.0817C212.565 87.1739 213.254 88.8671 212.666 90.4964C211.784 92.9419 188.588 99.5576 184.52 101.574C227.057 130.725 284.936 131.845 327.214 101.574C323.498 99.7596 296.564 92.4025 299.384 88.6413C302.164 84.933 313.98 91.4373 317.314 92.6752C330.589 97.6049 342.971 99.6812 355.151 103.996C360.514 105.896 365.053 109.511 370.618 111.061C375.96 112.55 381.582 112.318 387.069 112.732C417.038 114.993 438.921 143.044 433.991 172.817C433.517 175.684 432.432 178.468 431.672 181.27C427.766 195.683 433.488 208.525 442.495 219.624C444.381 221.949 452.038 227.71 448.569 230.763C445.194 231.955 440.562 224.785 438.628 222.388C412.175 190.967 434.746 181.635 428.011 151.796C424.055 134.267 407.927 120.499 390.279 117.909C379.752 116.365 371.875 118.375 361.931 112.371C351.503 107.939 344.358 105.393 332.912 103.553C330.463 105.81 324.948 108.839 321.947 110.586C280.374 134.796 234.615 134.272 192.385 112.001C189.169 110.305 181.895 105.973 179.382 103.553C175.469 104.026 163.36 106.075 160.101 107.47C148.678 112.36 142.204 116.959 129.205 116.53C120.55 116.245 106.715 121.912 100.067 127.336C81.3593 141.829 80.2427 160.676 85.0367 181.429C89.0764 198.916 80.2257 219.868 66.395 230.886C65.2549 230.155 63.7427 229.213 63.5499 227.761C63.3487 226.246 84.9979 208.25 80.841 184.377C80.1434 180.371 78.7412 176.51 78.0761 172.494C73.0527 142.157 96.0554 113.741 126.755 111.825C146.029 110.622 142.138 108.864 158.765 102.675C164.495 100.542 170.917 100.516 176.821 98.7593C186.224 95.9607 202.241 88.4677 210.759 87.0817Z"/><path fill="currentColor" transform="scale(2 2)" d="M324.741 258.251C325.601 258.252 327.172 259.302 326.909 260.14C324.858 265.925 315.153 270.898 309.393 271.731C302.106 272.603 273.364 266.066 263.568 265C261.624 264.497 261.08 263.455 261.579 261.461C265.627 256.726 300.153 268.125 308.663 266.885C315.75 265.852 318.984 260.89 324.741 258.251Z"/><path fill="currentColor" transform="scale(2 2)" d="M189.216 258.251C192.273 257.973 192.692 259.291 195.147 261.273C205.631 269.737 219.013 261.353 230.795 260.357C231.732 260.275 257.911 257.988 248.571 265C243.31 265.805 237.363 264.633 231.906 265.241C218.382 266.749 206.34 274.435 193.441 266.195C190.454 264.287 185.998 261.798 189.216 258.251Z"/><path fill="currentColor" transform="scale(2 2)" d="M255.398 149.252C258.97 149.141 258.632 152.312 258.69 155.241C258.935 167.732 258.72 180.235 258.797 192.73C258.817 196.977 260.093 206.456 256.633 208.575C255.335 208.831 254.935 208.394 253.751 207.696C253.429 205.684 253.753 198.461 253.755 195.783L253.655 151.506C253.652 150.491 254.629 149.766 255.398 149.252Z"/><path fill="currentColor" transform="scale(2 2)" d="M313.261 296.507C318.064 295.396 317.004 299.643 313.901 302.498C301.778 313.651 284.603 306.393 270.188 305.185C264.752 304.558 263.396 299.841 271.161 300.191C281.839 300.672 294.904 306.222 305.142 302.333C307.806 301.32 310.66 297.984 313.261 296.507Z"/><path fill="currentColor" transform="scale(2 2)" d="M198.434 295.005C202.554 294.708 206.971 303.349 213.428 303.649C224.462 304.162 235.986 300.01 246.214 300.242L246.63 300.254C248.165 302.778 248.192 303.403 245.807 305.185C232.276 304.565 215.214 313.757 203.118 304.339C200.483 302.287 195.267 298.41 198.434 295.005Z"/><path fill="currentColor" transform="scale(2 2)" d="M208.192 335.281C212.417 337.284 214.672 344.418 221.309 345.398C227.622 346.33 244.604 341.843 247.338 344.694C248.418 346.042 247.149 347.361 245.807 348.165L233.381 349.804C221.147 351.453 213.086 351.151 205.631 338.609C204.486 336.683 206.839 335.764 208.192 335.281Z"/><path fill="currentColor" transform="scale(2 2)" d="M305.309 335.281C315.361 335.038 298.857 350.147 292.409 350.463C283.885 350.88 276.98 349.207 268.767 348.165C264.752 347.586 265.308 343.695 267.141 343.628C274.177 343.515 281.277 345.228 288.354 345.771C297.757 346.492 299.646 339.066 305.309 335.281Z"/><path fill="currentColor" transform="scale(2 2)" d="M256.633 312.186C261.102 312.839 258.827 340.929 258.67 346.031C258.641 346.977 257.358 347.725 256.633 348.165C255.078 347.507 253.808 347.157 253.777 345.204C253.61 334.894 253.396 324.439 253.901 314.153C253.941 313.335 256 312.49 256.633 312.186Z"/><path fill="currentColor" transform="scale(2 2)" d="M255.398 268.952C257.867 268.886 258.932 269.509 258.874 272.14C258.763 277.229 259.826 301.415 257.667 303.747C250.304 305.951 254.062 270.315 255.398 268.952Z"/><path fill="currentColor" transform="scale(2 2)" d="M256.633 241.794C257.135 241.933 258.555 242.359 258.605 242.758C259.108 246.687 260.618 261.851 256.633 263.543C252.788 262.738 251.552 243.031 256.633 241.794Z"/><path fill="currentColor" transform="scale(2 2)" d="M255.398 367.673C256.428 367.668 257.725 367.762 258.349 368.701C258.628 369.119 261.121 387.335 256.633 389.52C252.187 389.619 253.047 370.015 255.398 367.673Z"/></svg>