<?xml version="1.0" encoding="utf-8" ?><svg xmlns="http://www.w3.org/2000/svg" xmlns:xlink="http://www.w3.org/1999/xlink" width="1024" height="1024" viewBox="0 0 1024 1024"><path fill="currentColor" transform="scale(2 2)" d="M310.833 63.018C347.668 61.23 384.127 90.9965 384.751 128.319C401.605 137.313 397.251 162.822 374.167 162.243C369.757 170.996 359.639 186.635 350.37 191.175C356.08 192.541 368.164 200.051 372.198 204.302C401.296 234.96 410.753 266.133 397.548 306.394C393.588 321.865 387.425 329.318 370.472 329.481C370.421 338.626 370.654 347.691 370.178 356.809C369.774 364.534 367.607 373.182 367.75 380.686C369.56 384.798 379.542 392.257 383.232 396.344C405.002 420.458 370.547 452.802 348.099 429.29C322.793 402.784 308.854 400.686 303.075 359.018C302.26 353.136 301.435 346.877 301.684 340.944L300.71 341.465C295.697 344.127 274.25 359.813 270.947 364.22C273.86 372.446 281.565 383.789 283.095 391.505C287.469 413.561 263.373 428.722 241.949 413.911C238.557 419.162 236.57 421.705 232.182 426.207C187.663 471.198 110.902 443.611 108.031 378.254C105.241 314.749 182.592 278.798 230.796 324.019C235.921 310.806 246.045 306.049 256.478 297.584C256.937 294.471 256.963 290.675 257.479 287.918C247.269 289.014 236.482 296.394 225.181 294.461C207.229 291.235 201.9 265.078 218.43 256.078C224.271 252.899 227.023 253.703 232.819 251.95C247.171 247.606 267.953 234.064 277.574 222.549C284.12 214.715 284.261 207.66 293.841 201.104C264.412 190.534 245.74 170.165 244.729 137.235C239.028 133.805 241.235 128.561 242.034 122.972C247.105 87.5101 276.637 65.5985 310.833 63.018ZM299.765 203.377C283.08 207.274 265.604 273.692 262.517 287.945C262.019 290.241 260.598 295.784 260.702 298.276C260.742 299.22 287.625 308.994 290.348 309.974C309.462 316.851 332.067 323.294 351.625 329.225C356.084 330.577 361.44 331.724 365.377 333.998C365.481 331.963 365.59 330.554 365.377 328.538C358.087 323.989 355.259 322.319 353.094 313.496C351.198 305.766 353.171 296.872 358.702 291.134C359.714 290.078 360.736 289.056 361.654 287.918C364.065 275.982 362.257 261.437 356.731 250.402C355.001 246.947 351.731 243.192 357.355 242.185L357.6 242.435C365.614 250.75 371.141 279.683 365.911 290.84C360.881 296.746 357.374 298.424 357.032 307.315C356.258 327.38 387.761 334.198 392.996 303.749C402.577 272.148 399.45 245.545 378.188 218.876C367.126 205 363.004 200.971 346.08 194.98L345.73 195.088C343.932 195.653 341.692 196.592 340.037 197.407C324.588 205.021 315.078 202.28 299.765 203.377ZM249.171 137.235C250.385 141.296 250.256 146.682 251.506 151.127C263.449 193.589 311.187 212.445 347.012 187.704C358.471 179.446 368.704 168.022 371.055 153.652C372.028 147.709 368.92 144.201 368.621 138.389C357.284 135.511 346.491 130.319 339.217 120.858C324.345 128.132 293.951 126.828 278.331 121.169C276.552 120.524 269.486 117.608 268.366 117.659C260.497 122.008 260.759 129.836 249.171 137.235ZM135.065 424.51C142.524 424.102 150.444 423.496 157.721 421.628C195.091 412.036 231.076 374.538 233.979 335.163C230.982 329.446 216.726 317.741 210.605 315.737C207.02 319.724 203.986 324.215 200.192 328.343C179.821 350.515 151.161 368.15 120.07 365.8C113.788 365.321 114.085 363.032 113.301 370.111C111.144 389.576 119.141 410.816 133.538 424.065C133.733 424.244 134.759 424.453 135.065 424.51ZM245.696 132.344C253.079 130.514 254.757 125.767 258.582 119.82C265.435 110.753 267.856 111.587 276.608 115.074C288.844 119.948 301.484 120.938 314.562 120.858C324.415 119.842 332.644 117.029 341.313 115.987C347.914 124.517 358.218 130.58 368.621 133.185C372.419 128.133 374.16 128.077 380.264 127.159C375.844 92.5677 344.815 64.6179 309.561 68.0024C273.838 71.9134 247.921 95.9663 245.696 132.344ZM153.615 438.009C210.539 461.917 265.342 404.188 242.074 348.48C241.335 346.743 239.314 342.21 238.114 340.944C233.221 386.308 184.275 428.358 138.703 429.312C143.301 432.459 148.505 435.734 153.615 438.009ZM258.772 280.587C260.428 276.572 261.198 271.46 262.532 267.265C266.305 255.408 269.918 244.882 274.093 233.278L273.959 232.974L273.811 232.938C262.98 242.47 250.619 251.052 237.045 256.468C232.218 258.393 224.156 257.357 219.452 261.057C211.199 267.867 212.1 278.541 218.611 285.666C228.611 293.915 249.626 286.203 258.772 280.587ZM140.692 359.184C151.625 357.306 163.431 351.928 172.583 345.599C184.827 337.134 197.149 325.935 205.742 313.768L206.051 313.324C197.074 309.935 188.154 307.942 178.45 308.648C145.772 310.343 124.414 330.256 114.946 360.137C123.724 361.371 132.012 361.226 140.692 359.184ZM373.051 136.378C374.212 146.865 377.745 145.588 375.22 157.558C377.93 157.344 379.529 157.319 382.066 156.319C393.206 149.929 392.774 134.434 378.808 132.344C375.576 132.773 374.312 133.145 373.051 136.378ZM275.76 405.384C283.028 391.766 270.562 376.427 264.903 362.545C268.376 357.34 295.675 338.8 301.684 333.998C302.059 329.457 302.278 323.667 303.387 319.404C289.621 316.586 273.208 307.665 258.772 303.631C245.942 311.944 240.602 313.054 234.761 327.479C251.385 348.804 258.457 374.24 248.079 400.598C246.987 403.372 245.468 406.005 244.729 408.869C253.248 419.414 268.731 416.251 275.76 405.384ZM365.377 338.727C348.9 331.958 325.464 326.571 307.949 320.856C302.271 344.038 309.845 384.492 326.157 401.375C332.319 407.753 354.453 429.87 361.132 431.669C369.28 433.864 374.074 430.321 380.264 426.207C396.122 398.842 363.904 391.907 361.913 382.185C361.45 379.924 363.966 369.257 364.338 365.788C365.4 355.893 364.935 348.238 365.377 338.727Z"/><path fill="currentColor" transform="scale(2 2)" d="M286.437 173.472C287.522 173.496 289.773 175.654 290.812 176.509C300.807 185.048 308.548 173.747 312.16 176.778C312.955 178.646 312.152 179.55 310.833 180.741C296.356 190.783 278.717 176.568 286.437 173.472Z"/><path fill="currentColor" transform="scale(2 2)" d="M315.6 141.763C321.162 141.599 327.802 143.875 326.97 151.235C326.379 156.47 319.53 147.113 318.999 146.771C317.795 146.711 316.798 146.74 315.6 146.771C312.393 148.691 312.25 151.532 310.609 152.514C305.642 155.486 305.608 144.606 315.6 141.763Z"/><path fill="currentColor" transform="scale(2 2)" d="M267.443 142.796C276.631 142.115 281.788 152.723 276.495 153.646C272.976 152.675 273.646 148.16 268.717 147.621L268.366 147.585C263.091 148.079 263.751 153.907 261.47 154.691C256.518 156.392 257.116 145.247 267.443 142.796Z"/></svg>