<?xml version="1.0" encoding="utf-8" ?><svg xmlns="http://www.w3.org/2000/svg" xmlns:xlink="http://www.w3.org/1999/xlink" width="1024" height="1024" viewBox="0 0 1024 1024"><path fill="currentColor" d="M357.245 107.957C372.866 107.542 374.4 125.117 376.504 136.572C385.609 142.65 404.459 158.45 409.379 168.153C418.964 187.059 426.405 191.448 442.734 204.34C455.615 214.509 469.301 228.562 479.717 241.427C483.692 246.336 487.353 252.647 492.289 256.762C494.76 258.716 500.209 261.494 503.127 263.163C510.203 267.229 517.315 271.233 524.46 275.175C540.258 283.89 557.085 293.876 573.161 301.712C571.734 294.06 569.73 286.263 562.618 281.782C556.206 277.742 548.17 269.745 550.808 261.262C551.446 259.212 554.942 257.364 554.34 255.032C552.497 247.886 548.664 241.475 549.351 233.809C551.04 208.646 597.635 194.085 613.143 214.658C625.165 231.101 630.964 262.299 629.806 282.81C629.348 290.913 623.172 298.124 616.95 302.778C619.051 309.922 625.63 327.146 628.441 334.372C646.917 329.289 670.199 321.408 687.96 313.441C693.138 311.119 701.766 302.48 708.105 299.128C718.389 293.69 727.714 290.065 738.446 285.734C754.128 279.38 769.842 273.109 785.589 266.92C798.043 262.051 810.254 256.526 822.844 252.049C825.778 251.011 830.23 250.259 832.301 253.329C835.244 257.69 831.664 261.884 828.928 264.941C819.751 275.196 809.7 284.232 797.273 290.36C791.627 293.145 785.538 293.594 780.358 297.259C768.897 305.742 757.765 314.597 746.326 323.128C734.822 332.062 721.615 338.383 708.836 345.236C699.807 350.078 690.784 355.063 681.705 359.802C671.447 365.158 661.455 371.423 651.121 376.55C652.186 385.515 652.779 391.559 650.302 400.282C647.676 409.53 640.714 415.92 637.158 423.337C634.165 430.401 631.771 437.448 628.012 444.187C613.394 470.392 589.67 484.813 564.011 498.149C563.969 501.141 564.115 502.729 564.43 505.677C564.077 512.976 565.075 521.357 564.822 529C564.267 559.017 563.512 588.324 561.484 618.306C559.823 642.863 553.998 667.756 552.839 691.961C551.585 718.128 552.822 745.134 552.36 771.366C552.051 788.938 552.302 806.67 552.13 824.248C552.379 836.638 555.064 850.007 555.558 863.339C556.337 877.732 555.364 892.576 556.378 906.857C556.607 910.084 568.188 912.242 567.685 918.821C563.619 925.004 543.613 921.816 536.877 921.435C533.345 921.235 529.756 902.591 527.63 898.091C525.229 892.922 522.139 888.101 518.444 883.761C499.126 861.168 499.802 865.53 508.55 838.238C518.345 807.681 496.677 768.407 492.648 738.329C489.612 715.663 496.766 695.174 498.701 673.007C499.555 622.219 486.181 545.302 464.861 500.24C450.887 491.796 436.23 479.755 423.097 469.753C410.443 460.115 396.059 448.651 383.856 438.433C365.321 422.912 332.876 397.323 319.779 377.607C314.387 369.488 311.622 359.907 311.859 350.163C312.157 335.261 320.971 312.341 323.067 295.79C326.127 269.042 330.529 241.515 333 214.794C335.905 183.374 341.694 154.871 350.704 124.615C352.12 119.857 353.013 110.777 357.245 107.957ZM378.838 148.877C381.141 162.397 383.833 177.691 394.313 187.049C398.934 191.175 404.1 196.156 407.632 201.173C421.779 221.269 434.778 244.098 452.804 261.085C470.464 277.726 491.529 291.844 510.722 306.843C525.168 317.96 542.417 328.968 551.905 344.967C558.089 355.397 553.976 372.095 557.621 383.991C562.598 400.231 565.228 423.938 543.026 428.176C539.007 426.179 534.407 422.948 530.295 420.614C517.102 412.77 503.371 410.363 488.631 415.267C482.08 417.446 476.371 421.519 470.081 423.383C468.554 423.835 455.955 415.734 454.055 414.559L431.077 400.308C417.694 391.976 362.284 358.544 355.981 349.508C354.666 341.616 362.718 329.12 365.727 320.69C368.128 314.091 369.799 307.25 370.71 300.289C371.611 293.182 371.415 289.195 370.404 282.001C367.137 258.751 349.922 226.016 363.725 204.318C368.602 196.652 377.533 194.4 383.952 190.001C380.769 183.699 376.283 177.244 374.328 170.425C369.705 154.301 368.785 136.987 364.122 120.907C363.799 119.792 362.681 118.656 361.655 118.137C357.127 134.566 349.186 161.47 346.619 177.847C340.788 215.062 338.314 254.672 332.445 291.965C331.074 301.186 329.243 310.334 326.959 319.372C324.456 329.354 320.68 340.269 320.256 350.586C319.979 357.325 321.869 363.618 325.192 369.439C338.136 392.118 392.489 434.074 414.887 451.874C426.801 461.343 438.748 470.621 450.995 479.661C457.666 484.586 464.39 489.759 471.489 494.038C476.637 497.14 482.433 500.027 488.258 501.589C516.185 509.075 552.697 495.463 577.061 481.251C595.9 470.262 612.372 456.276 622.164 436.435C625.112 430.462 626.737 423.857 629.893 418.021C634.083 410.271 640.676 404.338 642.971 395.569C645.756 384.929 640.885 371.602 635.386 362.498C628.37 350.884 618.431 345.443 607.888 337.59C599.677 331.475 593.306 322.884 584.566 317.475C579.346 314.245 573.284 312.279 567.843 309.407C550.187 300.089 532.684 290.296 515.283 280.51C506.135 275.365 496.063 270.464 487.555 264.323C479.876 258.78 474.357 248.952 468.308 241.669C463.065 235.356 457.401 229.528 451.512 223.821C439.041 212.5 424.913 202.883 413.352 190.86C409.995 187.37 406.199 179.368 403.285 175.075C397.666 166.799 388.742 157.189 381.017 150.718C380.294 150.101 379.568 149.487 378.838 148.877ZM364.277 345.946C372.82 352.827 382.899 359.08 392.173 365.063C409.225 376.018 426.376 386.817 443.624 397.46C451.718 402.481 462.507 408.669 470.169 413.991C484.368 406.038 500.291 400.576 516.665 405.268C517.073 405.386 517.48 405.513 517.882 405.65C528.065 408.647 535.578 413.871 544.922 418.194C547.957 419.598 551.896 409.788 551.886 407.781C553.974 398.648 549.562 391.34 548.477 382.505C547.823 376.755 547.295 370.991 546.893 365.218C546.442 357.961 547.19 353.457 542.793 347.187C532.926 333.119 517.725 323.444 504.157 313.262C493.225 305.038 482.357 296.732 471.552 288.343C460.946 280.131 452.355 274.091 442.964 264.299C433.465 254.395 426.787 244.616 418.957 233.873C412.358 224.82 398.638 201.518 390.59 196.084C381.773 202.194 369.56 204.853 368.032 217.494C364.516 246.58 384.685 274.239 379.133 303.685C377.336 313.215 374.982 321.988 370.945 330.88C368.975 335.399 365.765 341.533 364.277 345.946ZM477.731 507.449C479.72 511.607 482.957 522.692 484.504 527.61C495.921 564.286 503.303 602.097 506.519 640.373C507.444 651.691 508.276 663.025 507.577 674.322C506.334 694.406 498.341 717.114 501.448 737.343C506.74 771.799 528.131 805.331 517.113 841.442C513.55 853.123 508.599 852.572 514.237 865.687L514.671 866.258C517.769 870.294 522.063 874.527 525.511 878.439C535.051 889.266 537.87 899.91 541.651 913.454C544.228 913.718 546.223 914.021 548.822 913.833L548.611 912.962C546.962 906.006 547.55 895.855 547.383 888.398C547.072 878.079 546.664 867.762 546.161 857.45C545.698 849.14 543.908 839.385 543.774 831.366C543.373 807.436 543.667 783.188 543.686 759.24L543.824 713.341C543.911 694.412 543.817 679.76 547.593 661.014C549.427 651.908 550.73 638.558 551.628 629.268C555.174 588.581 556.672 547.742 556.115 506.905C556.092 504.989 556.446 502.916 555.262 501.873L554.33 502.04C529.209 510.525 503.825 517.574 477.731 507.449ZM580.55 294.831L582.807 304.625C587.758 308.84 593.232 312.385 598.276 316.661C604.847 322.232 610.845 328.75 617.966 333.492L618.299 333.709C616.366 327.214 610.831 310.579 607.944 304.724C597.115 303.277 589.841 300.919 580.55 294.831ZM588.642 213.686C576.592 214.83 556.113 222.691 557.909 237.899C558.752 245.046 563.494 251.882 566.59 258.224C564.062 260.129 561.579 262.093 559.145 264.117C563.177 272.899 581.77 286.223 590.315 290.731C599.887 295.398 615.006 300.41 619.512 287.279C624.931 271.486 617.638 244.713 612.116 229.788C608.431 219.831 599.088 212.841 588.642 213.686ZM818.388 263.111C796.671 271.512 775.064 280.192 753.57 289.149C741.318 294.123 714.939 303.072 706.19 310.582C683.342 330.195 659.296 332.439 632.034 343.38C635.932 348.205 639.419 352.2 642.403 357.636C644.52 361.287 646.189 364.446 648.074 368.225C674.952 353.339 702.699 338.484 729.779 323.961C743.8 316.442 758.801 301.233 772.222 292.199C775.329 289.822 778.461 287.148 781.606 284.888C792.58 285.504 804.113 276.41 812.416 269.834C813.739 268.786 817.932 264.723 818.388 263.111Z"/></svg>