<?xml version="1.0" encoding="utf-8" ?><svg xmlns="http://www.w3.org/2000/svg" xmlns:xlink="http://www.w3.org/1999/xlink" width="1024" height="1024" viewBox="0 0 1024 1024"><path fill="currentColor" transform="scale(2 2)" d="M249.35 62.4942C355.944 58.7555 445.423 142.063 449.299 248.653C453.174 355.243 369.982 444.828 263.397 448.841C156.619 452.861 66.8345 369.484 62.9518 262.7C59.0691 155.917 142.561 66.2397 249.35 62.4942ZM258.381 442.617C361.518 441.341 444.125 356.757 442.962 253.618C441.799 150.48 357.305 67.7803 254.166 68.8301C150.866 69.8816 68.0095 154.535 69.1744 257.834C70.3393 361.132 155.084 443.896 258.381 442.617Z"/><path fill="currentColor" transform="scale(2 2)" d="M249.653 106.891C331.536 103.38 400.781 166.871 404.368 248.751C407.956 330.631 344.528 399.935 262.652 403.598C180.668 407.266 111.253 343.737 107.661 261.75C104.069 179.763 167.662 110.407 249.653 106.891ZM260.896 397.372C339.366 394.683 400.815 328.918 398.18 250.446C395.544 171.975 329.821 110.481 251.348 113.063C172.799 115.648 111.233 181.448 113.871 259.995C116.509 338.542 182.351 400.063 260.896 397.372Z"/><path fill="currentColor" transform="scale(2 2)" d="M253.957 153.319C264.883 152.226 276.591 160.511 278.417 171.363C279.436 177.424 278.862 186.035 278.856 192.357L278.871 232.491L335.597 232.465C364.381 232.714 367.76 272.472 341.686 277.779C337.99 278.531 333.256 278.269 329.426 278.263L290.56 278.251C286.739 278.259 282.635 278.468 278.871 278.249C279.018 291.563 278.991 304.92 278.867 318.232C278.683 337.973 282.753 351.58 260.438 359.246C242.429 361.943 233.351 347.833 233.242 331.786C233.122 313.954 233.438 296.075 233.254 278.249C216.938 278.248 197.344 277.816 181.305 278.245C145.304 280.349 144.122 231.087 180.679 232.414C197.525 233.026 216.237 231.943 233.254 232.491C233.533 228.493 233.267 221.906 233.264 217.696L233.249 188.566C233.176 171.573 233.221 156.297 253.957 153.319ZM239.056 238.504C234.719 238.106 230.754 238.466 226.447 238.49L188.13 238.485C180.312 238.422 172.449 236.946 166.067 242.181C154.156 251.95 161.047 271.723 176.304 272.134C183.473 272.343 190.829 272.259 198.09 272.259L239.056 272.254L239.107 317.941C239.151 325.041 238.371 332.933 239.869 339.923C241.649 348.233 250.199 354.81 258.808 352.955C276.735 349.524 273.016 330.245 273.014 316.469L273.006 272.254C277.557 272.406 282.61 272.256 287.224 272.252L328.919 272.274C335.6 272.339 342.833 273.217 348.096 268.117C359.873 256.702 351.703 238.354 335.596 238.445C315.205 238.561 293.245 239.308 273.006 238.504L273.012 182.537C273.044 170.418 268.813 157.52 253.957 159.354C235.33 163.137 239.037 181.333 239.043 195.65L239.056 238.504Z"/></svg>