<?xml version="1.0" encoding="utf-8" ?><svg xmlns="http://www.w3.org/2000/svg" xmlns:xlink="http://www.w3.org/1999/xlink" width="1024" height="1024" viewBox="0 0 1024 1024"><path fill="currentColor" d="M131.215 310.554C142.146 309.523 147.73 318.002 155.634 324.413C162.471 330.968 170.306 336.636 177.388 342.797C197.474 360.272 216.597 369.518 241.004 379.786C251.325 384.225 261.723 388.482 272.193 392.554C288.063 398.601 304.526 404.286 319.382 412.512C332.508 419.954 342.459 430.645 352.405 441.677C357.609 447.448 372.641 450.273 380.332 452.102C413.862 460.074 448.791 464.648 483.283 463.241C503.23 462.428 522.422 457.659 542.28 461.428C564.121 465.267 582.241 472.667 601.995 482.38C609.434 486.038 619.602 490.979 627.286 493.522C630.371 494.542 640.252 494.886 644.134 495.079C665.441 496.055 686.792 495.192 707.951 492.502C730.698 489.807 747.423 483.481 771.374 487.468L771.934 487.566C773.08 483.29 774.287 479.03 775.556 474.789C783.263 449.888 806.729 396.478 840.738 406.726C848.392 409.032 853.039 416.321 856.341 423.148C859.164 423.789 862.618 424.478 865.321 425.399C892.803 434.765 908.489 469.866 901.33 497.206C900.662 499.758 898.136 500.751 896.005 501.679C891.027 520.165 884.589 517.634 872.376 529.138C865.647 535.477 870.068 544.16 857.545 547.009C854.739 546.178 850.37 544.762 847.521 544.73C837.593 544.618 832.441 550.855 821.636 549.042C813.078 547.607 806.521 534.927 801.739 533.82C795.732 532.429 771.972 545.521 765.678 548.806C762.449 560.779 754.533 591.905 754.784 603.415C755.091 617.474 758.68 641.72 760.23 656.932C775.908 657.423 792.236 658.687 808.009 659.137C814.848 659.332 823.016 660.63 829.74 660.69C840.789 660.787 847.128 655.35 859.168 658.266C867.368 659.889 874.342 665.394 878.991 672.274C881.945 676.646 881.428 682.139 876.002 684.416C872.388 685.933 866.861 685.71 862.874 685.993C857.009 686.409 850.806 686.863 844.94 686.488C840.992 686.126 835.505 682.881 831.257 683.341C825.239 683.992 819.336 685.776 813.299 686.759C794.436 689.764 775.487 692.21 756.479 694.091C736.728 695.942 726.678 699.474 717.069 678.312C707.045 676.315 697.197 673.52 687.62 669.952C632.053 649.257 638.725 623.86 651.352 574.147C638.955 575.862 619.928 579.473 607.844 582.688C588.531 588.225 569.852 597.003 551.039 603.556C488.693 625.272 421.274 628.331 356.027 622.067C336.915 620.232 314.458 620.491 295.043 620.861C274.521 621.298 254.031 622.733 233.648 625.159C224.634 626.26 204.941 629.736 196.939 629.877C190.242 635.114 178.885 647.065 173.233 653.958C164.399 664.947 160.819 681.725 148.5 689.458C142.243 693.385 136.439 689.103 133.696 683.127C128.414 671.62 130.091 656.944 136.113 646.05C141.678 637.536 145.499 631.635 148.89 622.042C151.994 613.26 147.366 593.756 158.004 590.506C170.441 586.707 185.526 593.759 196.576 598.743C206.184 596.737 218.589 592.248 228.025 589.142C243.703 584.035 259.422 579.058 275.183 574.213C303.247 565.82 333.778 559.742 360.961 574.404C378.482 569.241 395.717 562.165 413.268 556.954C429.059 552.265 444.76 547.213 460.422 542.11C422.843 531.829 388.104 520.578 354.236 500.721C331.039 487.121 310.519 471.014 288.725 455.426C260.931 435.746 232.876 416.438 204.566 397.508C199.404 394.065 194.605 390.782 188.961 387.491C168.235 375.405 136.195 366.647 124.71 344.3C118.747 332.697 117.512 316.679 131.215 310.554ZM553.184 594.644C564.21 590.965 576.329 584.728 587.346 581.574C591.976 579.679 596.504 578.487 600.905 576.74C594.82 556.108 590.835 534.914 589.01 513.482C588.083 503.522 587.865 493.532 586.811 483.543C566.936 475.295 544.062 466.997 522.521 467.599C514.827 467.815 505.289 469.199 497.376 469.907C484.554 471.075 471.67 471.421 458.804 470.942C419.924 469.51 387.113 462.715 350.15 451.574C341.485 441.887 336.604 434.62 325.827 426.496C309.608 414.27 293.501 409.082 275.043 402.045C265.385 398.263 255.757 394.406 246.159 390.475C230.773 384.278 209.055 375.333 195.252 366.184C181.331 356.473 168.143 345.711 155.216 334.726C149.351 329.742 143.738 324.534 137.849 319.587C136.412 318.38 135.046 318.405 133.256 318.462C130.571 319.646 129.857 319.907 128.792 322.749C126.961 327.636 129.562 336.734 131.839 341.277C133.641 344.93 136.091 348.226 139.07 351.004C146.692 357.981 171.542 370.282 181.813 375.197C199.109 383.475 210.646 392.138 226.6 402.793C250.522 418.899 274.196 435.37 297.614 452.199C317.114 466.227 337.3 481.551 358.028 493.514C405.563 520.948 461.763 538.723 516.38 543.689C536.944 545.559 530.259 541.837 538.163 561.979C541.627 570.804 547.758 587.326 553.184 594.644ZM361.164 582.873C353.351 580.42 346.953 575.737 338.37 574.429C304.133 569.208 273.095 583.997 240.838 593.218C227.82 596.939 205.914 606.659 192.079 604.971C186.409 604.279 160.582 588.656 158.087 602.555C157.637 611.596 158.487 616.714 155.224 626.624C149.917 642.739 134.673 655.301 138.394 673.409C139.052 676.642 139.85 681.592 142.987 683.261C149.024 683.575 155.374 669.378 157.854 664.728C160.272 660.196 162.602 656.222 165.494 651.94C172.625 643.199 180.581 632.594 189.19 625.531C193.419 622.062 207.352 620.923 213.298 620.133C224.264 618.646 235.249 617.305 246.251 616.11C277.615 613.226 309.125 612.24 340.608 613.158C350.268 613.492 359.728 615.084 369.301 615.805C426.858 620.139 491.059 616.472 545.97 597.477C537.08 582.049 532.32 569.572 526.969 552.6C509.909 550.994 491.039 549.187 474.279 545.605C449.593 554.255 423.925 561.697 398.98 569.831C390.96 572.405 382.976 575.092 375.031 577.891C371.328 579.22 364.705 581.956 361.164 582.873ZM594.535 487.917C596.525 512.064 598.44 535.465 604.02 559.147C605.172 564.037 606.315 569.924 608.248 574.436C618.886 572.443 629.512 570.387 640.125 568.267C646.357 566.971 654.849 564.751 660.883 564.002C667.94 571.87 673.988 580.992 684.659 584.054C693.945 586.595 697.216 585.949 706.552 584.187C706.419 571.22 703.436 558.877 703.989 545.736C704.676 529.387 715.475 513.475 728.254 503.881C737.977 496.581 751.194 502.453 758.521 510.318C766.337 518.598 767.759 527.591 767.484 538.674C776.536 535.223 795.962 523.435 804.959 526.142C809.732 527.578 816.96 539.484 821.508 540.829C830.373 543.452 840.606 535.689 849.689 536.794C853.242 537.227 855.64 538.152 858.902 539.213C860.421 535.357 863.168 527.53 865.692 524.707C875.052 514.237 885.102 515.157 889.102 499.815C872.858 495.819 856.756 492.822 841.049 486.852C837.996 485.692 834.495 484.509 831.387 483.556C820.425 488.036 809.785 493.317 797.98 495.198C782.164 497.718 766.97 493.304 751.212 494.026C736.822 494.684 722.502 498.178 708.24 500.132C688.064 502.896 636.18 506.444 618.378 498.942C610.382 495.572 602.673 490.798 594.535 487.917ZM712.608 645.234C706.507 641.805 699.29 636.506 693.206 633.518C679.779 626.923 683.026 620.947 685.996 608.622C687.218 603.549 688.497 598.25 689.89 593.216C679.271 590.688 673.467 589.06 665.482 580.91C664.245 579.647 660.253 575.105 659.289 574.265C654.698 588.547 649.339 613.622 650.879 628.362C653.315 651.675 694.742 666.394 714.871 669.903L715.709 669.801C715.88 665.807 713.619 649.256 712.608 645.234ZM779.624 488.537C783.781 488.978 786.488 488.708 790.688 488.428C791.234 486.01 791.908 483.372 792.222 480.933C794.824 469.583 797.958 459.963 805.116 450.504C815.884 436.272 830.59 425.94 848.568 423.771C843.008 414.813 838.336 412.919 827.817 413.624C802.674 420.77 785.877 465.368 779.624 488.537ZM850.652 431.192C835.23 432.939 822.405 441.905 812.771 453.782C804.207 464.341 801.476 474.538 798.9 487.509C823.426 482.325 821.293 470.148 846.881 480.632C860.564 485.304 880.867 491.048 895.24 492.718C897.333 477.522 893.384 462.111 884.242 449.795C876.533 439.622 864.116 429.987 850.652 431.192ZM698.348 593.054C695.388 600.358 691.809 615.225 691.264 623.296L703.786 630.372C706.151 631.794 709.231 633.522 711.48 635.008C711.562 628.676 709.195 597.209 707.697 591.734C706.519 591.491 706.944 591.459 705.807 591.657C703.286 592.074 700.828 592.434 698.348 593.054ZM873.473 677.59C869.276 670.744 864.154 667.771 856.375 665.391C849.428 663.267 839.298 668.216 832.375 668.049C820.591 667.765 808.286 666.952 796.499 666.152C783.766 665.288 766.37 666.203 754.165 664.131C752.716 659.022 751.138 643.385 750.496 637.185C749.377 626.367 746.89 611.434 747.082 600.883C747.714 590.956 750.422 581.012 752.242 571.345C754.758 557.983 760.394 543.322 759.78 529.802C759.312 519.518 747.516 507.759 736.896 508C721.939 515.52 710.446 535.34 711.62 552.076C712.772 568.507 714.711 584.766 716.261 601.16L720.54 646.094C721.357 654.037 721.975 662.068 723.323 669.938C723.939 673.533 724.847 677.253 726.491 680.531C728.06 683.66 731.22 686.57 734.544 687.737C740.118 689.696 795.8 681.821 804.856 680.359C813.161 679.019 821.702 676.705 830.037 675.886C837.312 675.172 843.559 679.544 850.61 679.475C858.38 678.4 866.555 678.718 873.473 677.59Z"/></svg>