<svg xmlns="http://www.w3.org/2000/svg" width="1024" height="1024" viewBox="0 0 1024 1024"><path fill="currentColor" d="M447.759 169.106C464.448 168.116 482.792 169.382 499.674 169.005C514.127 169.384 529.135 168.189 543.474 169.833C555.133 171.17 563.89 183.182 563.818 194.32C563.764 202.584 565.191 215.389 563.268 222.975C562.364 226.615 560.597 229.983 558.118 232.797C551.078 240.722 541.975 241.627 532.251 242.091C531.783 246.444 531.809 277.423 532.459 281.707C568.997 286.717 604.178 298.924 635.966 317.623C641.607 320.972 649.167 325.294 654.109 329.44C659.224 325.757 671.744 313.133 676.167 308.201C668.548 298.6 662.173 289.667 666.574 276.492C667.531 273.678 668.97 271.053 670.828 268.733C675.745 262.541 687.388 252.306 693.295 245.909C696.54 242.394 705.152 232.991 708.232 230.185C710.319 228.285 712.683 226.713 715.242 225.524C721.696 222.559 730.479 222.077 737.176 224.834C739.776 225.904 742.406 227.926 744.55 229.742C758.603 241.643 772.514 256.326 785.861 269.207C792.997 276.094 801.169 282.429 807.789 289.763C811 293.321 813.88 297.72 815.74 302.142C818.714 309.214 817.946 316.988 814.954 323.903C812.408 329.785 782.744 360.524 776.278 365.813C773.122 368.353 769.582 370.373 765.79 371.799C754.745 375.917 746.197 371.915 736.366 367.443C729.888 374.333 722.984 380.562 716.547 387.481C811.001 508.795 800.404 671.116 689.448 778.066C640.837 822.305 587.274 848.159 521.338 854.672C446.553 862.195 371.874 839.406 314.032 791.408C254.097 742.772 216.291 672.036 209.153 595.182C202.213 519.027 225.462 443.193 273.892 384.014C313.646 335.794 366.141 301.098 427.196 286.677C435.772 284.651 446.761 282.169 455.478 281.331C456.059 270.685 455.411 253.353 455.461 242.071C448.535 241.986 442.956 242.153 436.673 238.552C430.769 235.142 426.524 229.456 424.934 222.826C423.058 215.321 423.6 197.982 424.71 189.998C426.383 177.976 436.714 171.328 447.759 169.106ZM217.927 538.315L216.968 538.573C216.217 542.613 214.961 546.877 215.474 550.98C216.635 560.249 212.963 590.385 217.868 596.182C233.111 743.104 360.72 852.37 508.237 844.813C655.754 837.256 771.529 715.522 771.679 567.812C771.829 420.101 656.302 298.133 508.801 290.276C361.299 282.419 233.469 391.425 217.927 538.315ZM689.777 306.936C700.555 316.751 711.153 328.329 722.276 338.056C725.988 341.302 729.152 345.062 733.13 348.228C752.659 328.749 773.746 308.267 792.499 288.165C785.684 281.5 777.608 274.828 770.49 267.991C764.731 262.459 754.68 252.226 748.704 247.541C744.029 251.315 736.834 259.454 732.217 264.188C723.268 273.366 714.267 282.493 705.214 291.568C700.038 296.785 695.237 302 689.777 306.936ZM682.766 300.495L686.377 296.597C700.867 280.833 716.473 266.265 731.194 250.729C734.449 247.294 738.517 243.602 741.505 240.067C737.942 234.821 732.294 232.397 725.997 233.2C723.264 233.527 718.912 234.056 716.855 235.924C709.65 242.466 702.67 250.286 695.797 257.243C689.474 263.645 682.562 269.552 676.879 276.348C675.078 278.503 674.499 285.107 675.156 288.023C676.398 293.528 678.909 296.745 682.766 300.495ZM521.624 280.031L522.788 279.874C523.161 267.818 522.93 254.336 523.016 242.162C507.263 241.238 491.164 241.853 475.369 241.611C471.817 241.557 468.179 241.586 464.629 241.736C464.875 254.689 464.676 267.108 464.818 279.87C481.363 278.742 496.899 277.883 513.459 279.571C516.047 279.835 519.051 280.052 521.624 280.031ZM549.235 228.164C554.87 221.351 554.724 216.962 554.576 208.343C554.471 202.225 554.674 195.946 554.375 189.829C547.526 179.113 542.874 178.208 530.489 178.513C530.203 179.929 530.79 230.858 531.136 232.428C537.954 232.478 543.772 233.102 549.235 228.164ZM465.77 231.973C479.858 232.937 505.904 232.202 520.432 232.017C521.457 230.476 521.175 184.819 520.873 178.657C505.193 177.934 482.038 178.276 466.059 178.579C465.617 193.54 466.049 208.516 465.758 223.481C465.703 226.313 465.554 229.146 465.77 231.973ZM456.467 178.523C453.438 178.455 450.717 178.347 447.69 178.597C436.82 181.454 433.011 190.277 433.438 200.528C433.683 206.396 432.712 214.962 434.205 220.476C435.309 224.647 438.075 228.183 441.857 230.259C442.546 230.63 443.132 230.881 443.851 231.194C448.568 232.4 450.986 232.487 455.901 232.352C456.667 225.766 456.464 217.493 456.47 210.742L456.467 178.523ZM683.228 314.466C678.945 318.271 666.589 331.031 663.09 335.392C673.72 342.092 689.537 358.257 698.654 367.127C701.735 370.124 707.668 376.705 710.771 378.974C712.185 378.789 727.246 362.547 729.724 360.008C723.441 352.165 709.152 339.228 701.837 331.923C697.782 327.874 687.261 317.784 683.228 314.466ZM739.288 356.345C743.312 359.119 745.934 360.783 750.544 362.574C755.311 363.952 761.319 364.706 765.636 361.308C779.657 350.271 791.936 336.082 804.076 323.037C810.829 315.781 806.929 297.456 799.271 295.962C793.287 300.462 784.071 311.042 778.302 316.674C765.134 329.526 752.372 343.51 739.288 356.345Z"/><path fill="currentColor" d="M482.198 337.539C610.521 330.769 720.004 429.375 726.649 557.705C733.293 686.034 634.579 795.42 506.243 801.938C378.086 808.447 268.885 709.901 262.25 581.749C255.614 453.598 354.054 344.301 482.198 337.539ZM485.565 346.23C433.152 349.351 382.484 368.261 344.806 405.604C349.554 409.273 366.856 424.115 367.456 429.479C367.598 430.75 367.458 431.821 366.585 432.815C365.74 433.777 364.612 434.056 363.381 434.01C358.269 433.82 342.839 416.028 338.358 411.65C299.376 449.701 273.22 505.187 272.496 559.919C272.477 561.087 272.515 562.255 272.609 563.419L273.296 563.479C278.588 563.908 299.621 561.9 302.574 565.904C303.274 566.853 303.628 568.123 303.283 569.28C302.826 570.813 301.36 571.694 299.943 572.196C294.331 574.186 279.283 572.821 272.485 573.185C272.181 578.878 272.828 584.929 273.25 590.772C276.477 635.485 294.262 678.448 323.352 712.514C325.144 714.612 329.408 719.117 331.513 720.766C339.423 713.536 346.39 705.307 354.398 698.229C356.11 696.716 360.087 696.952 361.148 698.764C364.166 703.917 354.888 711.311 351.83 714.443C346.909 719.482 342.113 723.751 337.619 728.889C378.123 768.591 432.164 792.542 489.128 792.558C489.68 787.243 489.259 781.439 489.192 776.07C489.123 770.585 489.147 760.682 497.624 765.15C500.646 772.163 498.365 784.499 499.135 792.522C508.268 792.541 514.688 791.646 523.689 790.404C567.424 784.267 608.449 765.603 641.81 736.664L641.373 736.161C639.222 733.736 605.967 706.253 626.209 708.326C627.705 708.479 644.115 726.665 649.24 730.038C656.475 722.35 665.306 713.001 671.681 704.749C694.786 674.45 709.668 638.693 714.883 600.948C716.24 591.391 716.692 582.122 717.275 572.488C706.885 571.989 696.508 572.366 686.133 572.169C682.965 572.108 681.741 568.54 682.099 566.049C682.768 561.388 691.146 562.296 694.361 562.24C701.852 562.109 709.477 562.677 716.921 562.363C714.915 502.11 688.55 445.249 643.857 404.788C604.204 368.181 552.544 347.321 498.59 346.129L498.553 346.887C498.286 352.976 501.173 378.063 496.894 381.608C495.991 382.355 494.709 382.761 493.54 382.621C492.229 382.464 491.262 381.59 490.619 380.493C487.218 374.692 489.729 353.805 489.31 346.204C488.098 346.222 486.764 346.274 485.565 346.23Z"/><path fill="currentColor" d="M637.748 416.911C644.312 416.843 646.905 421.313 641.672 426.465C635.269 432.767 628.856 439.09 622.489 445.43C608.948 459.135 595.308 472.741 581.569 486.247L542.945 524.742C535.075 532.574 529.471 538.714 521.044 546.278C524.585 549.825 527.32 555.617 528.713 560.406C535.691 584.396 517.267 607.623 492.272 606.164C483.725 605.665 480.11 604.244 472.478 599.879C470.538 602.206 464.248 607.977 461.684 610.497C455.555 616.602 449.469 622.748 443.424 628.936C437.126 631.634 433.87 624.969 437.139 621.359C446.01 611.559 455.899 602.663 465.043 593.068C462.466 589.398 460.438 585.372 459.025 581.117C448.248 547.733 482.486 522.275 513.904 539.372C520.612 534.162 536.23 517.828 542.453 511.584L598.918 455.238C607.083 446.912 615.32 438.654 623.626 430.468C627.493 426.631 633.748 420.094 637.748 416.911ZM497.769 596.314C512.306 594.008 522.218 580.352 519.907 565.817C517.597 551.282 503.938 541.373 489.403 543.689C474.875 546.003 464.972 559.655 467.282 574.183C469.592 588.712 483.24 598.619 497.769 596.314Z"/><path fill="currentColor" d="M217.868 596.182C212.963 590.385 216.635 560.249 215.474 550.98C214.961 546.877 216.217 542.613 216.968 538.573L217.927 538.315C215.891 557.549 215.872 576.944 217.868 596.182Z"/></svg>