<?xml version="1.0" encoding="utf-8" ?><svg xmlns="http://www.w3.org/2000/svg" xmlns:xlink="http://www.w3.org/1999/xlink" width="1024" height="1024" viewBox="0 0 1024 1024"><path fill="currentColor" d="M346.31 113.7C356.356 112.561 369.19 116.489 375.384 125.056C379.706 131.114 382.723 137.941 385.649 144.75C393.308 162.575 401.881 179.99 409.643 197.769C413.99 207.725 418.799 217.478 422.967 227.511C436.294 221.498 446.18 214.761 461.237 215.785C486.87 217.529 493.142 236.566 502.278 256.825C507.465 267.095 512.517 277.405 511.404 289.319C510.208 302.121 505.327 309.632 495.748 317.823L530.805 399.266C536.092 411.516 541.771 423.7 546.727 436.058C549.821 443.774 547.575 455.666 546.515 463.962C541.563 502.734 523.719 542.931 495.386 570.264C499.862 580.323 504.415 590.348 509.046 600.337C512.591 607.975 517.147 617.257 519.984 625.01C517.413 631.987 504.636 659.679 500.893 664.104C499.262 666.033 497.074 667.092 494.868 668.222C502.97 689.574 513.758 715.697 523.001 737.67C542.462 781.917 559.073 843.18 601.729 870.581C633.965 889.231 676.522 875.59 707.255 860.206C730.29 848.676 752.263 831.327 761.683 807.203C769.614 786.892 768.306 766.23 764.805 745.323C755.363 688.94 732.323 627.572 763.746 573.583C780.698 543.924 810.627 524.824 842.523 513.762C856.265 508.995 867.42 527.821 857.373 537.947C853.827 541.521 846.468 543.587 841.883 545.825C751.21 582.511 778.546 660.403 792.87 733.031C797.061 760.714 800.397 785.017 791.217 812.379C773.517 865.138 722.102 891.662 672.319 905.798C574.861 933.473 536.401 848.634 506.222 775.088L478.854 707.531C475.416 699.088 471.368 688.34 467.452 680.44C463.109 682.128 458.9 683.9 454.359 684.965C450.453 683.451 444.214 680.383 440.262 678.57C434.504 675.929 424.658 672.316 419.677 668.969C411.61 654.852 405.638 638.757 398.432 624.155C396.891 621.032 395.341 617.685 394.006 614.48C380.276 614.758 368.957 614.84 352.741 611.89C322.848 606.452 289.829 588.973 267.444 568.284C265.113 566.13 256.802 544.654 254.912 540.255L227.052 475.326L218.144 454.071C216.654 450.444 214.317 443.656 212.174 440.645C187.826 433.512 184.122 426.191 174.768 402.725C172.451 396.912 169.343 390.883 167.145 384.902C163.43 374.573 164.004 363.187 168.738 353.284C174.899 340.342 184.655 335.226 197.357 330.201C201.908 328.401 206.363 326.289 211.041 324.665C208.513 316.511 202.433 303.491 198.933 295.446L177.625 246.737C174.131 238.853 167.098 224.412 165.563 216.442C164.393 210.321 164.952 203.995 167.178 198.174C170.337 189.985 176.619 183.385 184.643 179.828C193.414 175.943 203.375 175.728 212.305 179.232C225.656 184.616 230.11 195.663 235.49 207.98C238.306 214.425 241.1 220.934 243.944 227.367C253.943 249.792 263.816 272.274 273.562 294.81C283.679 290.898 296.14 284.444 306.373 280.011C324.601 272.115 342.488 263.952 360.237 255.021C346.748 222.907 330.471 190.764 317.362 158.387C316.606 156.52 315.797 153.031 315.607 151.058C314.654 141.66 317.512 132.272 323.542 125C329.654 117.699 337.034 114.589 346.31 113.7ZM220.83 440.693C231.394 466.628 242.264 492.438 253.439 518.116C258.368 529.614 265.219 547.038 270.774 557.754L271.609 558.045C287.505 552.166 308.771 541.616 324.956 534.519C371.659 514.241 418.209 493.614 464.603 472.64C487.616 462.356 517.183 447.885 540.085 439.319C537.116 431.31 532.618 421.91 529.169 413.946L508.802 366.495C506.614 361.395 491.747 324.83 489.853 322.606L489.57 322.485C466.51 331.425 440.061 344.436 417.173 354.842L294.615 410.161L259.273 426.062C246.156 431.972 235.081 437.826 220.83 440.693ZM427.003 236.483C429.082 240.512 430.955 246.173 433.126 249.762C444.137 267.965 442.911 292.202 421.441 303.208C413.018 307.527 403.204 308.247 394.24 305.204C377.114 299.378 370.502 279.924 364.454 264.48C356.112 267.689 281.901 300.524 278.209 303.941C276.259 311.354 297.037 329.152 286.337 352.672C283.489 358.933 278.968 363.881 273.036 367.358C264.811 372.277 254.932 373.62 245.693 371.073C225.102 365.407 223.74 349.319 215.181 333.463C200.299 339.129 183.365 343.328 176.632 358.968C175.347 361.952 173.97 366.369 173.913 369.577C173.787 381.427 187.251 411.712 195.273 420.91C213.034 441.275 239.196 423.276 258.585 414.263L298.064 396.16L388.588 355.075C408.62 345.982 428.713 337.025 448.866 328.204C461.91 322.579 475.046 317.126 487.98 311.278C493.776 308.657 496.968 303.816 499.409 298.286C503.946 288.005 501.979 277.458 497.177 267.715C494.742 262.777 492.539 257.628 490.085 252.693C488.162 248.824 486.583 244.225 484.449 240.518C482.851 237.796 480.877 235.314 478.585 233.143C473.026 227.968 465.21 224.875 457.594 225.211C447.357 226.047 436.037 231.598 427.003 236.483ZM422.894 662.695C426.422 664.308 430.021 666.006 433.592 667.495L455.223 677.221C469.594 671.634 481.971 665.654 495.9 659.432C499.138 652.562 502.433 645.72 505.785 638.905C507.485 635.42 513.265 625.929 510.873 622.591C501.561 625.312 492.677 630.563 483.713 634.559C469.979 640.577 456.328 646.784 442.765 653.178C436.922 655.904 428.281 659.66 422.894 662.695ZM420.656 650.804C426.662 648.559 434.281 644.768 440.243 642.018L467.218 629.727C476.498 625.454 499.298 615.687 506.261 610.818C505.147 608.432 502.086 601.177 500.01 599.917L499.114 599.913C471.849 612.596 440.457 626.229 413.988 639.479C415.719 643.439 416.788 646.926 418.957 650.665C420.052 651.039 419.486 650.986 420.656 650.804ZM408.386 628.883C435.777 619.178 468.402 600.367 496.2 589.167C495.245 586.935 490.812 575.962 489.591 575.439C462.921 595.998 435.683 610.181 401.545 613.727C403.839 618.09 406.593 624.288 408.386 628.883ZM480.243 691.509C488.617 713.365 498.617 736.573 507.484 758.554C527.051 807.06 551.469 873.629 602.429 896.854C633.977 911.232 669.824 900.19 700.281 888.512C732.134 876.398 767.573 850.803 781.208 818.696C809.744 750.489 757.543 680.98 772.894 610.855C781.513 571.482 810.655 549.446 846.61 535.818C854.719 532.744 856.441 529.413 851.835 521.898C849.916 521.397 847.388 520.621 845.471 520.529C813.306 531.204 782.893 551.723 767.415 582.183C735.316 644.472 774.315 711.89 775.311 775.751C776.187 831.945 728.466 862.529 682.293 878.868C588.438 912.079 556.571 841.902 527.669 768.974C515.317 737.803 501.234 702.627 487.855 671.618C483.459 673.502 478.822 675.59 474.404 677.354C476.16 682.05 478.286 686.873 480.243 691.509ZM345.585 123.095C326.946 127.501 320.492 143.461 328.065 160.112C329.964 164.287 331.819 168.662 333.709 172.865L349.806 208.626L370.099 254.27C374.338 264.047 378.35 273.835 383.04 283.408C387.96 293.451 399.083 299.173 410.119 297.087C422.628 294.006 434.192 282.097 430.32 268.434C427.577 258.753 421.656 247.333 417.436 237.936L392.846 183.486L378.809 151.919C374.823 142.945 371.119 130.968 362.069 126.404C356.352 123.522 351.966 122.515 345.585 123.095ZM198.536 186.188C187.232 187.388 178.026 193.117 174.669 204.864C174.103 206.842 173.792 210.939 173.888 213.142C181.424 233.68 191.029 253.871 199.765 274.011L220.611 322.047C225.69 333.718 230.849 350.946 241.287 358.526C246.397 362.237 250.921 362.754 256.987 362.571C263.51 362.079 269.918 359.217 274.062 354.165C281.388 345.234 281.567 336.672 277.233 326.683C272.84 316.56 268.551 306.688 264.165 296.714L243.584 249.835C236.535 234.022 229.833 218.077 222.454 202.421C217.382 191.66 210.463 186.867 198.536 186.188ZM300.967 583.63C309.019 588.196 316.001 592.087 324.605 595.651C355.896 608.64 390.605 610.906 423.319 602.097C463.487 591.174 497.59 564.587 517.983 528.299C529.12 508.538 535.42 487.611 539.106 465.34C539.809 461.094 541.22 452.342 541.06 448.074L540.191 448.02C527.136 452.345 507.854 461.552 494.724 467.454L411.795 504.953L323.082 544.06L296.277 555.827C289.92 558.565 281.571 561.882 275.569 565.169C285.031 573.104 290.575 577.024 300.967 583.63Z"/></svg>