<?xml version="1.0" encoding="utf-8" ?><svg xmlns="http://www.w3.org/2000/svg" xmlns:xlink="http://www.w3.org/1999/xlink" width="1024" height="1024" viewBox="0 0 1024 1024"><path fill="currentColor" d="M808.41 116.668C816.738 115.356 830.866 118.261 838.638 121.646C864.989 133.126 875.061 157.091 863.152 183.65C864.393 188.85 868.778 199.058 866.166 203.706C864.367 206.907 858.726 207.966 855.289 208.86C851.858 214.419 850.298 220.594 846.772 226.177C839.855 237.133 826.033 231.919 817.66 225.689C813.428 234.321 810.047 240.792 805.125 249.066C816.027 269.974 815.363 305.142 803.578 325.786C797.044 337.23 784.403 344.983 775.817 354.934C752.299 382.192 729.348 410.886 704.846 437.227C719.434 476.608 714.055 521.728 705.653 561.997C703.551 572.071 698.32 584.623 698.328 594.729C698.34 609.251 694.377 620.892 690.33 634.557C689.387 637.879 688.626 646.652 688.05 650.512C685.361 668.131 683.131 685.816 681.363 703.551C679.183 724.077 676.336 744.05 677.6 765.487C679.021 789.568 717.352 791.245 734.549 799.913C745.308 805.335 751.078 805.79 752.108 819.572C776.932 818.952 807.083 819.271 831.935 820.006C834.158 833.181 834.469 850.375 835.994 863.948C836.932 872.292 837.563 880.693 838.304 889.06C838.829 895 840.171 902.176 839.998 907.94C817.373 907.471 794.048 908.274 771.217 907.875C767.997 898.089 764.396 883.523 760.889 874.451C744.759 873.864 724.17 874.364 707.769 874.401L632.576 874.49C628.24 885.743 624.994 897.67 620.684 908.591C597.659 908.4 574.447 908.807 551.455 908.392C551.83 901.076 553.061 893.039 553.559 885.651C555.03 863.834 557.992 841.598 559.629 819.91C563.029 819.612 567.04 819.81 570.491 819.885C586.602 820.234 602.71 819.339 618.819 819.491C623.681 819.537 630.676 819.12 635.316 820.085C632.647 810.377 630.626 802.103 633.269 792.113C637.176 777.342 635.362 763.941 632.663 749.123C628.765 724.372 619.786 701.285 619.055 675.746C618.421 653.613 627.114 635.871 628.808 614.63C630.422 594.402 629.638 571.535 625.907 551.537C621.86 531.554 619.511 512.673 619.064 492.313C618.874 483.658 619.371 470.757 617.381 462.563C607.065 462.276 596.178 462.762 585.543 462.485C560.496 461.764 535.495 459.918 510.614 456.953C496.421 455.186 482.264 453.131 468.154 450.788C444.549 446.783 436.1 445.196 412.08 447.16C369.587 450.634 325.4 439.31 282.775 439.744C273.912 439.834 264.209 447.02 254.913 447.021C243.094 447.955 232.258 441.76 221.489 437.409C206.584 431.549 191.856 429.06 176.912 422.976C163.332 417.447 150.095 402.316 160.773 387.678C171.395 373.117 197.498 377.401 212.034 383.131C228.469 389.609 244.074 401.547 261.565 404.705C277.816 403.16 294.463 397.925 310.651 395.442C352.289 389.112 394.829 380.505 437.054 385.963C453.274 388.06 471.271 384.4 487.249 381.349C487.433 380.611 487.625 379.874 487.822 379.139C491.367 366.003 501.174 359.944 512.736 354.608C525.521 348.709 540.478 348.843 552.143 341.088C578.259 323.728 604.927 307.16 630.823 289.483C644.93 279.827 657.585 268.135 671.793 258.607C679.953 253.135 688.714 248.193 697.233 243.293C702.058 234.808 708.694 227.491 716.668 221.862C732.958 210.267 746.671 208.859 765.634 212.019C770.753 204.426 777.606 195.133 776.635 185.265C775.886 180.012 774.253 174.873 773.439 169.632C769.205 142.367 779.656 121.142 808.41 116.668ZM767.754 220.48C748.065 217.864 736.906 217.375 719.975 229.997C714.692 233.936 711.379 238.045 707.182 243.13C705.928 244.648 703.685 248.491 702.418 249.319C698.665 251.77 694.306 254.06 690.529 256.47C684.187 260.518 677.429 264.803 671.316 269.166C660.549 276.849 650.317 285.68 639.605 293.472C626.128 303.275 611.724 311.873 597.85 321.129L574.559 336.436C563.568 343.769 552.73 352.422 539.645 355.277C527.276 357.976 497.652 365.435 495.697 381.344C495.423 383.683 496.133 386.031 497.658 387.825C506.165 397.955 532.485 388.495 539.944 380.433C544.16 375.877 550.257 370.556 555.231 366.69C579.958 354.877 607.082 346.721 631.396 333.923C640.035 329.393 648.459 324.464 656.64 319.152C663.03 314.98 670.053 309.952 676.702 306.45C678.831 305.328 686.12 304.369 689.002 303.651C699.81 300.864 710.261 296.839 720.146 291.655C732.392 285.099 741.236 277.73 750.792 267.952C752.739 265.96 755.228 266.231 757.27 268.098C761.768 276.942 727.66 297.139 721.512 300.229C713.814 304.097 705.901 306.638 698.187 310.122C694.726 316.282 678.045 341.483 673.273 345.366C654.392 340.697 634.423 344.683 620.509 358.862C619.24 360.155 615.332 367.746 614.088 367.713C598.696 367.324 582.978 366.989 567.865 370.532C557.919 372.863 550.798 382.343 543.527 388.744C532.164 398.749 499.383 407.318 490.056 391.327C489.691 390.698 489.337 390.063 488.994 389.422C471.941 392.609 453.268 396.941 436.042 394.22C430.897 393.407 423.55 392.805 418.351 392.692C373.322 391.712 327.914 400.906 283.797 409.048C276.955 410.311 269.591 413.002 262.531 412.866C232.751 410.306 206.989 379.15 175.732 387.459C159.455 392.266 164.591 407.019 176.622 413.227C192.614 421.316 211.089 423.732 227.634 430.67C243.869 437.478 251.394 441.78 268.462 434.726C281.041 429.528 308.475 432.005 322.192 433.937C344.794 435.212 367.303 438.828 390.455 439.322C406.599 439.667 428.361 436.457 443.223 437.998C458.585 439.59 477.322 443.783 492.897 446.197C520.085 450.161 547.454 452.752 574.902 453.962C585 454.342 595.124 454.067 605.314 454.176C609.817 454.594 621.17 452.647 624.493 455.465C625.657 456.452 626.592 467.02 626.771 468.972C628.65 489.425 626.122 510.367 630.273 530.739C637.491 566.159 641.771 603.709 632.854 639.232C629.35 653.215 626.292 667.801 627.628 682.298C630.357 711.115 641.328 738.779 643.566 767.78C643.803 770.845 643.709 781.865 643.201 783.746C634.898 814.476 644.078 832.101 676.97 821.12C686.02 818.099 705.536 819.87 715.483 821.372C725.173 822.746 736.233 822.634 744.216 816.198C740.48 809.656 734.295 808.727 727.704 806.227C714 801.03 696.393 797.62 683.856 790.152C678.155 786.832 673.771 781.651 671.437 775.481C665.148 759.259 670.984 722.317 673.017 704.258C674.789 688.733 676.729 673.227 678.837 657.745C679.933 649.483 681.313 636.782 683.276 628.833C686.04 620.627 688.107 612.949 689.892 604.504C691.328 597.714 690.356 587.033 692.083 581.073C699.284 556.219 704.286 532.248 705.45 506.281C706.237 488.707 705.656 470.097 701.652 452.823C700.89 449.407 696.488 440.545 695.566 436.686C697.084 432.747 707.402 421.725 710.542 418.183C729.16 397.024 747.559 375.674 765.736 354.137C774.248 344.248 784.659 336.402 792.471 327.448C805.434 312.59 806.457 285.118 802.889 266.797C801.65 260.091 799.071 253.269 796.731 247.019C799.369 242.918 801.703 239.352 803.888 234.966C806.294 230.136 808.315 225.017 811.035 220.393C807.518 217.158 792.286 203.774 797.579 198.678C798.468 197.835 799.7 197.454 800.91 197.649C807.453 198.688 817.162 225.062 839.272 224.004C844.219 214.834 844.684 209.932 851.065 200.513C853.577 200.33 856.081 200.055 858.573 199.687C857.435 195.024 854.977 185.86 854.722 181.417C856.851 176.901 859.048 172.602 860.028 167.657C865.307 141.023 832.489 123.206 809.773 125.192C783.682 128.064 778.397 148.741 781.885 170.922C782.635 175.695 783.821 179.984 784.88 184.674C786.476 197.28 777.217 213.021 767.754 220.48ZM826.268 847.048C788.724 846.275 749.669 847.034 712.033 846.854C677.878 846.69 642.289 846.007 608.283 846.742C594.748 846.86 579.116 846.621 565.711 847.175C564.821 857.48 563.538 867.702 562.79 878.084C562.275 885.236 560.861 893.094 560.978 900.358C578.957 900.336 597.2 900.597 615.129 900.401C617.7 892.127 622.769 873.901 625.958 866.553C650.755 865.114 682.875 866.293 708.287 866.262L742.653 866.089C750.271 866.04 759.985 865.777 767.484 866.673C768.756 870.639 769.958 874.626 771.09 878.634C772.515 883.611 775.728 895.877 777.602 900.2L807.569 900.092C814.75 900.098 823.965 900.346 831.003 899.952C830.385 881.89 827.605 864.67 826.268 847.048ZM569.561 827.701L567.616 827.99C565.846 830.922 566.41 835.031 566.507 838.521L772.466 838.526C779.089 838.531 823.986 838.924 825.2 838.088L825.039 835.624C824.898 833.086 824.816 830.493 824.452 827.984C797.993 827.18 771.253 827.888 744.765 827.618C739.21 827.512 734.232 829.55 728.687 829.676C712.586 830.043 695.828 826.491 679.835 828.934C667.554 830.809 654.929 837.038 643.587 827.679C618.966 827.321 594.203 827.785 569.561 827.701ZM648.381 335.599C658.145 334.874 660.691 334.904 670.44 336.337C673.043 333.113 686.795 315.02 686.875 312.177C675.128 314.907 666.602 323.59 656.247 329.444C654.228 330.586 648.192 334.129 647.126 335.436C648.262 335.641 647.917 335.633 648.381 335.599ZM597.422 358.923C602.08 359.515 605.09 359.533 609.829 359.55C610.657 357.803 613.038 353.913 612.82 352.661L612.207 352.534C607.8 353.828 600.692 356.224 596.673 358.399L596.522 358.906L597.422 358.923Z"/></svg>