<?xml version="1.0" encoding="utf-8" ?><svg xmlns="http://www.w3.org/2000/svg" xmlns:xlink="http://www.w3.org/1999/xlink" width="1024" height="1024" viewBox="0 0 1024 1024"><path fill="currentColor" transform="scale(2 2)" d="M249.606 63.2587C355.632 59.8083 444.384 142.956 447.846 248.981C451.309 355.007 368.172 443.768 262.146 447.243C156.104 450.718 67.3255 367.564 63.8623 261.521C60.3992 155.479 143.563 66.7097 249.606 63.2587ZM180.997 185.666C186.467 212.578 197.057 240.32 214.828 261.502C246.025 241.559 270.107 226.409 308.261 219.827C361.338 209.64 413.128 220.107 441.595 271.19C446.987 228.858 432.671 184.705 408.848 149.872C406.416 146.318 402.302 145.553 398.658 143.759C377.266 133.975 351.232 128.744 327.756 129.748C322.469 130.308 317.144 130.465 311.872 131.086C268.716 136.166 215.12 157.253 180.997 185.666ZM228.987 373.391C235.168 376.838 242.408 380.63 248.379 384.248C263.517 371.884 276.846 347.704 284.312 329.1C278.441 325.002 272.278 321.361 266.444 317.296C216.546 282.526 176.405 230.827 173.398 168.305C172.07 140.681 179.157 103.066 195.217 79.515L195.029 79.2805C167.307 89.1664 144.56 103.216 123.86 124.282C112.477 135.866 114.144 133.112 110.448 149.514C90.2093 239.325 153.021 331.03 228.987 373.391ZM293.43 228.794C318.043 310.569 271.795 401.325 189.863 426.957C188.874 427.266 187.887 427.541 186.891 427.793C196.001 431.568 204.223 433.206 213.451 436.064C251.067 444.507 288.417 442.018 324.542 428.289C334.062 424.671 340.723 420.739 349.489 416.719C351.271 412.426 353.448 408.317 355.344 404.073C380.218 348.382 374.569 277.667 344.822 224.648C344.592 224.237 343.353 221.851 343.207 221.721C331.686 221.763 321.364 222.849 310.055 224.967C307.192 225.503 295.099 228.77 293.43 228.794ZM178.75 424.467C184.256 423.198 198.7 418.101 203.736 415.442C220.264 408.313 231.306 399.131 244.747 388.163C237.029 384.896 226.11 378.526 219.008 374.134C147.502 329.801 89.2377 245.843 102.844 158.492C103.118 156.737 104.956 147.97 104.837 146.968C44.2395 231.231 62.6333 346.618 147.489 406.62C155.195 412.069 169.962 421.582 178.75 424.467ZM287.326 230.765C262.893 238.183 239.184 251.169 218.242 265.73C226.75 277.019 240.404 289.568 251.24 298.574C262.18 307.656 273.953 316.057 286.27 323.164C288.155 319.539 289.352 313.034 290.392 308.933C296.786 283.731 296.207 256.457 288.492 231.61C288.354 231.164 288.288 231.097 287.98 230.761L287.326 230.765ZM400.297 138.611C365.095 95.2251 309.939 66.7012 253.511 68.2595C245.076 69.0106 208.464 71.1613 203.21 78.3162C183.201 106.71 176.184 144.457 179.556 178.152L179.691 179.4L180.038 179.191C183.152 177.289 186.14 174.837 189.177 172.699C215.287 154.327 256.801 134.239 288.962 129.118C318.462 122.202 372.922 121.647 399.932 138.383L400.297 138.611ZM358.557 410.722C371.615 401.608 382.61 392.814 393.582 381.065C414.916 358.102 430.017 329.94 437.2 299.447C437.84 296.731 440.763 283.709 440.262 281.969C430.441 247.868 383.749 222.746 350.291 221.721C379.72 274.658 387.376 355.466 358.557 410.722Z"/></svg>