<?xml version="1.0" encoding="utf-8" ?><svg xmlns="http://www.w3.org/2000/svg" xmlns:xlink="http://www.w3.org/1999/xlink" width="1024" height="1024" viewBox="0 0 1024 1024"><path fill="currentColor" transform="scale(2 2)" d="M256.09 123.16C263.904 124.957 296.34 169.185 300.821 176.802C313.523 165.051 329.549 154.817 345.67 148.528C357.618 143.866 356.11 143.508 359.472 155.353C363.367 169.076 365.82 182.592 366.094 196.876C366.225 203.095 365.537 209.31 366.112 215.45C386.555 209.513 409.375 208.583 430.474 210.627C437.212 211.508 441.701 209.631 439.538 218.043C433.378 242.002 424.431 264.876 410.479 285.401C406.233 291.429 401.164 297.293 396.601 303.089L396.911 303.123C412.378 304.964 432.305 319.475 443.911 329.385C444.944 330.266 450.761 334.234 449.575 335.88C439.044 350.496 413.411 366.271 397.816 374.352C353.569 397.325 308.591 388.055 268.704 361.73C264.91 359.226 260.113 354.938 256.09 353.556C252.685 354.467 243.66 361.763 239.448 364.158C209.058 381.433 177.68 394.166 141.876 384.689C122.177 379.34 103.92 371.109 87.6899 358.65C82.4373 354.618 65.5385 341.787 62.469 336.051C61.2046 333.689 66.972 330.726 68.1959 329.091C85.6099 314.548 95.7329 309.317 116.064 301.759C94.3172 279.593 80.0899 252.567 73.2429 222.304C72.6717 219.78 70.0613 214.161 73.4783 213.065C90.0598 209.419 129.952 207.599 146.003 215.45C146.964 208.463 145.53 200.534 146.088 193.307C147.313 177.408 149.535 160.448 155.458 145.602C156.471 143.064 163.928 147.401 165.568 147.918C181.749 155.123 198.202 164.644 211.182 176.802C217.839 165.101 244.269 129.754 256.09 123.16ZM225.497 269.452C227.762 259.854 249.594 231.164 256.09 228.971C269.024 237.358 279.567 254.972 287.028 268.558C294.064 256.876 302.977 249.905 312.666 240.929C311.801 193.815 289.344 160.088 256.09 129.191C228.969 152.409 202.065 192.507 200.382 228.353C200.002 235.159 198.249 239.691 203.16 244.467C210.41 251.517 220.7 260.444 225.497 269.452ZM364.826 220.754C358.975 267.97 330.391 311.177 289.513 335.393C282.512 339.54 275.086 342.945 268.158 347.098C278.543 345.605 290.966 345.388 300.821 343.176C303.046 343.026 305.934 342.342 308.154 341.896C380.579 327.365 417.723 286.781 435.186 216.376C424.335 214.262 411.301 214.267 400.33 214.496C386.542 215.816 377.675 218.109 364.826 220.754ZM151.737 222.284C161.403 268.81 181.443 303.203 222.724 329.983C225.528 331.802 247.341 343.654 248.629 343.456L248.358 343.176C233.57 323.089 218.308 301.001 223.837 274.894C211.853 254.669 186.12 235.052 164.998 226.363C160.477 224.504 156.666 222.618 151.737 222.284ZM262.958 343.176L262.97 343.415C264.938 343.114 271.875 339.361 273.928 338.364C310.696 320.489 340.19 288.844 353.451 249.952C354.882 245.145 359.808 226.28 359.337 222.458L359.171 222.284C329.457 233.414 306.461 246.163 288.766 274.411C288.891 274.211 290.176 287.18 289.935 289.468C288.23 305.638 275.021 331.283 262.958 343.176ZM444.135 335.509C433.86 326.057 406.909 307.633 392.566 306.428C353.274 339.969 317.139 348.823 265.639 351.523C259.611 351.839 267.67 355.195 268.983 356.106C286.787 368.462 299.784 371.789 318.619 379.177C328.059 381.271 338.034 383.45 347.777 383.477C373.27 383.547 403.855 367.782 424.416 353.218C431.175 348.215 438.232 341.347 444.135 335.509ZM67.5353 335.509C95.9802 361.898 128.877 384.025 169.626 383.196C177.455 383.03 186.387 381.104 193.939 379.177C204.13 376.147 241.52 360.569 248.561 352.775L248.565 352.308C247.476 351.301 232.862 350.657 230.025 350.448C193.363 347.755 156.703 335.94 127.96 312.494C126.419 311.237 120.978 306.108 119.649 305.506L119.402 305.531C96.0144 313.397 86.5162 320.243 67.5353 335.509ZM150.747 216.376C168.72 221.863 180.343 228.212 195.609 238.214L195.609 233.438C196.128 212.294 200.016 200.081 208.655 181.139C201.166 173.022 170.202 152.49 158.576 150.997C153.587 164.461 150.859 184.96 150.634 199.23C150.55 204.588 151.384 211.319 150.747 216.376ZM303.487 181.139L303.604 181.504C309.776 200.367 316.381 208.38 317.248 231.438L317.248 237.275C327.81 231.232 337.44 224.94 349.088 220.879C352.899 219.551 356.589 218.291 360.155 216.376C362.626 204.204 359.893 162.046 353.509 151.102L353.288 150.997C335.9 158.045 316.191 167.17 303.487 181.139ZM256.09 235.49C246.772 242.787 234.765 258.726 230.38 269.758C220.24 295.268 237.23 319.921 251.936 339.833C252.753 340.939 254.96 343.37 256.09 343.988C258.604 342.35 261.308 338.462 263.116 335.899C280.828 310.796 294.877 288.486 276.634 259.264C273.339 253.987 261.136 238.511 256.09 235.49ZM101.792 214.496C75.8581 216.431 73.9819 211.384 81.6499 235.206C100.92 295.076 146.739 331.467 208.162 342.89C211.398 343.492 218.375 344.646 221.559 344.772C229.189 345.777 237.217 346.1 244.542 347.098C237.63 343.55 230.284 340.219 223.671 336.129C180.746 309.556 154.299 270.213 147.168 220.754C136.16 215.737 113.871 214.436 101.792 214.496Z"/></svg>