<?xml version="1.0" encoding="utf-8" ?><svg xmlns="http://www.w3.org/2000/svg" xmlns:xlink="http://www.w3.org/1999/xlink" width="1024" height="1024" viewBox="0 0 1024 1024"><path fill="currentColor" transform="scale(2 2)" d="M255.404 97.9949C258.301 98.7952 291.638 116.391 293.55 118.161C295.102 119.597 294.306 120.814 292.594 121.562C280.768 126.729 269.402 133.042 257.749 138.646C257.893 141.764 257.89 143.829 257.749 146.907C261.468 149.53 264.132 152.665 267.365 155.816C302.728 190.28 345.95 216.688 391.611 235.084C394.568 236.275 401.871 238.81 404.123 240.445C404.619 253.764 403.941 267.57 404.176 280.999C405.049 330.934 413.369 365.892 436.27 409.987C439.231 409.988 448.311 409.098 449.608 411.975C449.517 413.39 448.272 414.252 446.866 414.259L295.375 414.247L67.3513 414.27C64.8364 414.266 61.2476 413.271 63.7713 409.971C65.5806 409.167 73.9215 409.486 76.4883 409.501C78.0711 405.459 80.7619 401.406 82.6482 397.433C106.964 346.226 109.084 295.566 108.059 240.503C111.215 238.381 117.928 236.511 121.752 234.877C171.199 213.753 215.784 185.234 253.502 146.907C253.651 142.765 253.522 137.927 253.515 133.718L253.521 112.167C253.513 107.954 252.064 100.299 255.404 97.9949ZM189.105 409.501L255.404 409.501L322.395 409.501C321.845 403.048 315.198 387.734 311.688 382.178C303.964 369.953 290.55 361.908 281.95 349.952C270.439 333.948 260.495 313.358 256.612 293.919L256.453 294.36C254.998 298.446 254.226 302.746 252.833 306.873C244.345 332.028 231.259 354.997 209.864 371.328C199.21 379.461 192.762 396.943 189.105 409.501ZM344.481 271.439C349.634 323.877 365.077 369.631 399.427 409.501C402.971 410.219 409.026 410.005 412.875 409.987C418.201 409.975 425.886 409.708 431.054 409.987C406.057 362.654 399.666 321.125 399.757 268.038C385.981 274.646 373.739 270.385 365.82 257.903C360.51 266.388 354.667 270.496 344.481 271.439ZM112.57 265.807C112.443 273.817 112.744 281.478 112.291 289.525C110.163 327.309 100.924 376.112 81.2334 409.501C86.1824 409.783 90.9345 409.459 95.865 409.501L106.651 409.531C108.113 409.541 111.231 409.66 112.57 409.501C148.663 368.556 159.859 323.388 166.989 271.439C155.787 269.778 153.837 267.258 147.625 258.476C140.007 271.17 124.531 275.795 112.57 265.807ZM171.542 271.439C167.489 312.486 148.806 379.264 118.296 409.501C123.978 409.744 128.838 409.443 134.375 409.501L172.881 409.501L172.946 409.281C173.888 406.176 175.551 402.772 176.736 399.684C191.493 361.267 199.866 320.664 204.736 279.88C205.093 276.892 205.403 273.643 205.885 270.707C196.406 267.57 195.616 264.497 190.271 257.903C185.781 266.43 180.764 269.418 171.542 271.439ZM261.633 156.169C269.874 178.691 296.544 213.455 312.61 229.878C315.441 232.772 318.65 236.369 321.821 238.833L322.178 239.114C322.25 239.169 322.322 239.224 322.395 239.279L381.873 239.325C384.418 239.35 388.244 239.587 390.71 239.279C346.503 223.204 301.343 193.946 267.344 161.761C265.8 160.299 263.124 157.322 261.633 156.169ZM314.877 261.45C319.762 255.353 320.665 251.236 320.649 243.487L280.249 243.487C280.147 264.747 299.627 274.975 314.877 261.45ZM393.752 409.501C364.696 379.77 342.188 314.422 340.324 271.439C326.164 266.892 329.982 266.19 322.395 257.903C319.446 265.1 312.219 269.041 305.156 271.439C310.559 314.884 317.202 352.824 333.932 394.212C335.845 398.945 338.81 404.766 340.324 409.501L376.618 409.501C382.3 409.519 388.077 409.59 393.752 409.501ZM269.059 262.445C275.077 257.529 276.153 250.884 275.997 243.487L237.999 243.487C233.368 244.052 237.256 254.292 238.477 256.682C244.096 267.681 259.779 270.575 269.059 262.445ZM224.883 262.445C231.438 256.501 232.104 252.155 231.74 243.487C219.535 243.324 207.069 243.022 194.876 243.487L192.626 243.487C192.475 263.297 209.374 274.739 224.883 262.445ZM184.881 409.501C185.558 406.067 186.897 402.192 187.982 398.813C192.219 387.124 197.246 375.807 207.192 367.843C234.081 346.312 255.276 305.91 254.438 271.439C245.71 270.471 238.67 265.96 234.123 258.297C233.965 258.03 234.009 258.095 233.803 257.903C229.784 267.531 219.669 270.994 210.002 271.439C206.403 309.078 194.542 375.815 177.217 409.501L184.881 409.501ZM189.105 243.487L163.176 243.474C158.957 243.472 153.939 243.327 149.802 243.487C149.662 249.673 149.884 256.342 154.564 261.095C162.16 268.809 174.954 269.14 182.765 261.45C188.204 255.483 187.881 251.113 189.105 243.487ZM357.942 261.45C363.36 255.208 363.696 251.435 363.502 243.487L324.751 243.487C324.432 263.991 342.167 275.167 357.942 261.45ZM257.749 104.008C257.431 113.364 257.83 123.919 257.749 133.434C264.722 130.458 270.103 127.725 276.781 124.296C279.666 122.901 283.953 121.033 286.496 119.374C278.379 114.562 266.448 107.731 257.749 104.008ZM327.531 409.501L336.131 409.501C317.37 373.348 304.022 311.959 300.951 271.439C287.778 270.736 285.276 267.424 278.274 257.903C273.004 265.819 268.866 269.372 259.448 271.253L258.5 271.439C258.373 300.112 274.071 337.818 294.609 357.624C310.817 373.254 317.336 378.187 324.751 400.826C325.563 403.267 326.952 407.115 327.531 409.501ZM399.757 262.445L399.757 243.487L368 243.487C367.913 261.24 381.485 273.096 397.407 263.886C398.161 263.427 399.031 262.926 399.757 262.445ZM112.57 243.487L112.57 259.692C119.938 268.3 131.99 269.612 140.23 261.45C145.525 255.951 145.449 250.807 145.39 243.487C134.562 243.494 123.37 243.639 112.57 243.487ZM249.182 157.472C215.635 190.796 168.556 219.405 125.003 238.002C124.394 238.262 122.32 238.779 122.202 239.279C144.645 239.931 170.429 240.1 192.626 239.279C207.638 224.166 220.702 206.521 232.219 188.623C234.392 185.246 249.459 159.793 249.182 157.472ZM255.404 154.682C241.666 185.407 221.441 214.628 198.624 239.279L258.5 239.279L296.807 239.284C302.877 239.286 309.912 239.467 315.892 239.279C295.597 219.082 278.657 196.935 264.587 171.889C263.315 169.623 256.36 155.622 255.404 154.682Z"/></svg>