<?xml version="1.0" encoding="utf-8" ?><svg xmlns="http://www.w3.org/2000/svg" xmlns:xlink="http://www.w3.org/1999/xlink" width="1024" height="1024" viewBox="0 0 1024 1024"><path fill="currentColor" d="M393.503 96.0635C394.293 96.0066 395.083 95.9674 395.874 95.9457C397.404 95.9132 399.43 96.1234 400.721 96.9698C408.56 102.11 416.399 107.835 424.061 113.228C440.498 124.885 456.741 136.813 472.784 149.007C477.101 152.326 494.539 165.594 497.918 169.516C517.448 192.483 534.66 219.49 549.228 245.796C558.499 262.539 553.874 277.294 556.627 294.134C557.714 300.788 571.081 317.805 572.745 325.57C577.88 349.524 584.903 371.263 595.459 393.455C605.632 415.654 617.118 437.02 631.981 456.576C637.255 463.515 644.366 468.892 649.606 475.782C653.066 482.429 655.617 491.351 658.045 498.275C666.723 525.278 679.407 557.143 681.154 585.803C683.263 620.401 681.338 657.326 681.764 692.175C705.367 724.345 701.405 746.146 701.383 783.25L701.966 845.345C702.033 854.511 701.155 869.46 703.04 877.982C707.269 891.72 723.252 900.902 729.636 912.895C732.203 918.966 728.145 927.398 721.138 927.657C710.872 928.038 691.825 928.419 682.185 928.005C666.728 927.34 662.911 898.437 664.756 885.991C668.762 858.976 655.399 836.487 647.477 811.56C639.176 787.134 635.816 759.705 634.932 733.962C633.995 706.698 625.191 691.23 615.359 666.669C603.834 638.658 593.72 610.087 585.054 581.064C582.756 573.419 578.537 560.538 577.167 553.037C573.852 553.024 570.537 553.051 567.223 553.117C563.947 563.341 554.34 580.558 548.748 589.88C534.164 614.193 517.576 640.077 500.807 662.997L475.934 696.928C470.046 704.92 463.891 713.204 458.43 721.469C456.258 724.757 453.553 731.392 451.858 735.198C449.237 741.118 446.461 746.968 443.532 752.743C433.764 772.091 424.01 787.845 412.242 805.756C406.621 814.278 400.747 822.632 394.629 830.805C385.383 843.315 372.467 858.581 367.548 873.767C362.278 890.035 366.852 915.585 348.426 926.269C347.553 926.775 344.168 927.673 343.196 927.618C329.902 926.869 315.65 929.106 302.666 926.666C300.285 925.834 297.692 923.591 296.894 921.265C293.108 910.406 302.625 904.804 309.951 899.148C337.275 878.054 341.933 847.07 352.153 816.115C360.417 790.868 370.195 766.143 381.433 742.072C388.219 727.545 396.108 713.558 405.031 700.236C408.666 694.747 417.837 683.532 420.024 678.593C421.096 676.172 424.243 661.06 425.188 657.312C428.386 644.891 431.863 632.544 435.617 620.279C445.77 586.938 459.249 553.307 471.855 520.648C465.317 517.182 458.727 514.125 452.314 510.296C448.056 507.753 439.174 506.965 434.017 506.21L411.487 502.775C383.148 498.359 355.26 492.52 327.952 483.642C318.571 480.592 308.638 477.351 300.002 472.531C296.945 470.825 293.738 468.519 292.858 464.926C291.963 461.269 294.193 457.229 296.31 454.419C302.693 445.949 316.587 435.152 324.867 427.667C349.404 405.486 373.327 381.136 401.216 363.101C407.661 358.934 440.826 343.296 442.7 339.556C444.601 335.76 441.89 328.198 440.872 324.286C423.731 323.257 393.673 310.246 386.316 292.158C385.333 289.74 384.838 286.779 383.279 284.656C375.626 274.236 366.556 265.038 366.22 251.253C365.508 239.38 369.042 229.805 377.098 220.77C386.505 210.193 399.754 203.823 413.89 203.081C426.882 202.488 440.586 207.983 447.854 218.818C453.985 227.957 456.137 231.819 464.429 239.075C476.968 250.047 475.971 274.391 476.292 289.828C482.326 294.375 487.399 299.578 493.424 304.316C497.184 301.079 500.583 297.02 503.838 293.257C506.676 278.674 501.91 265.45 496.673 251.992C491.68 239.161 483.831 220.571 477.241 208.793C470.489 199.862 460.323 191.837 452.898 183.579C434.991 163.66 418.52 142.901 400.692 122.951C396.757 118.072 391.383 113.266 388.411 107.72C385.52 102.325 389.16 98.3805 393.503 96.0635ZM493.113 315.165C489.497 312.851 477.852 302.589 474.207 299.377C470.26 314.079 464.501 320.785 449.245 324.043C451.994 332.64 452.872 338.358 448.96 347.004C434.679 355.328 416.5 363.227 403.408 372.052C375.905 390.589 351.096 415.721 326.399 437.939C320.086 443.619 305.687 456.558 300.896 462.743C308.424 467.574 324.165 473.147 332.948 475.911C358.329 483.828 384.274 489.808 410.56 493.798C418.298 495.068 426.046 496.277 433.803 497.426C439.245 498.185 444.734 498.841 450.12 499.721C459.892 501.317 469.296 514.176 479.781 511.784C488.827 509.721 488.924 489.265 488.411 482.359C473.209 472.444 465.506 476.249 452.025 485.128C436.747 485.249 393.719 469.268 377.416 463.828C372.959 462.34 358.359 457.506 354.742 455.777C359.19 451.118 369.929 445.208 375.883 441.051C391.456 430.178 408.973 418.692 422.155 404.969C425.621 401.362 428.67 395.754 431.59 391.761C456.31 405.735 473.196 432.972 486.283 457.473C489.768 463.998 492.674 474.171 497.537 479.335C497.779 493.267 497.047 515.555 481.001 520.666C471.023 551.181 456.951 580.495 447.463 611.403C440.186 635.106 433.472 658.227 427.866 682.424C426.721 687.366 416.516 697.203 414.213 702.369C405.038 716.16 398.162 727.644 390.956 742.532C379.239 766.841 369.206 791.926 360.926 817.609C350.752 848.461 344.662 881.898 318.236 903.638C314.729 906.524 303.571 913.107 305.279 917.863C308.394 919.426 317.923 919.83 321.568 919.325C326.665 918.619 339.209 920.574 343.18 919.313C354.686 915.659 355.829 889.184 356.944 882C357.765 876.799 359.12 871.697 360.989 866.775C367.763 850.583 383.001 832.804 393.228 818.164C398.809 810.175 404.255 802.182 409.595 794.024C420.395 777.678 430.107 760.638 438.668 743.015C442.216 735.862 447.606 722.144 451.333 716.514C461.006 701.9 472.509 687.703 482.794 673.309C507.792 638.32 533.713 601.982 553 563.509C555.961 557.602 558.39 550.677 560.824 544.537C564.65 544.453 581.605 543.623 583.764 545.419C585.641 548.867 591.36 573.291 593.118 578.81C596.398 589.11 599.903 599.829 603.481 610.169C609.231 626.844 615.404 643.371 621.993 659.733C627.12 672.204 638.733 696.756 640.725 709.238C645.082 736.519 643.737 761.932 650.524 789.669C653.772 802.638 657.742 815.416 662.417 827.942C666.439 838.817 670.167 846.077 672.747 857.709C676.769 875.847 669.77 895.538 676.526 912.463C677.98 916.104 679.229 917.64 682.976 918.688C687.791 920.035 718.149 920.184 721.095 918.724C723.117 914.877 716.24 909.992 713.856 907.341C706.161 898.78 695.528 889.857 694.237 877.762C693.134 867.42 693.607 857.369 693.457 847.274L692.911 776.202C692.787 754.974 695.148 737.541 686.162 717.749C683.507 711.9 673.057 696.14 673.021 691.816L672.953 625.607C672.954 610.511 673.412 594.795 671.52 579.876C668.414 555.375 660.707 531.382 652.361 508.202C649.051 499.008 645.369 483.465 638.869 477.124C636.059 474.382 632.045 471.026 629.551 467.893C604.016 435.814 586.216 397.855 572.589 359.405C568.611 348.182 568.106 337.895 564.265 327.074C560.14 315.454 548.006 303.118 547.825 290.807C547.678 280.792 548.122 269.485 545.673 259.73C544.704 255.869 541.089 248.352 539.159 244.897C529.943 228.4 518.968 212.46 508.128 196.97C504.273 191.461 497.547 181.616 493.001 177.328C489.202 173.745 476.831 163.196 473.582 160.923C463.538 153.898 402.154 106.89 397.144 105.367C415.697 126.571 434.127 148.065 452.383 169.536C461.065 179.747 473.105 188.396 481.24 199.153C493.886 219.586 502.959 243.052 510.511 265.821C512.642 272.247 513.724 281.729 513.486 288.449C513.054 300.645 502.105 308.568 493.113 315.165ZM434.617 404.087C425.473 417.474 388.704 443.895 373.791 452.898C378.932 455.524 390.15 458.994 396.039 460.91C407.281 464.606 418.561 468.183 429.879 471.64C435.833 473.397 443.835 475.949 449.869 476.662C461.279 467.477 467.79 464.863 482.257 469.39C474.94 449.56 451.18 416.833 434.617 404.087ZM433.909 314.264C440.678 315.619 450.501 317.691 456.35 313.136C469.182 303.14 469.01 281.384 467.045 266.865C466.16 260.33 464.829 253.518 461.129 248.069C458.103 243.931 452.938 240.305 449.558 236.344C441.103 224.725 437.394 214.327 421.002 212.204C417.244 211.717 414.827 211.885 410.858 212.12C397.122 214.769 388.155 220.082 379.88 231.596C368.231 247.805 376.842 263.101 387.992 276.34C392.313 281.471 393.667 283.408 394.072 290.051C403.721 302.395 418.343 311.821 433.909 314.264Z"/></svg>